AnekBangla-ExtraBold.ufo
<glyph name="parenleft" format="2">
  <advance width="675"/>
  <unicode hex="0028"/>
  <outline>
    <contour>
      <point x="428" y="569" type="line" smooth="yes"/>
      <point x="428" y="883"/>
      <point x="509" y="1118"/>
      <point x="671" y="1351" type="curve"/>
      <point x="323" y="1351" type="line"/>
      <point x="180" y="1155"/>
      <point x="91" y="914"/>
      <point x="91" y="583" type="curve" smooth="yes"/>
      <point x="91" y="516" type="line" smooth="yes"/>
      <point x="91" y="185"/>
      <point x="179" y="-56"/>
      <point x="320" y="-252" type="curve"/>
      <point x="671" y="-252" type="line"/>
      <point x="509" y="-19"/>
      <point x="428" y="216"/>
      <point x="428" y="530" type="curve" smooth="yes"/>
    </contour>
  </outline>
</glyph>
<glyph name="parenright" format="2">
  <advance width="675"/>
  <unicode hex="0029"/>
  <outline>
    <contour>
      <point x="247" y="569" type="curve" smooth="yes"/>
      <point x="247" y="530" type="line" smooth="yes"/>
      <point x="247" y="216"/>
      <point x="166" y="-19"/>
      <point x="4" y="-252" type="curve"/>
      <point x="355" y="-252" type="line"/>
      <point x="496" y="-56"/>
      <point x="584" y="185"/>
      <point x="584" y="516" type="curve" smooth="yes"/>
      <point x="584" y="583" type="line" smooth="yes"/>
      <point x="584" y="914"/>
      <point x="495" y="1155"/>
      <point x="352" y="1351" type="curve"/>
      <point x="4" y="1351" type="line"/>
      <point x="166" y="1118"/>
      <point x="247" y="883"/>
    </contour>
  </outline>
</glyph>
<glyph name="plus" format="2">
	<advance width="1028"/>
	<unicode hex="002B"/>
	<outline>
		<contour>
			<point x="663" y="184" type="line"/>
			<point x="663" y="1052" type="line"/>
			<point x="366" y="1052" type="line"/>
			<point x="366" y="184" type="line"/>
		</contour>
		<contour>
			<point x="84" y="478" type="line"/>
			<point x="944" y="478" type="line"/>
			<point x="944" y="758" type="line"/>
			<point x="84" y="758" type="line"/>
		</contour>
	</outline>
</glyph>
<glyph name="hyphen" format="2">
	<advance width="735"/>
	<unicode hex="002D"/>
	<outline>
		<contour>
			<point x="79" y="368" type="line"/>
			<point x="656" y="368" type="line"/>
			<point x="656" y="648" type="line"/>
			<point x="79" y="648" type="line"/>
		</contour>
	</outline>
</glyph>
<glyph name="slash" format="2">
	<advance width="945"/>
	<unicode hex="002F"/>
	<outline>
		<contour>
			<point x="-24" y="-252" type="line"/>
			<point x="284" y="-252" type="line"/>
			<point x="969" y="1351" type="line"/>
			<point x="661" y="1351" type="line"/>
		</contour>
	</outline>
</glyph>
<glyph name="seven" format="2">
	<advance width="1007"/>
	<unicode hex="0037"/>
	<outline>
		<contour>
			<point x="151" y="0" type="line"/>
			<point x="540" y="0" type="line"/>
			<point x="954" y="968" type="line"/>
			<point x="954" y="1278" type="line"/>
			<point x="44" y="1278" type="line"/>
			<point x="44" y="976" type="line"/>
			<point x="576" y="976" type="line"/>
		</contour>
	</outline>
</glyph>
<glyph name="less" format="2">
	<advance width="1028"/>
	<unicode hex="003C"/>
	<outline>
		<contour>
			<point x="318" y="625" type="line"/>
			<point x="943" y="720" type="line"/>
			<point x="943" y="1014" type="line"/>
			<point x="84" y="840" type="line"/>
			<point x="84" y="389" type="line"/>
			<point x="943" y="215" type="line"/>
			<point x="943" y="509" type="line"/>
			<point x="318" y="605" type="line"/>
		</contour>
	</outline>
</glyph>
<glyph name="equal" format="2">
	<advance width="1039"/>
	<unicode hex="003D"/>
	<outline>
		<contour>
			<point x="90" y="274" type="line"/>
			<point x="949" y="274" type="line"/>
			<point x="949" y="548" type="line"/>
			<point x="90" y="548" type="line"/>
		</contour>
		<contour>
			<point x="90" y="689" type="line"/>
			<point x="949" y="689" type="line"/>
			<point x="949" y="963" type="line"/>
			<point x="90" y="963" type="line"/>
		</contour>
	</outline>
</glyph>
<glyph name="question" format="2">
	<advance width="934"/>
	<unicode hex="003F"/>
	<outline>
		<contour>
			<point x="227" y="413" type="line"/>
			<point x="378" y="437" type="line" smooth="yes"/>
			<point x="712" y="490"/>
			<point x="884" y="613"/>
			<point x="884" y="892" type="curve" smooth="yes"/>
			<point x="884" y="916" type="line" smooth="yes"/>
			<point x="884" y="1169"/>
			<point x="730" y="1306"/>
			<point x="420" y="1306" type="curve" smooth="yes"/>
			<point x="273" y="1306"/>
			<point x="141" y="1273"/>
			<point x="63" y="1241" type="curve"/>
			<point x="25" y="945" type="line"/>
			<point x="132" y="982"/>
			<point x="238" y="1006"/>
			<point x="345" y="1006" type="curve" smooth="yes"/>
			<point x="473" y="1006"/>
			<point x="521" y="967"/>
			<point x="521" y="888" type="curve" smooth="yes"/>
			<point x="521" y="880" type="line" smooth="yes"/>
			<point x="521" y="807"/>
			<point x="481" y="758"/>
			<point x="328" y="731" type="curve" smooth="yes"/>
			<point x="227" y="713" type="line"/>
		</contour>
		<contour>
			<point x="360" y="-30" type="curve" smooth="yes"/>
			<point x="486" y="-30"/>
			<point x="546" y="39"/>
			<point x="546" y="154" type="curve" smooth="yes"/>
			<point x="546" y="165" type="line" smooth="yes"/>
			<point x="546" y="279"/>
			<point x="486" y="349"/>
			<point x="360" y="349" type="curve" smooth="yes"/>
			<point x="233" y="349"/>
			<point x="175" y="279"/>
			<point x="175" y="165" type="curve" smooth="yes"/>
			<point x="175" y="154" type="line" smooth="yes"/>
			<point x="175" y="39"/>
			<point x="233" y="-30"/>
		</contour>
	</outline>
</glyph>
<glyph name="at" format="2">
  <advance width="1722"/>
  <unicode hex="0040"/>
  <outline>
    <contour>
      <point x="697" y="60" type="curve" smooth="yes"/>
      <point x="842" y="60"/>
      <point x="899" y="146"/>
      <point x="928" y="257" type="curve"/>
      <point x="1001" y="257" type="line"/>
      <point x="948" y="386" type="line"/>
      <point x="928" y="338"/>
      <point x="893" y="313"/>
      <point x="851" y="313" type="curve" smooth="yes"/>
      <point x="805" y="313"/>
      <point x="782" y="342"/>
      <point x="782" y="391" type="curve" smooth="yes"/>
      <point x="782" y="416"/>
      <point x="783" y="444"/>
      <point x="795" y="541" type="curve" smooth="yes"/>
      <point x="805" y="623"/>
      <point x="826" y="676"/>
      <point x="890" y="676" type="curve" smooth="yes"/>
      <point x="949" y="676"/>
      <point x="968" y="640"/>
      <point x="968" y="585" type="curve" smooth="yes"/>
      <point x="968" y="578"/>
      <point x="968" y="567"/>
      <point x="967" y="557" type="curve"/>
      <point x="1053" y="726" type="line"/>
      <point x="974" y="726" type="line"/>
      <point x="962" y="843"/>
      <point x="918" y="920"/>
      <point x="783" y="920" type="curve" smooth="yes"/>
      <point x="585" y="920"/>
      <point x="510" y="753"/>
      <point x="483" y="514" type="curve" smooth="yes"/>
      <point x="472" y="418"/>
      <point x="469" y="371"/>
      <point x="469" y="343" type="curve" smooth="yes"/>
      <point x="469" y="157"/>
      <point x="550" y="60"/>
    </contour>
    <contour>
      <point x="920" y="70" type="line"/>
      <point x="1211" y="113" type="line"/>
      <point x="1295" y="899" type="line"/>
      <point x="999" y="899" type="line"/>
      <point x="999" y="899" type="line"/>
      <point x="982" y="704" type="line"/>
      <point x="979" y="665" type="line"/>
      <point x="939" y="333" type="line"/>
      <point x="942" y="292" type="line"/>
    </contour>
    <contour>
      <point x="1146" y="306" type="curve"/>
      <point x="920" y="70" type="line"/>
      <point x="979" y="62"/>
      <point x="1048" y="60"/>
      <point x="1104" y="62" type="curve" smooth="yes"/>
      <point x="1470" y="67"/>
      <point x="1624" y="193"/>
      <point x="1659" y="486" type="curve" smooth="yes"/>
      <point x="1671" y="586"/>
      <point x="1676" y="663"/>
      <point x="1678" y="714" type="curve" smooth="yes"/>
      <point x="1691" y="1121"/>
      <point x="1413" y="1345"/>
      <point x="935" y="1345" type="curve" smooth="yes"/>
      <point x="410" y="1345"/>
      <point x="143" y="1089"/>
      <point x="85" y="665" type="curve" smooth="yes"/>
      <point x="69" y="546"/>
      <point x="58" y="408"/>
      <point x="55" y="350" type="curve" smooth="yes"/>
      <point x="31" y="-122"/>
      <point x="311" y="-344"/>
      <point x="846" y="-344" type="curve" smooth="yes"/>
      <point x="1107" y="-344"/>
      <point x="1269" y="-299"/>
      <point x="1413" y="-249" type="curve"/>
      <point x="1456" y="-11" type="line"/>
      <point x="1309" y="-69"/>
      <point x="1122" y="-121"/>
      <point x="865" y="-121" type="curve" smooth="yes"/>
      <point x="476" y="-121"/>
      <point x="303" y="35"/>
      <point x="323" y="363" type="curve" smooth="yes"/>
      <point x="326" y="413"/>
      <point x="333" y="535"/>
      <point x="359" y="670" type="curve" smooth="yes"/>
      <point x="406" y="913"/>
      <point x="543" y="1123"/>
      <point x="921" y="1123" type="curve" smooth="yes"/>
      <point x="1264" y="1123"/>
      <point x="1422" y="961"/>
      <point x="1413" y="716" type="curve" smooth="yes"/>
      <point x="1411" y="674"/>
      <point x="1405" y="610"/>
      <point x="1391" y="501" type="curve" smooth="yes"/>
      <point x="1374" y="368"/>
      <point x="1322" y="298"/>
      <point x="1223" y="298" type="curve" smooth="yes"/>
      <point x="1188" y="298"/>
      <point x="1174" y="299"/>
    </contour>
  </outline>
</glyph>
<glyph name="A" format="2">
  <advance width="1275"/>
  <unicode hex="0041"/>
  <anchor x="638" y="0" name="bottom"/>
  <anchor x="1288" y="0" name="ogonek"/>
  <anchor x="638" y="1278" name="top"/>
  <outline>
    <contour>
      <point x="15" y="0" type="line"/>
      <point x="380" y="0" type="line"/>
      <point x="628" y="1041" type="line"/>
      <point x="651" y="1041" type="line"/>
      <point x="895" y="0" type="line"/>
      <point x="1260" y="0" type="line"/>
      <point x="909" y="1278" type="line"/>
      <point x="370" y="1278" type="line"/>
    </contour>
    <contour>
      <point x="350" y="277" type="line"/>
      <point x="923" y="277" type="line"/>
      <point x="923" y="553" type="line"/>
      <point x="350" y="553" type="line"/>
    </contour>
  </outline>
</glyph>
<glyph name="D" format="2">
	<advance width="1265"/>
	<unicode hex="0044"/>
	<anchor x="633" y="639" name="center"/>
	<anchor x="612" y="0" name="bottom"/>
	<anchor x="612" y="1278" name="top"/>
	<outline>
		<contour>
			<point x="359" y="0" type="line"/>
			<point x="641" y="0" type="line" smooth="yes"/>
			<point x="1017" y="0"/>
			<point x="1199" y="183"/>
			<point x="1199" y="517" type="curve" smooth="yes"/>
			<point x="1199" y="764" type="line" smooth="yes"/>
			<point x="1199" y="1096"/>
			<point x="1015" y="1278"/>
			<point x="641" y="1278" type="curve" smooth="yes"/>
			<point x="359" y="1278" type="line"/>
			<point x="359" y="979" type="line"/>
			<point x="628" y="979" type="line" smooth="yes"/>
			<point x="767" y="979"/>
			<point x="834" y="903"/>
			<point x="834" y="764" type="curve" smooth="yes"/>
			<point x="834" y="518" type="line" smooth="yes"/>
			<point x="834" y="379"/>
			<point x="767" y="302"/>
			<point x="628" y="302" type="curve" smooth="yes"/>
			<point x="359" y="302" type="line"/>
		</contour>
		<contour>
			<point x="104" y="0" type="line"/>
			<point x="461" y="0" type="line"/>
			<point x="461" y="1278" type="line"/>
			<point x="104" y="1278" type="line"/>
		</contour>
	</outline>
</glyph>
<glyph name="H" format="2">
  <advance width="1329"/>
  <unicode hex="0048"/>
  <anchor x="665" y="0" name="bottom"/>
  <anchor x="665" y="639" name="center"/>
  <anchor x="665" y="1278" name="top"/>
  <anchor x="20" y="1278" name="topleft"/>
  <outline>
    <contour>
      <point x="467" y="0" type="line"/>
      <point x="467" y="1278" type="line"/>
      <point x="104" y="1278" type="line"/>
      <point x="104" y="0" type="line"/>
    </contour>
    <contour>
      <point x="1225" y="0" type="line"/>
      <point x="1225" y="1278" type="line"/>
      <point x="862" y="1278" type="line"/>
      <point x="862" y="0" type="line"/>
    </contour>
    <contour>
      <point x="313" y="803" type="line"/>
      <point x="313" y="501" type="line"/>
      <point x="997" y="501" type="line"/>
      <point x="997" y="803" type="line"/>
    </contour>
  </outline>
</glyph>
<glyph name="L" format="2">
	<advance width="1029"/>
	<unicode hex="004C"/>
	<anchor x="456" y="639" name="center"/>
	<anchor x="286" y="1278" name="top"/>
	<anchor x="650" y="1278" name="topright"/>
	<anchor x="529" y="0" name="bottom"/>
	<outline>
		<contour>
			<point x="467" y="0" type="line"/>
			<point x="467" y="1278" type="line"/>
			<point x="104" y="1278" type="line"/>
			<point x="104" y="0" type="line"/>
		</contour>
		<contour>
			<point x="312" y="304" type="line"/>
			<point x="312" y="0" type="line"/>
			<point x="979" y="0" type="line"/>
			<point x="979" y="304" type="line"/>
		</contour>
	</outline>
</glyph>
<glyph name="M" format="2">
	<advance width="1626"/>
	<unicode hex="004D"/>
	<anchor x="813" y="1278" name="top"/>
	<anchor x="813" y="0" name="bottom"/>
	<outline>
		<contour>
			<point x="93" y="0" type="line"/>
			<point x="443" y="0" type="line"/>
			<point x="448" y="378" type="line"/>
			<point x="454" y="869" type="line"/>
			<point x="470" y="869" type="line"/>
			<point x="657" y="151" type="line"/>
			<point x="969" y="151" type="line"/>
			<point x="1155" y="869" type="line"/>
			<point x="1170" y="869" type="line"/>
			<point x="1177" y="379" type="line"/>
			<point x="1183" y="0" type="line"/>
			<point x="1533" y="0" type="line"/>
			<point x="1496" y="1278" type="line"/>
			<point x="1003" y="1278" type="line"/>
			<point x="820" y="566" type="line"/>
			<point x="807" y="566" type="line"/>
			<point x="624" y="1278" type="line"/>
			<point x="130" y="1278" type="line"/>
		</contour>
	</outline>
</glyph>
<glyph name="V" format="2">
  <advance width="1246"/>
  <unicode hex="0056"/>
  <anchor x="623" y="0" name="bottom"/>
  <anchor x="623" y="1278" name="top"/>
  <outline>
    <contour>
      <point x="352" y="0" type="line"/>
      <point x="895" y="0" type="line"/>
      <point x="1231" y="1278" type="line"/>
      <point x="859" y="1278" type="line"/>
      <point x="635" y="268" type="line"/>
      <point x="611" y="268" type="line"/>
      <point x="388" y="1278" type="line"/>
      <point x="15" y="1278" type="line"/>
    </contour>
  </outline>
</glyph>
<glyph name="bracketright" format="2">
  <advance width="650"/>
  <unicode hex="005D"/>
  <outline>
    <contour>
      <point x="544" y="-252" type="line"/>
      <point x="544" y="1351" type="line"/>
      <point x="48" y="1351" type="line"/>
      <point x="48" y="1098" type="line"/>
      <point x="218" y="1098" type="line"/>
      <point x="218" y="1" type="line"/>
      <point x="48" y="1" type="line"/>
      <point x="48" y="-252" type="line"/>
    </contour>
  </outline>
</glyph>
<glyph name="asciicircum" format="2">
	<advance width="934"/>
	<unicode hex="005E"/>
	<outline>
		<contour>
			<point x="240" y="1278" type="line"/>
			<point x="17" y="607" type="line"/>
			<point x="314" y="607" type="line"/>
			<point x="461" y="1092" type="line"/>
			<point x="475" y="1092" type="line"/>
			<point x="621" y="607" type="line"/>
			<point x="917" y="607" type="line"/>
			<point x="694" y="1278" type="line"/>
		</contour>
	</outline>
</glyph>
<glyph name="underscore" format="2">
  <advance width="876"/>
  <unicode hex="005F"/>
  <outline>
    <contour>
      <point x="29" y="-299" type="line"/>
      <point x="847" y="-299" type="line"/>
      <point x="847" y="-26" type="line"/>
      <point x="29" y="-26" type="line"/>
    </contour>
  </outline>
</glyph>
<glyph name="c" format="2">
	<advance width="903"/>
	<unicode hex="0063"/>
	<anchor x="494" y="985" name="top"/>
	<anchor x="494" y="0" name="bottom"/>
	<outline>
		<contour>
			<point x="531" y="-27" type="curve" smooth="yes"/>
			<point x="650" y="-27"/>
			<point x="758" y="-2"/>
			<point x="831" y="34" type="curve"/>
			<point x="858" y="324" type="line"/>
			<point x="786" y="291"/>
			<point x="716" y="269"/>
			<point x="625" y="269" type="curve" smooth="yes"/>
			<point x="480" y="269"/>
			<point x="414" y="340"/>
			<point x="414" y="468" type="curve" smooth="yes"/>
			<point x="414" y="533" type="line" smooth="yes"/>
			<point x="414" y="656"/>
			<point x="471" y="723"/>
			<point x="615" y="723" type="curve" smooth="yes"/>
			<point x="708" y="723"/>
			<point x="783" y="698"/>
			<point x="848" y="665" type="curve"/>
			<point x="820" y="954" type="line"/>
			<point x="750" y="988"/>
			<point x="647" y="1013"/>
			<point x="530" y="1013" type="curve" smooth="yes"/>
			<point x="210" y="1013"/>
			<point x="58" y="835"/>
			<point x="58" y="539" type="curve" smooth="yes"/>
			<point x="58" y="454" type="line" smooth="yes"/>
			<point x="58" y="149"/>
			<point x="209" y="-27"/>
		</contour>
	</outline>
</glyph>
<glyph name="h" format="2">
	<advance width="1156"/>
	<unicode hex="0068"/>
	<anchor x="579" y="657" name="center"/>
	<anchor x="579" y="0" name="bottom"/>
	<anchor x="268" y="1319" name="top"/>
	<outline>
		<contour>
			<point x="717" y="566" type="curve" smooth="yes"/>
			<point x="717" y="0" type="line"/>
			<point x="1071" y="0" type="line"/>
			<point x="1071" y="627" type="line" smooth="yes"/>
			<point x="1071" y="884"/>
			<point x="972" y="1009"/>
			<point x="757" y="1009" type="curve" smooth="yes"/>
			<point x="562" y="1009"/>
			<point x="480" y="904"/>
			<point x="451" y="767" type="curve"/>
			<point x="371" y="767" type="line"/>
			<point x="443" y="621" type="line"/>
			<point x="467" y="674"/>
			<point x="515" y="717"/>
			<point x="590" y="717" type="curve" smooth="yes"/>
			<point x="687" y="717"/>
			<point x="717" y="660"/>
		</contour>
		<contour>
			<point x="92" y="0" type="line"/>
			<point x="446" y="0" type="line"/>
			<point x="446" y="663" type="line"/>
			<point x="439" y="691" type="line"/>
			<point x="444" y="1033" type="line"/>
			<point x="444" y="1319" type="line"/>
			<point x="92" y="1319" type="line"/>
		</contour>
	</outline>
</glyph>
<glyph name="j" format="2">
	<advance width="550"/>
	<unicode hex="006A"/>
	<outline>
		<contour>
			<point x="105" y="162" type="line"/>
			<point x="459" y="162" type="line"/>
			<point x="459" y="985" type="line"/>
			<point x="105" y="985" type="line"/>
		</contour>
		<contour>
			<point x="282" y="1056" type="curve" smooth="yes"/>
			<point x="410" y="1056"/>
			<point x="467" y="1117"/>
			<point x="467" y="1217" type="curve" smooth="yes"/>
			<point x="467" y="1225" type="line" smooth="yes"/>
			<point x="467" y="1323"/>
			<point x="410" y="1386"/>
			<point x="282" y="1386" type="curve" smooth="yes"/>
			<point x="152" y="1386"/>
			<point x="97" y="1323"/>
			<point x="97" y="1225" type="curve" smooth="yes"/>
			<point x="97" y="1217" type="line" smooth="yes"/>
			<point x="97" y="1118"/>
			<point x="152" y="1056"/>
		</contour>
		<component base="jbottom"/>
	</outline>
</glyph>
<glyph name="k" format="2">
  <advance width="1119"/>
  <unicode hex="006B"/>
  <anchor x="561" y="0" name="bottom"/>
  <anchor x="561" y="1319" name="top"/>
  <outline>
    <contour>
      <point x="715" y="0" type="line"/>
      <point x="1126" y="0" type="line"/>
      <point x="763" y="556" type="line"/>
      <point x="763" y="491" type="line"/>
      <point x="1113" y="985" type="line"/>
      <point x="710" y="985" type="line"/>
      <point x="455" y="609" type="line"/>
      <point x="383" y="609" type="line"/>
      <point x="383" y="417" type="line"/>
      <point x="455" y="417" type="line"/>
    </contour>
    <contour>
      <point x="92" y="0" type="line"/>
      <point x="444" y="0" type="line"/>
      <point x="444" y="1319" type="line"/>
      <point x="92" y="1319" type="line"/>
    </contour>
  </outline>
</glyph>
<glyph name="l" format="2">
  <advance width="538"/>
  <unicode hex="006C"/>
  <anchor x="270" y="0" name="bottom"/>
  <anchor x="270" y="657" name="center"/>
  <anchor x="270" y="1319" name="top"/>
  <anchor x="531" y="1319" name="topright"/>
  <outline>
    <contour>
      <point x="92" y="0" type="line"/>
      <point x="446" y="0" type="line"/>
      <point x="446" y="1319" type="line"/>
      <point x="92" y="1319" type="line"/>
    </contour>
  </outline>
</glyph>
<glyph name="q" format="2">
	<advance width="1152"/>
	<unicode hex="0071"/>
	<anchor x="564" y="985" name="top"/>
	<anchor x="564" y="0" name="bottom"/>
	<outline>
		<contour>
			<point x="407" y="-24" type="curve" smooth="yes"/>
			<point x="599" y="-24"/>
			<point x="679" y="82"/>
			<point x="707" y="218" type="curve"/>
			<point x="805" y="218" type="line"/>
			<point x="718" y="370" type="line"/>
			<point x="694" y="309"/>
			<point x="642" y="268"/>
			<point x="568" y="268" type="curve" smooth="yes"/>
			<point x="468" y="268"/>
			<point x="418" y="324"/>
			<point x="418" y="438" type="curve" smooth="yes"/>
			<point x="418" y="559" type="line" smooth="yes"/>
			<point x="418" y="671"/>
			<point x="468" y="727"/>
			<point x="563" y="727" type="curve" smooth="yes"/>
			<point x="658" y="727"/>
			<point x="710" y="665"/>
			<point x="712" y="562" type="curve"/>
			<point x="798" y="767" type="line"/>
			<point x="707" y="767" type="line"/>
			<point x="679" y="914"/>
			<point x="596" y="1009"/>
			<point x="417" y="1009" type="curve" smooth="yes"/>
			<point x="177" y="1009"/>
			<point x="62" y="850"/>
			<point x="62" y="539" type="curve" smooth="yes"/>
			<point x="62" y="434" type="line" smooth="yes"/>
			<point x="62" y="128"/>
			<point x="180" y="-24"/>
		</contour>
		<contour>
			<point x="708" y="-344" type="line"/>
			<point x="1060" y="-344" type="line"/>
			<point x="1060" y="985" type="line"/>
			<point x="708" y="985" type="line"/>
			<point x="718" y="745" type="line"/>
			<point x="712" y="700" type="line"/>
			<point x="712" y="306" type="line"/>
			<point x="718" y="257" type="line"/>
			<point x="708" y="0" type="line"/>
		</contour>
	</outline>
</glyph>
<glyph name="s" format="2">
	<advance width="950"/>
	<unicode hex="0073"/>
	<anchor x="470" y="985" name="top"/>
	<anchor x="472" y="0" name="bottom"/>
	<outline>
		<contour>
			<point x="457" y="-25" type="curve" smooth="yes"/>
			<point x="766" y="-25"/>
			<point x="911" y="80"/>
			<point x="911" y="301" type="curve" smooth="yes"/>
			<point x="911" y="307" type="line"/>
			<point x="911" y="492"/>
			<point x="807" y="548"/>
			<point x="562" y="605" type="curve" smooth="yes"/>
			<point x="412" y="640"/>
			<point x="381" y="654"/>
			<point x="381" y="690" type="curve" smooth="yes"/>
			<point x="381" y="692" type="line"/>
			<point x="381" y="724"/>
			<point x="407" y="741"/>
			<point x="516" y="741" type="curve" smooth="yes"/>
			<point x="641" y="741"/>
			<point x="765" y="711"/>
			<point x="863" y="673" type="curve"/>
			<point x="834" y="944" type="line"/>
			<point x="748" y="981"/>
			<point x="621" y="1011"/>
			<point x="470" y="1011" type="curve" smooth="yes"/>
			<point x="190" y="1011"/>
			<point x="41" y="913"/>
			<point x="41" y="710" type="curve" smooth="yes"/>
			<point x="41" y="702" type="line"/>
			<point x="41" y="541"/>
			<point x="124" y="454"/>
			<point x="370" y="396" type="curve" smooth="yes"/>
			<point x="520" y="361"/>
			<point x="564" y="352"/>
			<point x="564" y="308" type="curve"/>
			<point x="564" y="306" type="line"/>
			<point x="564" y="267"/>
			<point x="531" y="251"/>
			<point x="426" y="251" type="curve" smooth="yes"/>
			<point x="282" y="251"/>
			<point x="153" y="290"/>
			<point x="49" y="330" type="curve"/>
			<point x="78" y="39" type="line"/>
			<point x="171" y="4"/>
			<point x="301" y="-25"/>
		</contour>
	</outline>
</glyph>
<glyph name="t" format="2">
	<advance width="819"/>
	<unicode hex="0074"/>
	<anchor x="410" y="493" name="center"/>
	<anchor x="314" y="1214" name="top"/>
	<anchor x="584" y="1433" name="topright"/>
	<anchor x="443" y="0" name="bottom"/>
	<outline>
		<contour>
			<point x="498" y="-23" type="curve" smooth="yes"/>
			<point x="608" y="-23"/>
			<point x="699" y="-4"/>
			<point x="769" y="26" type="curve"/>
			<point x="799" y="316" type="line"/>
			<point x="749" y="297"/>
			<point x="686" y="281"/>
			<point x="625" y="281" type="curve" smooth="yes"/>
			<point x="512" y="281"/>
			<point x="482" y="319"/>
			<point x="482" y="404" type="curve" smooth="yes"/>
			<point x="482" y="872" type="line"/>
			<point x="131" y="872" type="line"/>
			<point x="131" y="344" type="line" smooth="yes"/>
			<point x="131" y="103"/>
			<point x="224" y="-23"/>
		</contour>
		<contour>
			<point x="8" y="708" type="line"/>
			<point x="759" y="708" type="line"/>
			<point x="789" y="985" type="line"/>
			<point x="8" y="985" type="line"/>
		</contour>
		<contour>
			<point x="136" y="961" type="line"/>
			<point x="472" y="961" type="line"/>
			<point x="484" y="1239" type="line"/>
			<point x="135" y="1208" type="line"/>
		</contour>
	</outline>
</glyph>
<glyph name="u" format="2">
	<advance width="1156"/>
	<unicode hex="0075"/>
	<anchor x="1098" y="0" name="ogonek"/>
	<anchor x="579" y="985" name="top"/>
	<anchor x="1143" y="985" name="topright"/>
	<anchor x="579" y="0" name="bottom"/>
	<outline>
		<contour>
			<point x="439" y="419" type="curve" smooth="yes"/>
			<point x="439" y="985" type="line"/>
			<point x="85" y="985" type="line"/>
			<point x="85" y="358" type="line" smooth="yes"/>
			<point x="85" y="101"/>
			<point x="184" y="-24"/>
			<point x="399" y="-24" type="curve" smooth="yes"/>
			<point x="598" y="-24"/>
			<point x="681" y="81"/>
			<point x="711" y="218" type="curve"/>
			<point x="768" y="218" type="line"/>
			<point x="714" y="364" type="line"/>
			<point x="690" y="311"/>
			<point x="641" y="268"/>
			<point x="566" y="268" type="curve" smooth="yes"/>
			<point x="470" y="268"/>
			<point x="439" y="325"/>
		</contour>
		<contour>
			<point x="1064" y="985" type="line"/>
			<point x="710" y="985" type="line"/>
			<point x="710" y="289" type="line"/>
			<point x="723" y="253" type="line"/>
			<point x="712" y="0" type="line"/>
			<point x="1064" y="0" type="line"/>
		</contour>
	</outline>
</glyph>
<glyph name="cent" format="2">
	<advance width="903"/>
	<unicode hex="00A2"/>
	<outline>
		<contour>
			<point x="685" y="830" type="line"/>
			<point x="685" y="1181" type="line"/>
			<point x="389" y="1181" type="line"/>
			<point x="389" y="830" type="line"/>
		</contour>
		<contour>
			<point x="685" y="-200" type="line"/>
			<point x="685" y="162" type="line"/>
			<point x="389" y="162" type="line"/>
			<point x="389" y="-200" type="line"/>
		</contour>
		<component base="c"/>
	</outline>
</glyph>
<glyph name="yen" format="2">
	<advance width="1196"/>
	<unicode hex="00A5"/>
	<outline>
		<contour>
			<point x="659" y="502" type="line"/>
			<point x="1086" y="502" type="line"/>
			<point x="1101" y="692" type="line"/>
			<point x="711" y="692" type="line"/>
		</contour>
		<contour>
			<point x="115" y="403" type="line"/>
			<point x="99" y="213" type="line"/>
			<point x="1086" y="213" type="line"/>
			<point x="1101" y="403" type="line"/>
		</contour>
		<contour>
			<point x="480" y="692" type="line"/>
			<point x="115" y="692" type="line"/>
			<point x="99" y="502" type="line"/>
			<point x="534" y="502" type="line"/>
		</contour>
		<component base="Y"/>
	</outline>
</glyph>
<glyph name="section" format="2">
	<advance width="994"/>
	<unicode hex="00A7"/>
	<outline>
		<contour>
			<point x="544" y="486" type="curve"/>
			<point x="739" y="383" type="line"/>
			<point x="738" y="455" type="line"/>
			<point x="852" y="471"/>
			<point x="925" y="543"/>
			<point x="925" y="648" type="curve" smooth="yes"/>
			<point x="925" y="658" type="line" smooth="yes"/>
			<point x="925" y="807"/>
			<point x="822" y="855"/>
			<point x="618" y="903" type="curve" smooth="yes"/>
			<point x="427" y="948"/>
			<point x="406" y="962"/>
			<point x="406" y="994" type="curve" smooth="yes"/>
			<point x="406" y="995" type="line"/>
			<point x="406" y="1023"/>
			<point x="429" y="1039"/>
			<point x="536" y="1039" type="curve" smooth="yes"/>
			<point x="659" y="1039"/>
			<point x="781" y="1010"/>
			<point x="877" y="971" type="curve"/>
			<point x="848" y="1238" type="line"/>
			<point x="762" y="1276"/>
			<point x="638" y="1307"/>
			<point x="490" y="1307" type="curve" smooth="yes"/>
			<point x="212" y="1307"/>
			<point x="66" y="1212"/>
			<point x="66" y="1011" type="curve" smooth="yes"/>
			<point x="66" y="1003" type="line" smooth="yes"/>
			<point x="66" y="835"/>
			<point x="153" y="753"/>
			<point x="401" y="696" type="curve" smooth="yes"/>
			<point x="558" y="660"/>
			<point x="610" y="641"/>
			<point x="610" y="574" type="curve" smooth="yes"/>
			<point x="610" y="570" type="line" smooth="yes"/>
			<point x="610" y="529"/>
			<point x="590" y="504"/>
		</contour>
		<contour>
			<point x="445" y="710" type="curve"/>
			<point x="240" y="790" type="line"/>
			<point x="241" y="736" type="line"/>
			<point x="140" y="718"/>
			<point x="67" y="649"/>
			<point x="67" y="547" type="curve" smooth="yes"/>
			<point x="67" y="536" type="line" smooth="yes"/>
			<point x="67" y="394"/>
			<point x="160" y="338"/>
			<point x="380" y="281" type="curve" smooth="yes"/>
			<point x="542" y="239"/>
			<point x="578" y="230"/>
			<point x="578" y="191" type="curve"/>
			<point x="578" y="189" type="line"/>
			<point x="578" y="154"/>
			<point x="544" y="140"/>
			<point x="442" y="140" type="curve" smooth="yes"/>
			<point x="303" y="140"/>
			<point x="175" y="180"/>
			<point x="73" y="221" type="curve"/>
			<point x="102" y="-67" type="line"/>
			<point x="192" y="-105"/>
			<point x="317" y="-136"/>
			<point x="470" y="-136" type="curve" smooth="yes"/>
			<point x="780" y="-136"/>
			<point x="925" y="-25"/>
			<point x="925" y="184" type="curve" smooth="yes"/>
			<point x="925" y="190" type="line"/>
			<point x="925" y="378"/>
			<point x="824" y="436"/>
			<point x="586" y="488" type="curve" smooth="yes"/>
			<point x="416" y="525"/>
			<point x="375" y="559"/>
			<point x="375" y="621" type="curve" smooth="yes"/>
			<point x="375" y="625" type="line" smooth="yes"/>
			<point x="375" y="662"/>
			<point x="395" y="692"/>
		</contour>
	</outline>
</glyph>
<glyph name="ordfeminine" format="2">
	<advance width="678"/>
	<unicode hex="00AA"/>
	<outline>
		<contour>
			<point x="391" y="639" type="line"/>
			<point x="625" y="639" type="line"/>
			<point x="625" y="1013" type="line" smooth="yes"/>
			<point x="625" y="1177"/>
			<point x="555" y="1291"/>
			<point x="329" y="1291" type="curve" smooth="yes"/>
			<point x="229" y="1291"/>
			<point x="144" y="1267"/>
			<point x="84" y="1239" type="curve"/>
			<point x="64" y="1060" type="line"/>
			<point x="131" y="1086"/>
			<point x="206" y="1109"/>
			<point x="285" y="1109" type="curve" smooth="yes"/>
			<point x="369" y="1109"/>
			<point x="393" y="1083"/>
			<point x="393" y="1029" type="curve"/>
			<point x="393" y="1005" type="line"/>
			<point x="393" y="797" type="line"/>
			<point x="398" y="791" type="line"/>
		</contour>
		<contour>
			<point x="215" y="624" type="curve" smooth="yes"/>
			<point x="327" y="624"/>
			<point x="374" y="682"/>
			<point x="390" y="762" type="curve"/>
			<point x="426" y="762" type="line"/>
			<point x="394" y="840" type="line"/>
			<point x="384" y="813"/>
			<point x="359" y="790"/>
			<point x="318" y="790" type="curve" smooth="yes"/>
			<point x="278" y="790"/>
			<point x="264" y="811"/>
			<point x="264" y="842" type="curve" smooth="yes"/>
			<point x="264" y="845" type="line" smooth="yes"/>
			<point x="264" y="878"/>
			<point x="280" y="893"/>
			<point x="327" y="901" type="curve" smooth="yes"/>
			<point x="422" y="917" type="line"/>
			<point x="408" y="1051" type="line"/>
			<point x="270" y="1031" type="line" smooth="yes"/>
			<point x="105" y="1007"/>
			<point x="32" y="955"/>
			<point x="32" y="828" type="curve" smooth="yes"/>
			<point x="32" y="811" type="line" smooth="yes"/>
			<point x="32" y="691"/>
			<point x="95" y="624"/>
		</contour>
	</outline>
</glyph>
<glyph name="registered" format="2">
  <advance width="848"/>
  <unicode hex="00AE"/>
  <outline>
    <contour>
      <point x="424" y="501" type="curve" smooth="yes"/>
      <point x="673" y="501"/>
      <point x="814" y="637"/>
      <point x="814" y="865" type="curve" smooth="yes"/>
      <point x="814" y="934" type="line" smooth="yes"/>
      <point x="814" y="1162"/>
      <point x="673" y="1299"/>
      <point x="424" y="1299" type="curve" smooth="yes"/>
      <point x="174" y="1299"/>
      <point x="34" y="1162"/>
      <point x="34" y="934" type="curve" smooth="yes"/>
      <point x="34" y="865" type="line" smooth="yes"/>
      <point x="34" y="637"/>
      <point x="174" y="501"/>
    </contour>
    <contour>
      <point x="424" y="615" type="curve" smooth="yes"/>
      <point x="253" y="615"/>
      <point x="169" y="701"/>
      <point x="169" y="860" type="curve" smooth="yes"/>
      <point x="169" y="941" type="line" smooth="yes"/>
      <point x="169" y="1099"/>
      <point x="253" y="1184"/>
      <point x="424" y="1184" type="curve" smooth="yes"/>
      <point x="595" y="1184"/>
      <point x="679" y="1099"/>
      <point x="679" y="941" type="curve" smooth="yes"/>
      <point x="679" y="860" type="line" smooth="yes"/>
      <point x="679" y="701"/>
      <point x="595" y="615"/>
    </contour>
    <contour>
      <point x="477" y="723" type="line"/>
      <point x="602" y="723" type="line"/>
      <point x="591" y="800" type="line" smooth="yes"/>
      <point x="581" y="867"/>
      <point x="560" y="894"/>
      <point x="488" y="901" type="curve"/>
      <point x="505" y="886" type="line"/>
      <point x="505" y="903" type="line"/>
      <point x="565" y="906"/>
      <point x="594" y="936"/>
      <point x="594" y="990" type="curve" smooth="yes"/>
      <point x="594" y="995" type="line" smooth="yes"/>
      <point x="594" y="1064"/>
      <point x="549" y="1103"/>
      <point x="449" y="1103" type="curve" smooth="yes"/>
      <point x="353" y="1103" type="line"/>
      <point x="353" y="1009" type="line"/>
      <point x="430" y="1009" type="line" smooth="yes"/>
      <point x="460" y="1009"/>
      <point x="473" y="996"/>
      <point x="473" y="970" type="curve" smooth="yes"/>
      <point x="473" y="963" type="line" smooth="yes"/>
      <point x="473" y="937"/>
      <point x="460" y="924"/>
      <point x="430" y="924" type="curve" smooth="yes"/>
      <point x="353" y="924" type="line"/>
      <point x="353" y="834" type="line"/>
      <point x="419" y="833" type="line" smooth="yes"/>
      <point x="455" y="832"/>
      <point x="467" y="820"/>
      <point x="471" y="780" type="curve" smooth="yes"/>
    </contour>
    <contour>
      <point x="271" y="723" type="line"/>
      <point x="391" y="723" type="line"/>
      <point x="391" y="854" type="line"/>
      <point x="390" y="892" type="line"/>
      <point x="390" y="1103" type="line"/>
      <point x="271" y="1103" type="line"/>
    </contour>
  </outline>
</glyph>
<glyph name="degree" format="2">
  <advance width="687"/>
  <unicode hex="00B0"/>
  <outline>
    <contour>
      <point x="344" y="725" type="curve" smooth="yes"/>
      <point x="536" y="725"/>
      <point x="641" y="832"/>
      <point x="641" y="1011" type="curve" smooth="yes"/>
      <point x="641" y="1026" type="line" smooth="yes"/>
      <point x="641" y="1205"/>
      <point x="536" y="1312"/>
      <point x="344" y="1312" type="curve" smooth="yes"/>
      <point x="152" y="1312"/>
      <point x="46" y="1205"/>
      <point x="46" y="1026" type="curve" smooth="yes"/>
      <point x="46" y="1011" type="line" smooth="yes"/>
      <point x="46" y="832"/>
      <point x="152" y="725"/>
    </contour>
    <contour>
      <point x="344" y="901" type="curve" smooth="yes"/>
      <point x="287" y="901"/>
      <point x="256" y="939"/>
      <point x="256" y="1009" type="curve" smooth="yes"/>
      <point x="256" y="1029" type="line" smooth="yes"/>
      <point x="256" y="1097"/>
      <point x="287" y="1136"/>
      <point x="344" y="1136" type="curve" smooth="yes"/>
      <point x="401" y="1136"/>
      <point x="432" y="1097"/>
      <point x="432" y="1029" type="curve" smooth="yes"/>
      <point x="432" y="1009" type="line" smooth="yes"/>
      <point x="432" y="939"/>
      <point x="401" y="901"/>
    </contour>
  </outline>
</glyph>
<glyph name="plusminus" format="2">
	<advance width="1039"/>
	<unicode hex="00B1"/>
	<outline>
		<contour>
			<point x="90" y="53" type="line"/>
			<point x="949" y="53" type="line"/>
			<point x="949" y="331" type="line"/>
			<point x="90" y="331" type="line"/>
		</contour>
		<contour>
			<point x="668" y="415" type="line"/>
			<point x="668" y="1123" type="line"/>
			<point x="371" y="1123" type="line"/>
			<point x="371" y="415" type="line"/>
		</contour>
		<contour>
			<point x="90" y="629" type="line"/>
			<point x="949" y="629" type="line"/>
			<point x="949" y="909" type="line"/>
			<point x="90" y="909" type="line"/>
		</contour>
	</outline>
</glyph>
<glyph name="twosuperior" format="2">
  <advance width="607"/>
  <unicode hex="00B2"/>
  <outline>
    <contour>
      <point x="27" y="726" type="line"/>
      <point x="579" y="726" type="line"/>
      <point x="579" y="914" type="line"/>
      <point x="217" y="914" type="line"/>
      <point x="328" y="886" type="line"/>
      <point x="328" y="920" type="line"/>
      <point x="420" y="979" type="line" smooth="yes"/>
      <point x="528" y="1048"/>
      <point x="573" y="1107"/>
      <point x="573" y="1204" type="curve" smooth="yes"/>
      <point x="573" y="1211" type="line" smooth="yes"/>
      <point x="573" y="1341"/>
      <point x="476" y="1424"/>
      <point x="289" y="1424" type="curve" smooth="yes"/>
      <point x="192" y="1424"/>
      <point x="105" y="1402"/>
      <point x="52" y="1376" type="curve"/>
      <point x="31" y="1188" type="line"/>
      <point x="83" y="1208"/>
      <point x="162" y="1230"/>
      <point x="232" y="1230" type="curve" smooth="yes"/>
      <point x="311" y="1230"/>
      <point x="333" y="1208"/>
      <point x="333" y="1173" type="curve" smooth="yes"/>
      <point x="333" y="1171" type="line" smooth="yes"/>
      <point x="333" y="1126"/>
      <point x="282" y="1099"/>
      <point x="210" y="1048" type="curve" smooth="yes"/>
      <point x="27" y="919" type="line"/>
    </contour>
  </outline>
</glyph>
<glyph name="threesuperior" format="2">
	<advance width="627"/>
	<unicode hex="00B3"/>
	<outline>
		<contour>
			<point x="274" y="706" type="curve" smooth="yes"/>
			<point x="494" y="706"/>
			<point x="600" y="782"/>
			<point x="600" y="907" type="curve" smooth="yes"/>
			<point x="600" y="917" type="line" smooth="yes"/>
			<point x="600" y="1007"/>
			<point x="555" y="1064"/>
			<point x="432" y="1078" type="curve"/>
			<point x="449" y="1055" type="line"/>
			<point x="449" y="1083" type="line"/>
			<point x="551" y="1096"/>
			<point x="596" y="1151"/>
			<point x="596" y="1232" type="curve" smooth="yes"/>
			<point x="596" y="1241" type="line" smooth="yes"/>
			<point x="596" y="1360"/>
			<point x="494" y="1424"/>
			<point x="290" y="1424" type="curve" smooth="yes"/>
			<point x="194" y="1424"/>
			<point x="111" y="1407"/>
			<point x="51" y="1385" type="curve"/>
			<point x="31" y="1207" type="line"/>
			<point x="82" y="1220"/>
			<point x="161" y="1238"/>
			<point x="248" y="1238" type="curve" smooth="yes"/>
			<point x="321" y="1238"/>
			<point x="348" y="1225"/>
			<point x="348" y="1197" type="curve" smooth="yes"/>
			<point x="348" y="1195" type="line" smooth="yes"/>
			<point x="348" y="1166"/>
			<point x="323" y="1154"/>
			<point x="258" y="1152" type="curve" smooth="yes"/>
			<point x="118" y="1148" type="line"/>
			<point x="118" y="986" type="line"/>
			<point x="267" y="982" type="line" smooth="yes"/>
			<point x="330" y="980"/>
			<point x="348" y="966"/>
			<point x="348" y="940" type="curve" smooth="yes"/>
			<point x="348" y="937" type="line" smooth="yes"/>
			<point x="348" y="909"/>
			<point x="324" y="892"/>
			<point x="235" y="892" type="curve" smooth="yes"/>
			<point x="158" y="892"/>
			<point x="85" y="907"/>
			<point x="26" y="924" type="curve"/>
			<point x="46" y="738" type="line"/>
			<point x="96" y="721"/>
			<point x="181" y="706"/>
		</contour>
	</outline>
</glyph>
<glyph name="onesuperior" format="2">
	<advance width="453"/>
	<unicode hex="00B9"/>
	<outline>
		<contour>
			<point x="172" y="726" type="line"/>
			<point x="400" y="726" type="line"/>
			<point x="400" y="1405" type="line"/>
			<point x="204" y="1405" type="line"/>
			<point x="26" y="1330" type="line"/>
			<point x="18" y="1117" type="line"/>
			<point x="162" y="1178" type="line"/>
			<point x="172" y="1178" type="line"/>
		</contour>
	</outline>
</glyph>
<glyph name="Eth" format="2">
	<advance width="1265"/>
	<unicode hex="00D0"/>
	<outline>
		<contour>
			<point x="2" y="552" type="line"/>
			<point x="665" y="551" type="line"/>
			<point x="665" y="741" type="line"/>
			<point x="2" y="742" type="line"/>
		</contour>
		<component base="D"/>
	</outline>
</glyph>
<glyph name="eth" format="2">
	<advance width="1112"/>
	<unicode hex="00F0"/>
	<outline>
		<contour>
			<point x="556" y="-30" type="curve" smooth="yes"/>
			<point x="882" y="-30"/>
			<point x="1054" y="136"/>
			<point x="1054" y="447" type="curve"/>
			<point x="1054" y="548" type="line"/>
			<point x="1054" y="852"/>
			<point x="900" y="1045"/>
			<point x="620" y="1319" type="curve"/>
			<point x="205" y="1319" type="line"/>
			<point x="205" y="1319" type="line"/>
			<point x="502" y="1015"/>
			<point x="677" y="877"/>
			<point x="689" y="692" type="curve"/>
			<point x="692" y="657"/>
			<point x="696" y="621"/>
			<point x="699" y="586" type="curve"/>
			<point x="699" y="525"/>
			<point x="699" y="463"/>
			<point x="699" y="423" type="curve" smooth="yes"/>
			<point x="699" y="307"/>
			<point x="650" y="248"/>
			<point x="555" y="248" type="curve" smooth="yes"/>
			<point x="461" y="248"/>
			<point x="411" y="307"/>
			<point x="411" y="423" type="curve" smooth="yes"/>
			<point x="411" y="464" type="line" smooth="yes"/>
			<point x="411" y="578"/>
			<point x="460" y="639"/>
			<point x="552" y="639" type="curve" smooth="yes"/>
			<point x="649" y="639"/>
			<point x="699" y="578"/>
			<point x="699" y="464" type="curve"/>
			<point x="779" y="742" type="line"/>
			<point x="670" y="742" type="line"/>
			<point x="633" y="829"/>
			<point x="562" y="899"/>
			<point x="420" y="899" type="curve" smooth="yes"/>
			<point x="198" y="899"/>
			<point x="58" y="744"/>
			<point x="58" y="470" type="curve" smooth="yes"/>
			<point x="58" y="437" type="line"/>
			<point x="58" y="133"/>
			<point x="231" y="-30"/>
		</contour>
		<contour>
			<point x="185" y="958" type="line"/>
			<point x="1005" y="1112" type="line"/>
			<point x="1005" y="1273" type="line"/>
			<point x="185" y="1121" type="line"/>
		</contour>
	</outline>
</glyph>
<glyph name="divide" format="2">
	<advance width="1028"/>
	<unicode hex="00F7"/>
	<outline>
		<contour>
			<point x="84" y="478" type="line"/>
			<point x="944" y="478" type="line"/>
			<point x="944" y="758" type="line"/>
			<point x="84" y="758" type="line"/>
		</contour>
		<contour>
			<point x="510" y="117" type="curve" smooth="yes"/>
			<point x="612" y="117"/>
			<point x="661" y="173"/>
			<point x="661" y="267" type="curve" smooth="yes"/>
			<point x="661" y="275" type="line" smooth="yes"/>
			<point x="661" y="368"/>
			<point x="612" y="426"/>
			<point x="510" y="426" type="curve" smooth="yes"/>
			<point x="406" y="426"/>
			<point x="359" y="368"/>
			<point x="359" y="275" type="curve" smooth="yes"/>
			<point x="359" y="267" type="line" smooth="yes"/>
			<point x="359" y="173"/>
			<point x="406" y="117"/>
		</contour>
		<contour>
			<point x="510" y="810" type="curve" smooth="yes"/>
			<point x="612" y="810"/>
			<point x="661" y="866"/>
			<point x="661" y="960" type="curve" smooth="yes"/>
			<point x="661" y="968" type="line" smooth="yes"/>
			<point x="661" y="1061"/>
			<point x="612" y="1119"/>
			<point x="510" y="1119" type="curve" smooth="yes"/>
			<point x="406" y="1119"/>
			<point x="359" y="1061"/>
			<point x="359" y="968" type="curve" smooth="yes"/>
			<point x="359" y="960" type="line" smooth="yes"/>
			<point x="359" y="866"/>
			<point x="406" y="810"/>
		</contour>
	</outline>
</glyph>
<glyph name="oslash" format="2">
  <advance width="1116"/>
  <unicode hex="00F8"/>
  <anchor x="559" y="0" name="bottom"/>
  <anchor x="559" y="493" name="center"/>
  <anchor x="1011" y="10" name="ogonek"/>
  <anchor x="559" y="985" name="top"/>
  <anchor x="1104" y="985" name="topright"/>
  <outline>
    <contour>
      <point x="558" y="-28" type="curve" smooth="yes"/>
      <point x="885" y="-28"/>
      <point x="1058" y="137"/>
      <point x="1058" y="447" type="curve"/>
      <point x="1058" y="560" type="line"/>
      <point x="1058" y="830"/>
      <point x="865" y="1015"/>
      <point x="558" y="1015" type="curve" smooth="yes"/>
      <point x="232" y="1015"/>
      <point x="58" y="850"/>
      <point x="58" y="540" type="curve"/>
      <point x="58" y="427" type="line"/>
      <point x="58" y="157"/>
      <point x="252" y="-28"/>
    </contour>
    <contour>
      <point x="107" y="-73" type="line"/>
      <point x="259" y="-73" type="line"/>
      <point x="370" y="84" type="line"/>
      <point x="428" y="174" type="line"/>
      <point x="776" y="724" type="line"/>
      <point x="845" y="820" type="line"/>
      <point x="1009" y="1058" type="line"/>
      <point x="857" y="1058" type="line"/>
      <point x="754" y="913" type="line"/>
      <point x="697" y="816" type="line"/>
      <point x="349" y="266" type="line"/>
      <point x="271" y="163" type="line"/>
    </contour>
    <contour>
      <point x="558" y="246" type="curve" smooth="yes"/>
      <point x="444" y="246"/>
      <point x="398" y="308"/>
      <point x="398" y="406" type="curve" smooth="yes"/>
      <point x="398" y="561" type="line" smooth="yes"/>
      <point x="398" y="678"/>
      <point x="453" y="741"/>
      <point x="558" y="741" type="curve" smooth="yes"/>
      <point x="673" y="741"/>
      <point x="718" y="678"/>
      <point x="718" y="581" type="curve" smooth="yes"/>
      <point x="718" y="426" type="line" smooth="yes"/>
      <point x="718" y="308"/>
      <point x="664" y="246"/>
    </contour>
  </outline>
</glyph>
<glyph name="thorn" format="2">
	<advance width="1152"/>
	<unicode hex="00FE"/>
	<anchor x="587" y="985" name="top"/>
	<anchor x="587" y="0" name="bottom"/>
	<outline>
		<contour>
			<point x="734" y="-24" type="curve" smooth="yes"/>
			<point x="970" y="-24"/>
			<point x="1090" y="135"/>
			<point x="1090" y="446" type="curve" smooth="yes"/>
			<point x="1090" y="551" type="line" smooth="yes"/>
			<point x="1090" y="857"/>
			<point x="967" y="1009"/>
			<point x="745" y="1009" type="curve" smooth="yes"/>
			<point x="557" y="1009"/>
			<point x="479" y="903"/>
			<point x="451" y="767" type="curve"/>
			<point x="360" y="767" type="line"/>
			<point x="434" y="623" type="line"/>
			<point x="456" y="680"/>
			<point x="516" y="725"/>
			<point x="593" y="725" type="curve" smooth="yes"/>
			<point x="688" y="725"/>
			<point x="734" y="670"/>
			<point x="734" y="556" type="curve" smooth="yes"/>
			<point x="734" y="438" type="line" smooth="yes"/>
			<point x="734" y="325"/>
			<point x="685" y="268"/>
			<point x="591" y="268" type="curve" smooth="yes"/>
			<point x="494" y="268"/>
			<point x="442" y="330"/>
			<point x="440" y="433" type="curve"/>
			<point x="360" y="218" type="line"/>
			<point x="445" y="218" type="line"/>
			<point x="473" y="71"/>
			<point x="556" y="-24"/>
		</contour>
		<contour>
			<point x="92" y="-344" type="line"/>
			<point x="444" y="-344" type="line"/>
			<point x="444" y="0" type="line"/>
			<point x="434" y="257" type="line"/>
			<point x="440" y="316" type="line"/>
			<point x="440" y="680" type="line"/>
			<point x="439" y="723" type="line"/>
			<point x="444" y="1032" type="line"/>
			<point x="444" y="1319" type="line"/>
			<point x="92" y="1319" type="line"/>
		</contour>
	</outline>
</glyph>
<glyph name="oe" format="2">
	<advance width="1723"/>
	<unicode hex="0153"/>
	<anchor x="861" y="985" name="top"/>
	<anchor x="861" y="0" name="bottom"/>
	<outline>
		<contour>
			<point x="507" y="-30" type="curve" smooth="yes"/>
			<point x="681" y="-30"/>
			<point x="793" y="38"/>
			<point x="859" y="152" type="curve"/>
			<point x="870" y="152" type="line"/>
			<point x="949" y="35"/>
			<point x="1078" y="-27"/>
			<point x="1278" y="-27" type="curve" smooth="yes"/>
			<point x="1419" y="-27"/>
			<point x="1538" y="-1"/>
			<point x="1623" y="44" type="curve"/>
			<point x="1651" y="301" type="line"/>
			<point x="1548" y="266"/>
			<point x="1438" y="246"/>
			<point x="1323" y="246" type="curve" smooth="yes"/>
			<point x="1103" y="246"/>
			<point x="1036" y="316"/>
			<point x="1036" y="408" type="curve" smooth="yes"/>
			<point x="1036" y="470" type="line"/>
			<point x="1034" y="508" type="line"/>
			<point x="1034" y="597" type="line" smooth="yes"/>
			<point x="1034" y="690"/>
			<point x="1080" y="759"/>
			<point x="1188" y="759" type="curve" smooth="yes"/>
			<point x="1296" y="759"/>
			<point x="1342" y="703"/>
			<point x="1342" y="598" type="curve" smooth="yes"/>
			<point x="1342" y="549"/>
			<point x="1340" y="472"/>
			<point x="1335" y="386" type="curve"/>
			<point x="1652" y="386" type="line"/>
			<point x="1661" y="432"/>
			<point x="1666" y="491"/>
			<point x="1666" y="544" type="curve" smooth="yes"/>
			<point x="1666" y="575" type="line" smooth="yes"/>
			<point x="1666" y="854"/>
			<point x="1514" y="1017"/>
			<point x="1224" y="1017" type="curve" smooth="yes"/>
			<point x="1052" y="1017"/>
			<point x="936" y="954"/>
			<point x="868" y="835" type="curve"/>
			<point x="857" y="835" type="line"/>
			<point x="796" y="946"/>
			<point x="678" y="1017"/>
			<point x="506" y="1017" type="curve" smooth="yes"/>
			<point x="214" y="1017"/>
			<point x="58" y="852"/>
			<point x="58" y="540" type="curve"/>
			<point x="58" y="447" type="line"/>
			<point x="58" y="136"/>
			<point x="213" y="-30"/>
		</contour>
		<contour>
			<point x="887" y="386" type="line"/>
			<point x="1581" y="386" type="line"/>
			<point x="1581" y="594" type="line"/>
			<point x="887" y="594" type="line"/>
		</contour>
		<contour>
			<point x="553" y="248" type="curve" smooth="yes"/>
			<point x="461" y="248"/>
			<point x="412" y="308"/>
			<point x="412" y="423" type="curve" smooth="yes"/>
			<point x="412" y="564" type="line" smooth="yes"/>
			<point x="412" y="678"/>
			<point x="461" y="739"/>
			<point x="553" y="739" type="curve" smooth="yes"/>
			<point x="648" y="739"/>
			<point x="700" y="678"/>
			<point x="700" y="564" type="curve" smooth="yes"/>
			<point x="700" y="423" type="line" smooth="yes"/>
			<point x="700" y="308"/>
			<point x="648" y="248"/>
		</contour>
	</outline>
</glyph>
<glyph name="gravecomb" format="2">
	<advance width="0"/>
	<unicode hex="0300"/>
	<anchor x="-351" y="1370" name="top"/>
	<anchor x="-242" y="985" name="_top"/>
	<outline>
		<contour>
			<point x="-254" y="1376" type="line"/>
			<point x="-616" y="1376" type="line"/>
			<point x="-616" y="1372" type="line"/>
			<point x="-372" y="1075" type="line"/>
			<point x="-85" y="1075" type="line"/>
			<point x="-85" y="1078" type="line"/>
		</contour>
	</outline>
</glyph>
<glyph name="acutecomb" format="2">
	<advance width="0"/>
	<unicode hex="0301"/>
	<anchor x="-486" y="1370" name="top"/>
	<anchor x="-486" y="985" name="_top"/>
	<outline>
		<contour>
			<point x="-475" y="1376" type="line"/>
			<point x="-644" y="1078" type="line"/>
			<point x="-644" y="1075" type="line"/>
			<point x="-357" y="1075" type="line"/>
			<point x="-113" y="1372" type="line"/>
			<point x="-113" y="1376" type="line"/>
		</contour>
	</outline>
</glyph>
<glyph name="tildecomb" format="2">
	<advance width="0"/>
	<unicode hex="0303"/>
	<anchor x="-447" y="1370" name="top"/>
	<anchor x="-447" y="985" name="_top"/>
	<outline>
		<contour>
			<point x="-311" y="1082" type="curve" smooth="yes"/>
			<point x="-155" y="1082"/>
			<point x="-100" y="1182"/>
			<point x="-100" y="1325" type="curve" smooth="yes"/>
			<point x="-100" y="1368" type="line"/>
			<point x="-292" y="1368" type="line"/>
			<point x="-292" y="1367" type="line"/>
			<point x="-293" y="1325"/>
			<point x="-305" y="1304"/>
			<point x="-342" y="1304" type="curve" smooth="yes"/>
			<point x="-404" y="1304"/>
			<point x="-477" y="1355"/>
			<point x="-583" y="1355" type="curve" smooth="yes"/>
			<point x="-740" y="1355"/>
			<point x="-794" y="1252"/>
			<point x="-794" y="1109" type="curve" smooth="yes"/>
			<point x="-794" y="1069" type="line"/>
			<point x="-603" y="1069" type="line"/>
			<point x="-603" y="1070" type="line"/>
			<point x="-602" y="1112"/>
			<point x="-590" y="1133"/>
			<point x="-551" y="1133" type="curve" smooth="yes"/>
			<point x="-489" y="1133"/>
			<point x="-407" y="1082"/>
		</contour>
	</outline>
</glyph>
<glyph name="macroncomb" format="2">
	<advance width="0"/>
	<unicode hex="0304"/>
	<anchor x="-418" y="1308" name="top"/>
	<anchor x="-419" y="985" name="_top"/>
	<outline>
		<contour>
			<point x="-747" y="1094" type="line"/>
			<point x="-90" y="1094" type="line"/>
			<point x="-90" y="1303" type="line"/>
			<point x="-747" y="1303" type="line"/>
		</contour>
	</outline>
</glyph>
<glyph name="dieresiscomb" format="2">
	<advance width="0"/>
	<unicode hex="0308"/>
	<anchor x="-438" y="1360" name="top"/>
	<anchor x="-438" y="985" name="_top"/>
	<outline>
		<contour>
			<point x="-621" y="1062" type="curve" smooth="yes"/>
			<point x="-515" y="1062"/>
			<point x="-464" y="1119"/>
			<point x="-464" y="1216" type="curve" smooth="yes"/>
			<point x="-464" y="1224" type="line" smooth="yes"/>
			<point x="-464" y="1322"/>
			<point x="-515" y="1380"/>
			<point x="-621" y="1380" type="curve" smooth="yes"/>
			<point x="-725" y="1380"/>
			<point x="-776" y="1322"/>
			<point x="-776" y="1224" type="curve" smooth="yes"/>
			<point x="-776" y="1216" type="line" smooth="yes"/>
			<point x="-776" y="1119"/>
			<point x="-725" y="1062"/>
		</contour>
		<contour>
			<point x="-256" y="1062" type="curve" smooth="yes"/>
			<point x="-152" y="1062"/>
			<point x="-100" y="1119"/>
			<point x="-100" y="1216" type="curve" smooth="yes"/>
			<point x="-100" y="1224" type="line" smooth="yes"/>
			<point x="-100" y="1322"/>
			<point x="-152" y="1380"/>
			<point x="-256" y="1380" type="curve" smooth="yes"/>
			<point x="-361" y="1380"/>
			<point x="-411" y="1322"/>
			<point x="-411" y="1224" type="curve" smooth="yes"/>
			<point x="-411" y="1216" type="line" smooth="yes"/>
			<point x="-411" y="1119"/>
			<point x="-362" y="1062"/>
		</contour>
	</outline>
</glyph>
<glyph name="cedillacomb" format="2">
	<advance width="0"/>
	<unicode hex="0327"/>
	<anchor x="-326" y="0" name="_bottom"/>
	<anchor x="-289" y="-400" name="bottom"/>
	<outline>
		<contour>
			<point x="-213" y="37" type="line"/>
			<point x="-428" y="37" type="line"/>
			<point x="-453" y="-157" type="line"/>
			<point x="-452" y="-157"/>
			<point x="-450" y="-157"/>
			<point x="-449" y="-157" type="curve" smooth="yes"/>
			<point x="-324" y="-161"/>
			<point x="-295" y="-171"/>
			<point x="-295" y="-196" type="curve" smooth="yes"/>
			<point x="-295" y="-198" type="line" smooth="yes"/>
			<point x="-295" y="-222"/>
			<point x="-324" y="-228"/>
			<point x="-390" y="-228" type="curve" smooth="yes"/>
			<point x="-429" y="-228"/>
			<point x="-475" y="-223"/>
			<point x="-515" y="-215" type="curve"/>
			<point x="-486" y="-383" type="line"/>
			<point x="-442" y="-393"/>
			<point x="-385" y="-400"/>
			<point x="-324" y="-400" type="curve" smooth="yes"/>
			<point x="-152" y="-400"/>
			<point x="-63" y="-345"/>
			<point x="-63" y="-225" type="curve" smooth="yes"/>
			<point x="-63" y="-219" type="line" smooth="yes"/>
			<point x="-63" y="-121"/>
			<point x="-129" y="-66"/>
			<point x="-280" y="-66" type="curve" smooth="yes"/>
			<point x="-311" y="-66"/>
			<point x="-341" y="-67"/>
			<point x="-373" y="-69" type="curve"/>
			<point x="-240" y="-137" type="line"/>
		</contour>
	</outline>
</glyph>
<glyph name="Danda.bn" format="2">
	<advance width="797"/>
	<unicode hex="0964"/>
	<outline>
		<contour>
			<point x="230" y="1348" type="line"/>
			<point x="230" y="-60" type="line"/>
			<point x="566" y="-60" type="line"/>
			<point x="566" y="1348" type="line"/>
		</contour>
	</outline>
</glyph>
<glyph name="Doubledanda.bn" format="2">
	<advance width="1431"/>
	<unicode hex="0965"/>
	<outline>
		<contour>
			<point x="230" y="1348" type="line"/>
			<point x="230" y="-60" type="line"/>
			<point x="566" y="-60" type="line"/>
			<point x="566" y="1348" type="line"/>
		</contour>
		<contour>
			<point x="864" y="1348" type="line"/>
			<point x="864" y="-60" type="line"/>
			<point x="1200" y="-60" type="line"/>
			<point x="1200" y="1348" type="line"/>
		</contour>
	</outline>
</glyph>
<glyph name="anji.bn" format="2">
	<advance width="1270"/>
	<unicode hex="0980"/>
	<outline>
		<contour>
			<point x="616" y="1316" type="curve" smooth="yes"/>
			<point x="386" y="1316"/>
			<point x="198" y="1226"/>
			<point x="124" y="1065" type="curve" smooth="yes"/>
			<point x="91" y="1012"/>
			<point x="59" y="860"/>
			<point x="59" y="773" type="curve" smooth="yes"/>
			<point x="59" y="531"/>
			<point x="216" y="398"/>
			<point x="512" y="396" type="curve" smooth="yes"/>
			<point x="673" y="397" type="line"/>
			<point x="691" y="671" type="line"/>
			<point x="535" y="670" type="line" smooth="yes"/>
			<point x="438" y="669"/>
			<point x="399" y="708"/>
			<point x="399" y="786" type="curve" smooth="yes"/>
			<point x="399" y="831"/>
			<point x="424" y="939"/>
			<point x="446" y="957" type="curve" smooth="yes"/>
			<point x="481" y="1012"/>
			<point x="547" y="1037"/>
			<point x="623" y="1037" type="curve" smooth="yes"/>
			<point x="762" y="1037"/>
			<point x="793" y="973"/>
			<point x="793" y="882" type="curve" smooth="yes"/>
			<point x="793" y="241" type="line"/>
			<point x="1128" y="246" type="line"/>
			<point x="1128" y="885" type="line" smooth="yes"/>
			<point x="1128" y="1163"/>
			<point x="970" y="1316"/>
		</contour>
		<contour>
			<point x="1128" y="205" type="curve" smooth="yes"/>
			<point x="1128" y="304" type="line"/>
			<point x="792" y="304" type="line"/>
			<point x="792" y="205" type="line" smooth="yes"/>
			<point x="792" y="-28"/>
			<point x="934" y="-120"/>
			<point x="1200" y="-120" type="curve" smooth="yes"/>
			<point x="1289" y="-120" type="line"/>
			<point x="1271" y="134" type="line"/>
			<point x="1199" y="134" type="line" smooth="yes"/>
			<point x="1146" y="134"/>
			<point x="1128" y="163"/>
		</contour>
	</outline>
</glyph>
<glyph name="Candrabindu.bn" format="2">
	<advance width="0"/>
	<unicode hex="0981"/>
	<anchor x="-204" y="1747" name="_top2"/>
	<outline>
		<contour>
			<point x="641" y="1791" type="curve"/>
			<point x="434" y="1791" type="line"/>
			<point x="434" y="1781" type="line" smooth="yes"/>
			<point x="434" y="1657"/>
			<point x="359" y="1601"/>
			<point x="207" y="1601" type="curve" smooth="yes"/>
			<point x="57" y="1601"/>
			<point x="-18" y="1657"/>
			<point x="-18" y="1781" type="curve" smooth="yes"/>
			<point x="-18" y="1791" type="line"/>
			<point x="-227" y="1791" type="line"/>
			<point x="-227" y="1772"/>
			<point x="-228" y="1758"/>
			<point x="-228" y="1749" type="curve" smooth="yes"/>
			<point x="-228" y="1509"/>
			<point x="-78" y="1375"/>
			<point x="208" y="1375" type="curve" smooth="yes"/>
			<point x="493" y="1375"/>
			<point x="642" y="1509"/>
			<point x="642" y="1749" type="curve" smooth="yes"/>
			<point x="642" y="1757"/>
			<point x="641" y="1771"/>
		</contour>
		<contour>
			<point x="209" y="1695" type="curve" smooth="yes"/>
			<point x="309" y="1695"/>
			<point x="359" y="1749"/>
			<point x="359" y="1834" type="curve" smooth="yes"/>
			<point x="359" y="1838" type="line" smooth="yes"/>
			<point x="359" y="1923"/>
			<point x="309" y="1977"/>
			<point x="209" y="1977" type="curve" smooth="yes"/>
			<point x="109" y="1977"/>
			<point x="57" y="1924"/>
			<point x="57" y="1838" type="curve" smooth="yes"/>
			<point x="57" y="1834" type="line" smooth="yes"/>
			<point x="57" y="1749"/>
			<point x="109" y="1695"/>
		</contour>
	</outline>
</glyph>
<glyph name="Anuswara.bn" format="2">
  <advance width="1099"/>
  <unicode hex="0982"/>
  <outline>
    <contour>
      <point x="1016" y="-147" type="line"/>
      <point x="1041" y="142" type="line"/>
      <point x="137" y="529" type="line"/>
      <point x="112" y="234" type="line"/>
    </contour>
    <contour>
      <point x="548" y="548" type="curve" smooth="yes"/>
      <point x="835" y="548"/>
      <point x="987" y="681"/>
      <point x="987" y="918" type="curve" smooth="yes"/>
      <point x="987" y="949" type="line" smooth="yes"/>
      <point x="987" y="1186"/>
      <point x="833" y="1320"/>
      <point x="545" y="1320" type="curve" smooth="yes"/>
      <point x="259" y="1320"/>
      <point x="105" y="1186"/>
      <point x="105" y="949" type="curve" smooth="yes"/>
      <point x="105" y="918" type="line" smooth="yes"/>
      <point x="105" y="681"/>
      <point x="259" y="548"/>
    </contour>
    <contour>
      <point x="546" y="786" type="curve" smooth="yes"/>
      <point x="459" y="786"/>
      <point x="414" y="835"/>
      <point x="414" y="923" type="curve" smooth="yes"/>
      <point x="414" y="946" type="line" smooth="yes"/>
      <point x="414" y="1035"/>
      <point x="459" y="1083"/>
      <point x="546" y="1083" type="curve" smooth="yes"/>
      <point x="633" y="1083"/>
      <point x="679" y="1035"/>
      <point x="679" y="946" type="curve" smooth="yes"/>
      <point x="679" y="923" type="line" smooth="yes"/>
      <point x="679" y="835"/>
      <point x="633" y="786"/>
    </contour>
  </outline>
</glyph>
<glyph name="Visarga.bn" format="2">
  <advance width="1094"/>
  <unicode hex="0983"/>
  <outline>
    <contour>
      <point x="548" y="674" type="curve" smooth="yes"/>
      <point x="837" y="674"/>
      <point x="987" y="787"/>
      <point x="987" y="994" type="curve" smooth="yes"/>
      <point x="987" y="999" type="line" smooth="yes"/>
      <point x="987" y="1206"/>
      <point x="835" y="1320"/>
      <point x="545" y="1320" type="curve" smooth="yes"/>
      <point x="257" y="1320"/>
      <point x="105" y="1206"/>
      <point x="105" y="999" type="curve" smooth="yes"/>
      <point x="105" y="994" type="line" smooth="yes"/>
      <point x="105" y="787"/>
      <point x="257" y="674"/>
    </contour>
    <contour>
      <point x="546" y="903" type="curve" smooth="yes"/>
      <point x="457" y="903"/>
      <point x="414" y="934"/>
      <point x="414" y="994" type="curve" smooth="yes"/>
      <point x="414" y="1001" type="line" smooth="yes"/>
      <point x="414" y="1062"/>
      <point x="457" y="1092"/>
      <point x="546" y="1092" type="curve" smooth="yes"/>
      <point x="635" y="1093"/>
      <point x="679" y="1062"/>
      <point x="679" y="1001" type="curve" smooth="yes"/>
      <point x="679" y="994" type="line" smooth="yes"/>
      <point x="679" y="934"/>
      <point x="635" y="903"/>
    </contour>
    <contour>
      <point x="548" y="-33" type="curve" smooth="yes"/>
      <point x="837" y="-33"/>
      <point x="987" y="80"/>
      <point x="987" y="287" type="curve" smooth="yes"/>
      <point x="987" y="292" type="line" smooth="yes"/>
      <point x="987" y="499"/>
      <point x="835" y="613"/>
      <point x="545" y="613" type="curve" smooth="yes"/>
      <point x="257" y="613"/>
      <point x="105" y="499"/>
      <point x="105" y="292" type="curve" smooth="yes"/>
      <point x="105" y="287" type="line" smooth="yes"/>
      <point x="105" y="80"/>
      <point x="257" y="-33"/>
    </contour>
    <contour>
      <point x="546" y="196" type="curve" smooth="yes"/>
      <point x="457" y="196"/>
      <point x="414" y="227"/>
      <point x="414" y="287" type="curve" smooth="yes"/>
      <point x="414" y="294" type="line" smooth="yes"/>
      <point x="414" y="355"/>
      <point x="457" y="385"/>
      <point x="546" y="385" type="curve" smooth="yes"/>
      <point x="635" y="386"/>
      <point x="679" y="355"/>
      <point x="679" y="294" type="curve" smooth="yes"/>
      <point x="679" y="287" type="line" smooth="yes"/>
      <point x="679" y="227"/>
      <point x="635" y="196"/>
    </contour>
  </outline>
</glyph>
<glyph name="VowelA.bn" format="2">
  <advance width="2035"/>
  <unicode hex="0985"/>
  <note>
VowelA.bn
</note>
  <anchor x="1545" y="1433" name="top"/>
  <anchor x="1359" y="1777" name="top2"/>
  <outline>
    <contour>
      <point x="770" y="108" type="curve" smooth="yes"/>
      <point x="1189" y="108"/>
      <point x="1413" y="279"/>
      <point x="1413" y="601" type="curve" smooth="yes"/>
      <point x="1413" y="644" type="line" smooth="yes"/>
      <point x="1413" y="906"/>
      <point x="1254" y="1051"/>
      <point x="969" y="1051" type="curve" smooth="yes"/>
      <point x="684" y="1051"/>
      <point x="542" y="924"/>
      <point x="542" y="669" type="curve" smooth="yes"/>
      <point x="542" y="641"/>
      <point x="542" y="614"/>
      <point x="542" y="579" type="curve"/>
      <point x="872" y="579" type="line"/>
      <point x="872" y="609"/>
      <point x="872" y="635"/>
      <point x="872" y="660" type="curve" smooth="yes"/>
      <point x="872" y="751"/>
      <point x="904" y="791"/>
      <point x="974" y="791" type="curve" smooth="yes"/>
      <point x="1045" y="791"/>
      <point x="1076" y="751"/>
      <point x="1076" y="660" type="curve" smooth="yes"/>
      <point x="1076" y="620" type="line" smooth="yes"/>
      <point x="1076" y="461"/>
      <point x="964" y="390"/>
      <point x="755" y="390" type="curve" smooth="yes"/>
      <point x="536" y="390"/>
      <point x="414" y="498"/>
      <point x="400" y="715" type="curve" smooth="yes"/>
      <point x="389" y="885" type="line"/>
      <point x="63" y="887" type="line"/>
      <point x="71" y="717" type="line" smooth="yes"/>
      <point x="90" y="315"/>
      <point x="342" y="108"/>
    </contour>
    <contour>
      <point x="1629" y="-3" type="line"/>
      <point x="1920" y="-3" type="line"/>
      <point x="1920" y="1191" type="line"/>
      <point x="1584" y="1191" type="line"/>
      <point x="1584" y="470" type="line"/>
      <point x="1599" y="219" type="line"/>
      <point x="1681" y="312" type="line"/>
      <point x="1617" y="312" type="line"/>
      <point x="1190" y="493" type="line"/>
      <point x="1095" y="210" type="line"/>
    </contour>
    <contour>
      <point x="-77" y="1035" type="line"/>
      <point x="1921" y="1035" type="line"/>
      <point x="1919" y="1289" type="line"/>
      <point x="-95" y="1289" type="line"/>
    </contour>
    <contour>
      <point x="1784" y="1159" type="line"/>
      <point x="1784" y="699" type="line"/>
      <point x="1919" y="699" type="line"/>
      <point x="1919" y="1159" type="line"/>
    </contour>
    <contour>
      <point x="1784" y="1035" type="line"/>
      <point x="2077" y="1035" type="line"/>
      <point x="2059" y="1289" type="line"/>
      <point x="1784" y="1289" type="line"/>
    </contour>
  </outline>
</glyph>
<glyph name="VowelAa.bn" format="2">
	<advance width="2610"/>
	<unicode hex="0986"/>
	<anchor x="2120" y="1433" name="top"/>
	<anchor x="1934" y="1777" name="top2"/>
	<note>
		VowelAa.bn
	</note>
	<outline>
		<contour>
			<point x="770" y="108" type="curve" smooth="yes"/>
			<point x="1189" y="108"/>
			<point x="1413" y="279"/>
			<point x="1413" y="601" type="curve" smooth="yes"/>
			<point x="1413" y="644" type="line" smooth="yes"/>
			<point x="1413" y="906"/>
			<point x="1254" y="1051"/>
			<point x="969" y="1051" type="curve" smooth="yes"/>
			<point x="684" y="1051"/>
			<point x="542" y="924"/>
			<point x="542" y="669" type="curve" smooth="yes"/>
			<point x="542" y="641"/>
			<point x="542" y="614"/>
			<point x="542" y="579" type="curve"/>
			<point x="872" y="579" type="line"/>
			<point x="872" y="609"/>
			<point x="872" y="635"/>
			<point x="872" y="660" type="curve" smooth="yes"/>
			<point x="872" y="751"/>
			<point x="904" y="791"/>
			<point x="974" y="791" type="curve" smooth="yes"/>
			<point x="1045" y="791"/>
			<point x="1076" y="751"/>
			<point x="1076" y="660" type="curve" smooth="yes"/>
			<point x="1076" y="620" type="line" smooth="yes"/>
			<point x="1076" y="461"/>
			<point x="964" y="390"/>
			<point x="755" y="390" type="curve" smooth="yes"/>
			<point x="536" y="390"/>
			<point x="414" y="498"/>
			<point x="400" y="715" type="curve" smooth="yes"/>
			<point x="389" y="885" type="line"/>
			<point x="63" y="887" type="line"/>
			<point x="71" y="717" type="line" smooth="yes"/>
			<point x="90" y="315"/>
			<point x="342" y="108"/>
		</contour>
		<contour>
			<point x="1629" y="-3" type="line"/>
			<point x="1920" y="-3" type="line"/>
			<point x="1920" y="1191" type="line"/>
			<point x="1584" y="1191" type="line"/>
			<point x="1584" y="470" type="line"/>
			<point x="1599" y="219" type="line"/>
			<point x="1681" y="312" type="line"/>
			<point x="1617" y="312" type="line"/>
			<point x="1190" y="493" type="line"/>
			<point x="1095" y="210" type="line"/>
		</contour>
		<contour>
			<point x="-77" y="1035" type="line"/>
			<point x="1921" y="1035" type="line"/>
			<point x="1919" y="1289" type="line"/>
			<point x="-95" y="1289" type="line"/>
		</contour>
		<contour>
			<point x="1784" y="1159" type="line"/>
			<point x="1784" y="699" type="line"/>
			<point x="1919" y="699" type="line"/>
			<point x="1919" y="1159" type="line"/>
		</contour>
		<contour>
			<point x="1784" y="1035" type="line"/>
			<point x="2077" y="1035" type="line"/>
			<point x="2059" y="1289" type="line"/>
			<point x="1784" y="1289" type="line"/>
		</contour>
		<contour>
			<point x="2158" y="0" type="line"/>
			<point x="2494" y="0" type="line"/>
			<point x="2494" y="1105" type="line"/>
			<point x="2158" y="1105" type="line"/>
		</contour>
		<contour>
			<point x="2017" y="1035" type="line"/>
			<point x="2474" y="1035" type="line"/>
			<point x="2474" y="1289" type="line"/>
			<point x="2000" y="1289" type="line"/>
		</contour>
		<contour>
			<point x="2359" y="1159" type="line"/>
			<point x="2359" y="699" type="line"/>
			<point x="2494" y="699" type="line"/>
			<point x="2494" y="1159" type="line"/>
		</contour>
		<contour>
			<point x="2359" y="1035" type="line"/>
			<point x="2652" y="1035" type="line"/>
			<point x="2634" y="1289" type="line"/>
			<point x="2359" y="1289" type="line"/>
		</contour>
	</outline>
</glyph>
<glyph name="VowelI.bn" format="2">
  <advance width="1177"/>
  <unicode hex="0987"/>
  <note>
VowelI.bn
</note>
  <anchor x="836" y="134" name="bottom1"/>
  <anchor x="588" y="1522" name="top"/>
  <anchor x="895" y="1573" name="top2"/>
  <outline>
    <contour>
      <point x="1136" y="-216" type="line"/>
      <point x="1159" y="74" type="line"/>
      <point x="877" y="164" type="line"/>
      <point x="733" y="209" type="line"/>
      <point x="745" y="293" type="line"/>
      <point x="518" y="253" type="line"/>
      <point x="579" y="230"/>
      <point x="641" y="219"/>
      <point x="693" y="219" type="curve" smooth="yes"/>
      <point x="957" y="219"/>
      <point x="1095" y="351"/>
      <point x="1095" y="584" type="curve" smooth="yes"/>
      <point x="1095" y="633" type="line" smooth="yes"/>
      <point x="1095" y="909"/>
      <point x="915" y="1049"/>
      <point x="597" y="1049" type="curve" smooth="yes"/>
      <point x="278" y="1049"/>
      <point x="112" y="914"/>
      <point x="112" y="645" type="curve" smooth="yes"/>
      <point x="112" y="617"/>
      <point x="112" y="583"/>
      <point x="112" y="549" type="curve"/>
      <point x="451" y="549" type="line"/>
      <point x="451" y="583"/>
      <point x="451" y="617"/>
      <point x="451" y="637" type="curve" smooth="yes"/>
      <point x="451" y="732"/>
      <point x="505" y="789"/>
      <point x="600" y="790" type="curve" smooth="yes"/>
      <point x="700" y="792"/>
      <point x="755" y="731"/>
      <point x="755" y="634" type="curve" smooth="yes"/>
      <point x="755" y="588" type="line" smooth="yes"/>
      <point x="755" y="459"/>
      <point x="666" y="397"/>
      <point x="475" y="397" type="curve" smooth="yes"/>
      <point x="374" y="397"/>
      <point x="267" y="408"/>
      <point x="148" y="426" type="curve" smooth="yes"/>
      <point x="108" y="432" type="line"/>
      <point x="90" y="141" type="line"/>
    </contour>
    <contour>
      <point x="-23" y="1035" type="line"/>
      <point x="1228" y="1035" type="line"/>
      <point x="1211" y="1289" type="line"/>
      <point x="-41" y="1289" type="line"/>
    </contour>
    <contour>
      <point x="1142" y="1364" type="line"/>
      <point x="1142" y="1370"/>
      <point x="1142" y="1374"/>
      <point x="1142" y="1380" type="curve" smooth="yes"/>
      <point x="1142" y="1592"/>
      <point x="999" y="1682"/>
      <point x="751" y="1682" type="curve" smooth="yes"/>
      <point x="453" y="1682" type="line" smooth="yes"/>
      <point x="353" y="1682"/>
      <point x="311" y="1707"/>
      <point x="304" y="1779" type="curve" smooth="yes"/>
      <point x="301" y="1805" type="line"/>
      <point x="6" y="1805" type="line"/>
      <point x="6" y="1769" type="line" smooth="yes"/>
      <point x="6" y="1534"/>
      <point x="145" y="1425"/>
      <point x="443" y="1425" type="curve" smooth="yes"/>
      <point x="705" y="1425" type="line" smooth="yes"/>
      <point x="792" y="1425"/>
      <point x="827" y="1405"/>
      <point x="827" y="1345" type="curve" smooth="yes"/>
      <point x="827" y="1308"/>
      <point x="815" y="1277"/>
      <point x="793" y="1257" type="curve"/>
      <point x="878" y="1267" type="line"/>
    </contour>
  </outline>
</glyph>
<glyph name="VowelIi.bn" format="2">
  <advance width="1579"/>
  <unicode hex="0988"/>
  <anchor x="938" y="1522" name="top"/>
  <anchor x="1245" y="1573" name="top2"/>
  <outline>
    <contour>
      <point x="1129" y="-58" type="line"/>
      <point x="1465" y="-58" type="line"/>
      <point x="1465" y="876" type="line"/>
      <point x="1149" y="876" type="line"/>
      <point x="1011" y="736"/>
      <point x="882" y="602"/>
      <point x="743" y="453" type="curve"/>
      <point x="855" y="405" type="line"/>
      <point x="918" y="479"/>
      <point x="949" y="568"/>
      <point x="949" y="674" type="curve" smooth="yes"/>
      <point x="949" y="691" type="line" smooth="yes"/>
      <point x="949" y="926"/>
      <point x="812" y="1049"/>
      <point x="539" y="1049" type="curve" smooth="yes"/>
      <point x="249" y="1049"/>
      <point x="106" y="928"/>
      <point x="106" y="678" type="curve" smooth="yes"/>
      <point x="106" y="636"/>
      <point x="106" y="595"/>
      <point x="106" y="553" type="curve"/>
      <point x="443" y="553" type="line"/>
      <point x="443" y="599"/>
      <point x="443" y="644"/>
      <point x="443" y="673" type="curve" smooth="yes"/>
      <point x="443" y="757"/>
      <point x="480" y="791"/>
      <point x="544" y="791" type="curve" smooth="yes"/>
      <point x="608" y="791"/>
      <point x="644" y="751"/>
      <point x="644" y="673" type="curve" smooth="yes"/>
      <point x="644" y="614" type="line" smooth="yes"/>
      <point x="644" y="512"/>
      <point x="593" y="401"/>
      <point x="331" y="401" type="curve" smooth="yes"/>
      <point x="267" y="401"/>
      <point x="210" y="406"/>
      <point x="160" y="414" type="curve" smooth="yes"/>
      <point x="97" y="424" type="line"/>
      <point x="97" y="146" type="line"/>
      <point x="166" y="130"/>
      <point x="295" y="118"/>
      <point x="370" y="118" type="curve" smooth="yes"/>
      <point x="580" y="118"/>
      <point x="731" y="159"/>
      <point x="859" y="254" type="curve" smooth="yes"/>
      <point x="1011" y="367"/>
      <point x="1166" y="512"/>
      <point x="1347" y="695" type="curve"/>
      <point x="1156" y="756" type="line"/>
      <point x="1129" y="342" type="line"/>
    </contour>
    <contour>
      <point x="-63" y="1035" type="line"/>
      <point x="1636" y="1035" type="line"/>
      <point x="1619" y="1289" type="line"/>
      <point x="-81" y="1289" type="line"/>
    </contour>
    <contour>
      <point x="1492" y="1364" type="line"/>
      <point x="1492" y="1370"/>
      <point x="1492" y="1374"/>
      <point x="1492" y="1380" type="curve" smooth="yes"/>
      <point x="1492" y="1593"/>
      <point x="1349" y="1683"/>
      <point x="1100" y="1683" type="curve" smooth="yes"/>
      <point x="550" y="1683" type="line" smooth="yes"/>
      <point x="449" y="1683"/>
      <point x="407" y="1708"/>
      <point x="400" y="1779" type="curve" smooth="yes"/>
      <point x="397" y="1805" type="line"/>
      <point x="103" y="1805" type="line"/>
      <point x="103" y="1769" type="line" smooth="yes"/>
      <point x="103" y="1533"/>
      <point x="242" y="1425"/>
      <point x="540" y="1425" type="curve" smooth="yes"/>
      <point x="1054" y="1425" type="line" smooth="yes"/>
      <point x="1142" y="1425"/>
      <point x="1177" y="1405"/>
      <point x="1177" y="1345" type="curve" smooth="yes"/>
      <point x="1177" y="1308"/>
      <point x="1165" y="1277"/>
      <point x="1143" y="1257" type="curve"/>
      <point x="1227" y="1267" type="line"/>
    </contour>
  </outline>
</glyph>
<glyph name="VowelU.bn" format="2">
	<advance width="1507"/>
	<unicode hex="0989"/>
	<anchor x="1052" y="184" name="bottom1"/>
	<anchor x="891" y="1522" name="top"/>
	<anchor x="1198" y="1573" name="top2"/>
	<note>
		VowelU.bn
	</note>
	<outline>
		<contour>
			<point x="408" y="644" type="curve" smooth="yes"/>
			<point x="392" y="887" type="line"/>
			<point x="62" y="887" type="line"/>
			<point x="76" y="632" type="line" smooth="yes"/>
			<point x="99" y="210"/>
			<point x="338" y="0"/>
			<point x="792" y="0" type="curve" smooth="yes"/>
			<point x="1224" y="0"/>
			<point x="1447" y="178"/>
			<point x="1447" y="522" type="curve" smooth="yes"/>
			<point x="1447" y="618"/>
			<point x="1437" y="705"/>
			<point x="1414" y="854" type="curve"/>
			<point x="1131" y="886" type="line"/>
			<point x="1075" y="825" type="line" smooth="yes"/>
			<point x="1027" y="772"/>
			<point x="993" y="749"/>
			<point x="949" y="749" type="curve" smooth="yes"/>
			<point x="902" y="749"/>
			<point x="879" y="779"/>
			<point x="879" y="848" type="curve" smooth="yes"/>
			<point x="879" y="1204" type="line"/>
			<point x="545" y="1205" type="line"/>
			<point x="545" y="832" type="line" smooth="yes"/>
			<point x="545" y="595"/>
			<point x="651" y="475"/>
			<point x="871" y="475" type="curve" smooth="yes"/>
			<point x="992" y="475"/>
			<point x="1095" y="529"/>
			<point x="1171" y="610" type="curve" smooth="yes"/>
			<point x="1290" y="736" type="line"/>
			<point x="1108" y="665" type="line"/>
			<point x="1109" y="616"/>
			<point x="1110" y="569"/>
			<point x="1110" y="523" type="curve" smooth="yes"/>
			<point x="1110" y="363"/>
			<point x="988" y="288"/>
			<point x="785" y="288" type="curve" smooth="yes"/>
			<point x="542" y="288"/>
			<point x="424" y="400"/>
		</contour>
		<contour>
			<point x="-58" y="1035" type="line"/>
			<point x="1593" y="1035" type="line"/>
			<point x="1575" y="1289" type="line"/>
			<point x="-76" y="1289" type="line"/>
		</contour>
		<contour>
			<point x="1445" y="1364" type="line"/>
			<point x="1445" y="1370"/>
			<point x="1445" y="1374"/>
			<point x="1445" y="1380" type="curve" smooth="yes"/>
			<point x="1445" y="1593"/>
			<point x="1302" y="1683"/>
			<point x="1053" y="1683" type="curve" smooth="yes"/>
			<point x="516" y="1683" type="line" smooth="yes"/>
			<point x="416" y="1683"/>
			<point x="374" y="1708"/>
			<point x="366" y="1779" type="curve" smooth="yes"/>
			<point x="364" y="1805" type="line"/>
			<point x="69" y="1805" type="line"/>
			<point x="69" y="1769" type="line" smooth="yes"/>
			<point x="69" y="1533"/>
			<point x="208" y="1425"/>
			<point x="506" y="1425" type="curve" smooth="yes"/>
			<point x="1007" y="1425" type="line" smooth="yes"/>
			<point x="1095" y="1425"/>
			<point x="1130" y="1405"/>
			<point x="1130" y="1345" type="curve" smooth="yes"/>
			<point x="1130" y="1308"/>
			<point x="1118" y="1277"/>
			<point x="1096" y="1257" type="curve"/>
			<point x="1180" y="1267" type="line"/>
		</contour>
	</outline>
</glyph>
<glyph name="VowelUu.bn" format="2">
	<advance width="1739"/>
	<unicode hex="098A"/>
	<anchor x="1123" y="1522" name="top"/>
	<anchor x="1430" y="1573" name="top2"/>
	<outline>
		<contour>
			<point x="777" y="1205" type="line"/>
			<point x="777" y="832" type="line" smooth="yes"/>
			<point x="777" y="595"/>
			<point x="884" y="475"/>
			<point x="1110" y="475" type="curve" smooth="yes"/>
			<point x="1223" y="475"/>
			<point x="1326" y="530"/>
			<point x="1403" y="610" type="curve" smooth="yes"/>
			<point x="1524" y="736" type="line"/>
			<point x="1340" y="665" type="line"/>
			<point x="1341" y="615"/>
			<point x="1342" y="567"/>
			<point x="1342" y="523" type="curve" smooth="yes"/>
			<point x="1342" y="362"/>
			<point x="1217" y="287"/>
			<point x="1027" y="287" type="curve" smooth="yes"/>
			<point x="752" y="287"/>
			<point x="677" y="454"/>
			<point x="664" y="653" type="curve" smooth="yes"/>
			<point x="649" y="887" type="line"/>
			<point x="389" y="887" type="line"/>
			<point x="401" y="660" type="line" smooth="yes"/>
			<point x="413" y="428"/>
			<point x="520" y="273"/>
			<point x="756" y="182" type="curve"/>
			<point x="698" y="294" type="line"/>
			<point x="640" y="167" type="line"/>
			<point x="724" y="208" type="line"/>
			<point x="511" y="221"/>
			<point x="359" y="406"/>
			<point x="341" y="610" type="curve" smooth="yes"/>
			<point x="325" y="791" type="line"/>
			<point x="69" y="791" type="line"/>
			<point x="86" y="581" type="line" smooth="yes"/>
			<point x="117" y="194"/>
			<point x="459" y="0"/>
			<point x="978" y="0" type="curve" smooth="yes"/>
			<point x="1437" y="0"/>
			<point x="1679" y="173"/>
			<point x="1679" y="522" type="curve" smooth="yes"/>
			<point x="1679" y="636"/>
			<point x="1668" y="705"/>
			<point x="1646" y="854" type="curve"/>
			<point x="1363" y="886" type="line"/>
			<point x="1307" y="825" type="line" smooth="yes"/>
			<point x="1259" y="772"/>
			<point x="1225" y="749"/>
			<point x="1181" y="749" type="curve" smooth="yes"/>
			<point x="1134" y="749"/>
			<point x="1111" y="779"/>
			<point x="1111" y="848" type="curve" smooth="yes"/>
			<point x="1111" y="1204" type="line"/>
		</contour>
		<contour>
			<point x="-58" y="1035" type="line"/>
			<point x="1825" y="1035" type="line"/>
			<point x="1807" y="1289" type="line"/>
			<point x="-76" y="1289" type="line"/>
		</contour>
		<contour>
			<point x="1677" y="1364" type="line"/>
			<point x="1677" y="1370"/>
			<point x="1677" y="1374"/>
			<point x="1677" y="1380" type="curve" smooth="yes"/>
			<point x="1677" y="1593"/>
			<point x="1534" y="1683"/>
			<point x="1285" y="1683" type="curve" smooth="yes"/>
			<point x="592" y="1683" type="line" smooth="yes"/>
			<point x="492" y="1683"/>
			<point x="450" y="1708"/>
			<point x="442" y="1779" type="curve" smooth="yes"/>
			<point x="440" y="1805" type="line"/>
			<point x="145" y="1805" type="line"/>
			<point x="145" y="1769" type="line" smooth="yes"/>
			<point x="145" y="1533"/>
			<point x="284" y="1425"/>
			<point x="582" y="1425" type="curve" smooth="yes"/>
			<point x="1239" y="1425" type="line" smooth="yes"/>
			<point x="1327" y="1425"/>
			<point x="1362" y="1405"/>
			<point x="1362" y="1345" type="curve" smooth="yes"/>
			<point x="1362" y="1308"/>
			<point x="1350" y="1277"/>
			<point x="1328" y="1257" type="curve"/>
			<point x="1412" y="1267" type="line"/>
		</contour>
	</outline>
</glyph>
<glyph name="VowelLru.bn" format="2">
  <advance width="1508"/>
  <unicode hex="098C"/>
  <anchor x="639" y="1587" name="top2"/>
  <outline>
    <contour>
      <point x="83" y="0" type="curve"/>
      <point x="414" y="0" type="line"/>
      <point x="414" y="53"/>
      <point x="414" y="124"/>
      <point x="414" y="190" type="curve" smooth="yes"/>
      <point x="414" y="283" type="line" smooth="yes"/>
      <point x="414" y="387"/>
      <point x="460" y="437"/>
      <point x="535" y="437" type="curve" smooth="yes"/>
      <point x="610" y="437"/>
      <point x="655" y="387"/>
      <point x="655" y="283" type="curve" smooth="yes"/>
      <point x="655" y="0" type="line"/>
      <point x="920" y="0" type="line" smooth="yes"/>
      <point x="1249" y="0"/>
      <point x="1448" y="183"/>
      <point x="1448" y="483" type="curve" smooth="yes"/>
      <point x="1448" y="502" type="line" smooth="yes"/>
      <point x="1448" y="828"/>
      <point x="1258" y="990"/>
      <point x="847" y="1083" type="curve" smooth="yes"/>
      <point x="692" y="1118" type="line" smooth="yes"/>
      <point x="474" y="1167"/>
      <point x="451" y="1210"/>
      <point x="442" y="1296" type="curve" smooth="yes"/>
      <point x="440" y="1315" type="line"/>
      <point x="117" y="1315" type="line"/>
      <point x="117" y="1285" type="line" smooth="yes"/>
      <point x="117" y="1073"/>
      <point x="236" y="943"/>
      <point x="567" y="871" type="curve" smooth="yes"/>
      <point x="727" y="836" type="line" smooth="yes"/>
      <point x="1003" y="776"/>
      <point x="1108" y="692"/>
      <point x="1108" y="505" type="curve" smooth="yes"/>
      <point x="1108" y="483" type="line" smooth="yes"/>
      <point x="1108" y="344"/>
      <point x="1040" y="277"/>
      <point x="919" y="277" type="curve" smooth="yes"/>
      <point x="796" y="277" type="line"/>
      <point x="951" y="114" type="line"/>
      <point x="951" y="310" type="line" smooth="yes"/>
      <point x="951" y="580"/>
      <point x="798" y="724"/>
      <point x="518" y="724" type="curve" smooth="yes"/>
      <point x="212" y="724"/>
      <point x="83" y="558"/>
      <point x="83" y="289" type="curve" smooth="yes"/>
      <point x="83" y="189" type="line" smooth="yes"/>
      <point x="83" y="122"/>
      <point x="83" y="56"/>
    </contour>
  </outline>
</glyph>
<glyph name="VowelE.bn" format="2">
  <advance width="1481"/>
  <unicode hex="098F"/>
  <anchor x="465" y="1777" name="top2"/>
  <outline>
    <contour>
      <point x="888" y="522" type="curve"/>
      <point x="911" y="782" type="line"/>
      <point x="878" y="777"/>
      <point x="844" y="776"/>
      <point x="807" y="776" type="curve" smooth="yes"/>
      <point x="731" y="776"/>
      <point x="687" y="799"/>
      <point x="687" y="865" type="curve" smooth="yes"/>
      <point x="687" y="906"/>
      <point x="704" y="945"/>
      <point x="730" y="976" type="curve" smooth="yes"/>
      <point x="765" y="1017"/>
      <point x="816" y="1042"/>
      <point x="883" y="1042" type="curve" smooth="yes"/>
      <point x="976" y="1042"/>
      <point x="1028" y="986"/>
      <point x="1028" y="871" type="curve" smooth="yes"/>
      <point x="1028" y="429" type="line"/>
      <point x="1046" y="202" type="line"/>
      <point x="1067" y="-3" type="line"/>
      <point x="1364" y="-3" type="line"/>
      <point x="1364" y="846" type="line" smooth="yes"/>
      <point x="1364" y="1163"/>
      <point x="1194" y="1319"/>
      <point x="861" y="1319" type="curve" smooth="yes"/>
      <point x="630" y="1319"/>
      <point x="459" y="1209"/>
      <point x="381" y="1040" type="curve" smooth="yes"/>
      <point x="354" y="981"/>
      <point x="340" y="913"/>
      <point x="340" y="841" type="curve" smooth="yes"/>
      <point x="340" y="629"/>
      <point x="464" y="512"/>
      <point x="722" y="512" type="curve" smooth="yes"/>
      <point x="776" y="512"/>
      <point x="832" y="512"/>
    </contour>
    <contour>
      <point x="1067" y="-3" type="line"/>
      <point x="1062" y="235" type="line"/>
      <point x="1032" y="235" type="line"/>
      <point x="1003" y="329"/>
      <point x="929" y="374"/>
      <point x="825" y="374" type="curve" smooth="yes"/>
      <point x="547" y="374" type="line" smooth="yes"/>
      <point x="438" y="374"/>
      <point x="386" y="422"/>
      <point x="381" y="523" type="curve" smooth="yes"/>
      <point x="379" y="561" type="line"/>
      <point x="54" y="561" type="line"/>
      <point x="54" y="547"/>
      <point x="54" y="530"/>
      <point x="54" y="516" type="curve" smooth="yes"/>
      <point x="54" y="228"/>
      <point x="209" y="86"/>
      <point x="541" y="86" type="curve" smooth="yes"/>
      <point x="854" y="86" type="line" smooth="yes"/>
      <point x="963" y="86"/>
      <point x="1020" y="64"/>
      <point x="1049" y="23" type="curve" smooth="yes"/>
    </contour>
  </outline>
</glyph>
<glyph name="VowelAi.bn" format="2">
  <advance width="1890"/>
  <unicode hex="0990"/>
  <anchor x="1491" y="1550" name="top2"/>
  <outline>
    <contour>
      <point x="1358" y="500" type="curve" smooth="yes"/>
      <point x="1674" y="500"/>
      <point x="1888" y="677"/>
      <point x="1888" y="1020" type="curve" smooth="yes"/>
      <point x="1888" y="1037" type="line" smooth="yes"/>
      <point x="1888" y="1362"/>
      <point x="1712" y="1578"/>
      <point x="1223" y="1670" type="curve" smooth="yes"/>
      <point x="1022" y="1708" type="line" smooth="yes"/>
      <point x="835" y="1743"/>
      <point x="811" y="1799"/>
      <point x="799" y="1885" type="curve" smooth="yes"/>
      <point x="796" y="1906" type="line"/>
      <point x="474" y="1906" type="line"/>
      <point x="474" y="1880" type="line" smooth="yes"/>
      <point x="474" y="1667"/>
      <point x="576" y="1515"/>
      <point x="907" y="1450" type="curve" smooth="yes"/>
      <point x="1105" y="1411" type="line" smooth="yes"/>
      <point x="1423" y="1348"/>
      <point x="1545" y="1247"/>
      <point x="1545" y="1043" type="curve" smooth="yes"/>
      <point x="1545" y="1032" type="line" smooth="yes"/>
      <point x="1545" y="853"/>
      <point x="1474" y="768"/>
      <point x="1335" y="768" type="curve" smooth="yes"/>
      <point x="1292" y="768"/>
      <point x="1247" y="768"/>
      <point x="1208" y="774" type="curve"/>
      <point x="1190" y="502" type="line"/>
      <point x="1257" y="502" type="line"/>
      <point x="1268" y="501"/>
      <point x="1303" y="500"/>
    </contour>
    <contour>
      <point x="888" y="522" type="curve"/>
      <point x="911" y="782" type="line"/>
      <point x="878" y="777"/>
      <point x="844" y="776"/>
      <point x="807" y="776" type="curve" smooth="yes"/>
      <point x="731" y="776"/>
      <point x="687" y="799"/>
      <point x="687" y="865" type="curve" smooth="yes"/>
      <point x="687" y="906"/>
      <point x="704" y="945"/>
      <point x="730" y="976" type="curve" smooth="yes"/>
      <point x="765" y="1017"/>
      <point x="816" y="1042"/>
      <point x="883" y="1042" type="curve" smooth="yes"/>
      <point x="976" y="1042"/>
      <point x="1028" y="986"/>
      <point x="1028" y="871" type="curve" smooth="yes"/>
      <point x="1028" y="429" type="line"/>
      <point x="1046" y="202" type="line"/>
      <point x="1067" y="-3" type="line"/>
      <point x="1364" y="-3" type="line"/>
      <point x="1364" y="846" type="line" smooth="yes"/>
      <point x="1364" y="1163"/>
      <point x="1194" y="1319"/>
      <point x="861" y="1319" type="curve" smooth="yes"/>
      <point x="630" y="1319"/>
      <point x="459" y="1209"/>
      <point x="381" y="1040" type="curve" smooth="yes"/>
      <point x="354" y="981"/>
      <point x="340" y="913"/>
      <point x="340" y="841" type="curve" smooth="yes"/>
      <point x="340" y="629"/>
      <point x="464" y="512"/>
      <point x="722" y="512" type="curve" smooth="yes"/>
      <point x="776" y="512"/>
      <point x="832" y="512"/>
    </contour>
    <contour>
      <point x="1067" y="-3" type="line"/>
      <point x="1062" y="235" type="line"/>
      <point x="1032" y="235" type="line"/>
      <point x="1003" y="329"/>
      <point x="929" y="374"/>
      <point x="825" y="374" type="curve" smooth="yes"/>
      <point x="547" y="374" type="line" smooth="yes"/>
      <point x="438" y="374"/>
      <point x="386" y="422"/>
      <point x="381" y="523" type="curve" smooth="yes"/>
      <point x="379" y="561" type="line"/>
      <point x="54" y="561" type="line"/>
      <point x="54" y="547"/>
      <point x="54" y="530"/>
      <point x="54" y="516" type="curve" smooth="yes"/>
      <point x="54" y="228"/>
      <point x="209" y="86"/>
      <point x="541" y="86" type="curve" smooth="yes"/>
      <point x="854" y="86" type="line" smooth="yes"/>
      <point x="963" y="86"/>
      <point x="1020" y="64"/>
      <point x="1049" y="23" type="curve" smooth="yes"/>
    </contour>
  </outline>
</glyph>
<glyph name="VowelO.bn" format="2">
  <advance width="1303"/>
  <unicode hex="0993"/>
  <anchor x="298" y="1777" name="top2"/>
  <outline>
    <contour>
      <point x="64" y="659" type="line"/>
      <point x="70" y="519" type="line" smooth="yes"/>
      <point x="84" y="181"/>
      <point x="302" y="0"/>
      <point x="689" y="0" type="curve" smooth="yes"/>
      <point x="1037" y="0"/>
      <point x="1223" y="119"/>
      <point x="1223" y="343" type="curve" smooth="yes"/>
      <point x="1223" y="355" type="line" smooth="yes"/>
      <point x="1223" y="490"/>
      <point x="1130" y="587"/>
      <point x="951" y="608" type="curve"/>
      <point x="951" y="618" type="line"/>
      <point x="1125" y="646"/>
      <point x="1200" y="757"/>
      <point x="1200" y="895" type="curve" smooth="yes"/>
      <point x="1200" y="923" type="line" smooth="yes"/>
      <point x="1200" y="1179"/>
      <point x="1027" y="1321"/>
      <point x="707" y="1321" type="curve" smooth="yes"/>
      <point x="391" y="1321"/>
      <point x="212" y="1169"/>
      <point x="212" y="894" type="curve" smooth="yes"/>
      <point x="212" y="861"/>
      <point x="212" y="833"/>
      <point x="212" y="805" type="curve"/>
      <point x="552" y="805" type="line"/>
      <point x="552" y="830"/>
      <point x="552" y="855"/>
      <point x="552" y="880" type="curve" smooth="yes"/>
      <point x="552" y="985"/>
      <point x="606" y="1042"/>
      <point x="707" y="1042" type="curve" smooth="yes"/>
      <point x="804" y="1042"/>
      <point x="856" y="993"/>
      <point x="856" y="900" type="curve" smooth="yes"/>
      <point x="856" y="880" type="line" smooth="yes"/>
      <point x="856" y="785"/>
      <point x="798" y="744"/>
      <point x="689" y="741" type="curve" smooth="yes"/>
      <point x="584" y="738" type="line"/>
      <point x="584" y="489" type="line"/>
      <point x="719" y="485" type="line" smooth="yes"/>
      <point x="832" y="482"/>
      <point x="871" y="450"/>
      <point x="871" y="391" type="curve" smooth="yes"/>
      <point x="871" y="384" type="line" smooth="yes"/>
      <point x="871" y="318"/>
      <point x="804" y="284"/>
      <point x="685" y="284" type="curve" smooth="yes"/>
      <point x="463" y="284"/>
      <point x="405" y="389"/>
      <point x="397" y="520" type="curve" smooth="yes"/>
      <point x="388" y="659" type="line"/>
    </contour>
  </outline>
</glyph>
<glyph name="VowelAu.bn" format="2">
  <advance width="1707"/>
  <unicode hex="0994"/>
  <anchor x="1365" y="1550" name="top2"/>
  <outline>
    <contour>
      <point x="1214" y="566" type="curve" smooth="yes"/>
      <point x="1525" y="566"/>
      <point x="1705" y="739"/>
      <point x="1705" y="1040" type="curve" smooth="yes"/>
      <point x="1705" y="1055" type="line" smooth="yes"/>
      <point x="1705" y="1358"/>
      <point x="1531" y="1577"/>
      <point x="1041" y="1670" type="curve" smooth="yes"/>
      <point x="841" y="1708" type="line" smooth="yes"/>
      <point x="652" y="1744"/>
      <point x="630" y="1800"/>
      <point x="618" y="1885" type="curve" smooth="yes"/>
      <point x="615" y="1906" type="line"/>
      <point x="293" y="1906" type="line"/>
      <point x="293" y="1880" type="line" smooth="yes"/>
      <point x="293" y="1666"/>
      <point x="395" y="1515"/>
      <point x="726" y="1450" type="curve" smooth="yes"/>
      <point x="924" y="1411" type="line" smooth="yes"/>
      <point x="1242" y="1348"/>
      <point x="1364" y="1256"/>
      <point x="1364" y="1077" type="curve" smooth="yes"/>
      <point x="1364" y="1068" type="line" smooth="yes"/>
      <point x="1364" y="903"/>
      <point x="1301" y="831"/>
      <point x="1159" y="831" type="curve" smooth="yes"/>
      <point x="1142" y="831"/>
      <point x="1104" y="831"/>
      <point x="1088" y="830" type="curve"/>
      <point x="882" y="647" type="line"/>
      <point x="956" y="591" type="line"/>
      <point x="1040" y="574"/>
      <point x="1000" y="566"/>
    </contour>
    <contour>
      <point x="64" y="659" type="line"/>
      <point x="70" y="519" type="line" smooth="yes"/>
      <point x="84" y="181"/>
      <point x="305" y="0"/>
      <point x="698" y="0" type="curve" smooth="yes"/>
      <point x="1040" y="0"/>
      <point x="1223" y="118"/>
      <point x="1223" y="340" type="curve" smooth="yes"/>
      <point x="1223" y="352" type="line" smooth="yes"/>
      <point x="1223" y="486"/>
      <point x="1130" y="582"/>
      <point x="951" y="603" type="curve"/>
      <point x="951" y="613" type="line"/>
      <point x="1107" y="640"/>
      <point x="1174" y="750"/>
      <point x="1174" y="885" type="curve" smooth="yes"/>
      <point x="1174" y="913" type="line" smooth="yes"/>
      <point x="1174" y="1175"/>
      <point x="1003" y="1321"/>
      <point x="697" y="1321" type="curve" smooth="yes"/>
      <point x="387" y="1321"/>
      <point x="212" y="1176"/>
      <point x="212" y="890" type="curve" smooth="yes"/>
      <point x="212" y="861"/>
      <point x="212" y="833"/>
      <point x="212" y="805" type="curve"/>
      <point x="552" y="805" type="line"/>
      <point x="552" y="832"/>
      <point x="552" y="859"/>
      <point x="552" y="886" type="curve" smooth="yes"/>
      <point x="552" y="991"/>
      <point x="605" y="1042"/>
      <point x="705" y="1042" type="curve" smooth="yes"/>
      <point x="803" y="1042"/>
      <point x="856" y="993"/>
      <point x="856" y="900" type="curve" smooth="yes"/>
      <point x="856" y="880" type="line" smooth="yes"/>
      <point x="856" y="778"/>
      <point x="798" y="734"/>
      <point x="689" y="731" type="curve" smooth="yes"/>
      <point x="584" y="728" type="line"/>
      <point x="584" y="489" type="line"/>
      <point x="719" y="485" type="line" smooth="yes"/>
      <point x="832" y="482"/>
      <point x="871" y="450"/>
      <point x="871" y="391" type="curve" smooth="yes"/>
      <point x="871" y="384" type="line" smooth="yes"/>
      <point x="871" y="318"/>
      <point x="804" y="284"/>
      <point x="685" y="284" type="curve" smooth="yes"/>
      <point x="463" y="284"/>
      <point x="405" y="389"/>
      <point x="397" y="520" type="curve" smooth="yes"/>
      <point x="388" y="659" type="line"/>
    </contour>
  </outline>
</glyph>
<glyph name="Kha.bn" format="2">
	<advance width="1415"/>
	<unicode hex="0996"/>
	<anchor x="1299" y="-3" name="bottom1"/>
	<anchor x="925" y="1433" name="top"/>
	<anchor x="739" y="1777" name="top2"/>
	<outline>
		<contour>
			<point x="1010" y="-3" type="line"/>
			<point x="1299" y="-3" type="line"/>
			<point x="1299" y="1289" type="line"/>
			<point x="964" y="1289" type="line"/>
			<point x="964" y="469" type="line"/>
			<point x="980" y="216" type="line"/>
			<point x="1015" y="280" type="line"/>
			<point x="361" y="481" type="line"/>
			<point x="461" y="358" type="line"/>
			<point x="461" y="642" type="line"/>
			<point x="287" y="480" type="line"/>
			<point x="440" y="495" type="line" smooth="yes"/>
			<point x="715" y="522"/>
			<point x="863" y="644"/>
			<point x="863" y="882" type="curve" smooth="yes"/>
			<point x="863" y="1026"/>
			<point x="854" y="1140"/>
			<point x="840" y="1279" type="curve"/>
			<point x="562" y="1297" type="line"/>
			<point x="473" y="1156"/>
			<point x="455" y="1112"/>
			<point x="392" y="1112" type="curve" smooth="yes"/>
			<point x="347" y="1112"/>
			<point x="322" y="1132"/>
			<point x="319" y="1179" type="curve" smooth="yes"/>
			<point x="313" y="1289" type="line"/>
			<point x="11" y="1289" type="line"/>
			<point x="11" y="1184" type="line" smooth="yes"/>
			<point x="11" y="969"/>
			<point x="129" y="853"/>
			<point x="352" y="853" type="curve" smooth="yes"/>
			<point x="490" y="853"/>
			<point x="574" y="914"/>
			<point x="674" y="1088" type="curve"/>
			<point x="538" y="1058" type="line"/>
			<point x="540" y="996"/>
			<point x="541" y="918"/>
			<point x="541" y="885" type="curve" smooth="yes"/>
			<point x="541" y="797"/>
			<point x="478" y="747"/>
			<point x="336" y="733" type="curve" smooth="yes"/>
			<point x="116" y="711" type="line"/>
			<point x="116" y="275" type="line"/>
		</contour>
		<contour>
			<point x="1164" y="1159" type="line"/>
			<point x="1164" y="699" type="line"/>
			<point x="1299" y="699" type="line"/>
			<point x="1299" y="1159" type="line"/>
		</contour>
		<contour>
			<point x="1164" y="1035" type="line"/>
			<point x="1457" y="1035" type="line"/>
			<point x="1439" y="1289" type="line"/>
			<point x="1164" y="1289" type="line"/>
		</contour>
	</outline>
</glyph>
<glyph name="Ga.bn" format="2">
	<advance width="1409"/>
	<unicode hex="0997"/>
	<anchor x="1291" y="200" name="bottom1"/>
	<anchor x="919" y="1433" name="top"/>
	<anchor x="733" y="1777" name="top2"/>
	<outline>
		<contour>
			<point x="162" y="183" type="line"/>
			<point x="276" y="183" type="line" smooth="yes"/>
			<point x="636" y="183"/>
			<point x="812" y="303"/>
			<point x="812" y="547" type="curve" smooth="yes"/>
			<point x="812" y="566" type="line" smooth="yes"/>
			<point x="812" y="783"/>
			<point x="680" y="889"/>
			<point x="421" y="889" type="curve" smooth="yes"/>
			<point x="339" y="889"/>
			<point x="272" y="885"/>
			<point x="206" y="877" type="curve"/>
			<point x="426" y="779" type="line"/>
			<point x="425" y="809"/>
			<point x="424" y="834"/>
			<point x="424" y="856" type="curve" smooth="yes"/>
			<point x="424" y="966"/>
			<point x="501" y="1022"/>
			<point x="641" y="1022" type="curve" smooth="yes"/>
			<point x="802" y="1022"/>
			<point x="906" y="949"/>
			<point x="958" y="800" type="curve"/>
			<point x="958" y="714" type="line"/>
			<point x="1014" y="784" type="line"/>
			<point x="1021" y="1068" type="line"/>
			<point x="973" y="1068" type="line"/>
			<point x="928" y="1234"/>
			<point x="793" y="1315"/>
			<point x="568" y="1315" type="curve" smooth="yes"/>
			<point x="254" y="1315"/>
			<point x="83" y="1146"/>
			<point x="83" y="842" type="curve" smooth="yes"/>
			<point x="83" y="783"/>
			<point x="87" y="716"/>
			<point x="93" y="636" type="curve"/>
			<point x="168" y="644"/>
			<point x="246" y="651"/>
			<point x="308" y="651" type="curve" smooth="yes"/>
			<point x="440" y="651"/>
			<point x="482" y="625"/>
			<point x="482" y="563" type="curve" smooth="yes"/>
			<point x="482" y="556" type="line" smooth="yes"/>
			<point x="482" y="488"/>
			<point x="406" y="455"/>
			<point x="241" y="455" type="curve" smooth="yes"/>
			<point x="135" y="455" type="line"/>
		</contour>
		<contour>
			<point x="957" y="0" type="line"/>
			<point x="1293" y="0" type="line"/>
			<point x="1293" y="1289" type="line"/>
			<point x="983" y="1289" type="line"/>
			<point x="983" y="848" type="line"/>
			<point x="957" y="837" type="line"/>
		</contour>
		<contour>
			<point x="1158" y="1159" type="line"/>
			<point x="1158" y="699" type="line"/>
			<point x="1293" y="699" type="line"/>
			<point x="1293" y="1159" type="line"/>
		</contour>
		<contour>
			<point x="1158" y="1035" type="line"/>
			<point x="1451" y="1035" type="line"/>
			<point x="1433" y="1289" type="line"/>
			<point x="1158" y="1289" type="line"/>
		</contour>
	</outline>
</glyph>
<glyph name="Gha.bn" format="2">
  <advance width="1366"/>
  <unicode hex="0998"/>
  <anchor x="1250" y="-3" name="bottom1"/>
  <anchor x="876" y="1433" name="top"/>
  <anchor x="690" y="1777" name="top2"/>
  <outline>
    <contour>
      <point x="1250" y="-3" type="line"/>
      <point x="1250" y="1086" type="line"/>
      <point x="915" y="1086" type="line"/>
      <point x="915" y="469" type="line"/>
      <point x="932" y="216" type="line"/>
      <point x="953" y="284" type="line"/>
      <point x="425" y="449" type="line"/>
      <point x="475" y="376" type="line"/>
      <point x="475" y="520" type="line"/>
      <point x="429" y="467" type="line"/>
      <point x="764" y="568" type="line"/>
      <point x="745" y="839" type="line"/>
      <point x="137" y="636" type="line"/>
      <point x="137" y="257" type="line"/>
      <point x="961" y="-3" type="line"/>
    </contour>
    <contour>
      <point x="568" y="1041" type="curve"/>
      <point x="218" y="1140" type="line"/>
      <point x="125" y="1101"/>
      <point x="79" y="1041"/>
      <point x="79" y="945" type="curve" smooth="yes"/>
      <point x="79" y="928" type="line" smooth="yes"/>
      <point x="79" y="794"/>
      <point x="170" y="715"/>
      <point x="337" y="714" type="curve"/>
      <point x="337" y="686" type="line"/>
      <point x="745" y="839" type="line"/>
      <point x="710" y="830"/>
      <point x="646" y="820"/>
      <point x="606" y="820" type="curve" smooth="yes"/>
      <point x="504" y="820"/>
      <point x="463" y="858"/>
      <point x="463" y="927" type="curve" smooth="yes"/>
      <point x="463" y="937" type="line" smooth="yes"/>
      <point x="463" y="997"/>
      <point x="500" y="1036"/>
    </contour>
    <contour>
      <point x="-59" y="1035" type="line"/>
      <point x="1250" y="1035" type="line"/>
      <point x="1250" y="1289" type="line"/>
      <point x="-77" y="1289" type="line"/>
    </contour>
    <contour>
      <point x="1115" y="1159" type="line"/>
      <point x="1115" y="699" type="line"/>
      <point x="1250" y="699" type="line"/>
      <point x="1250" y="1159" type="line"/>
    </contour>
    <contour>
      <point x="1115" y="1035" type="line"/>
      <point x="1408" y="1035" type="line"/>
      <point x="1390" y="1289" type="line"/>
      <point x="1115" y="1289" type="line"/>
    </contour>
  </outline>
</glyph>
<glyph name="Cha.bn" format="2">
  <advance width="1351"/>
  <unicode hex="099B"/>
  <anchor x="1003" y="-1" name="bottom1"/>
  <anchor x="57" y="1438" name="top"/>
  <anchor x="304" y="1783" name="top2"/>
  <outline>
    <contour>
      <point x="192" y="296" type="line"/>
      <point x="177" y="-6" type="line"/>
      <point x="1351" y="-329" type="line"/>
      <point x="1374" y="-55" type="line"/>
      <point x="1035" y="26" type="line"/>
      <point x="834" y="74" type="line"/>
      <point x="843" y="164" type="line"/>
      <point x="474" y="108" type="line"/>
      <point x="589" y="93"/>
      <point x="704" y="84"/>
      <point x="814" y="84" type="curve" smooth="yes"/>
      <point x="1121" y="84"/>
      <point x="1276" y="236"/>
      <point x="1276" y="493" type="curve" smooth="yes"/>
      <point x="1276" y="512" type="line" smooth="yes"/>
      <point x="1276" y="780"/>
      <point x="1103" y="915"/>
      <point x="731" y="941" type="curve" smooth="yes"/>
      <point x="334" y="969" type="line"/>
      <point x="334" y="744" type="line"/>
      <point x="754" y="715" type="line" smooth="yes"/>
      <point x="876" y="707"/>
      <point x="937" y="646"/>
      <point x="937" y="526" type="curve" smooth="yes"/>
      <point x="937" y="512" type="line" smooth="yes"/>
      <point x="937" y="337"/>
      <point x="807" y="260"/>
      <point x="550" y="260" type="curve" smooth="yes"/>
      <point x="469" y="260"/>
      <point x="360" y="272"/>
      <point x="277" y="284" type="curve" smooth="yes"/>
    </contour>
    <contour>
      <point x="500" y="347" type="curve" smooth="yes"/>
      <point x="710" y="347"/>
      <point x="840" y="436"/>
      <point x="864" y="610" type="curve" smooth="yes"/>
      <point x="892" y="816" type="line"/>
      <point x="626" y="846" type="line"/>
      <point x="601" y="658" type="line" smooth="yes"/>
      <point x="593" y="596"/>
      <point x="558" y="567"/>
      <point x="501" y="567" type="curve" smooth="yes"/>
      <point x="439" y="567"/>
      <point x="407" y="599"/>
      <point x="407" y="661" type="curve" smooth="yes"/>
      <point x="408" y="1161" type="line"/>
      <point x="100" y="1161" type="line"/>
      <point x="100" y="685" type="line" smooth="yes"/>
      <point x="100" y="460"/>
      <point x="233" y="347"/>
    </contour>
    <contour>
      <point x="-63" y="1036" type="line"/>
      <point x="1417" y="1036" type="line"/>
      <point x="1399" y="1290" type="line"/>
      <point x="-81" y="1290" type="line"/>
    </contour>
  </outline>
</glyph>
<glyph name="Ttha.bn" format="2">
  <advance width="1275"/>
  <unicode hex="09A0"/>
  <anchor x="920" y="184" name="bottom1"/>
  <anchor x="692" y="1433" name="top"/>
  <anchor x="1001" y="1373" name="top2"/>
  <outline>
    <contour>
      <point x="646" y="-9" type="curve" smooth="yes"/>
      <point x="1001" y="-9"/>
      <point x="1212" y="161"/>
      <point x="1212" y="463" type="curve" smooth="yes"/>
      <point x="1212" y="481" type="line" smooth="yes"/>
      <point x="1212" y="738"/>
      <point x="1038" y="897"/>
      <point x="813" y="1066" type="curve" smooth="yes"/>
      <point x="708" y="1145" type="line"/>
      <point x="481" y="1012" type="line"/>
      <point x="645" y="866" type="line" smooth="yes"/>
      <point x="762" y="762"/>
      <point x="871" y="640"/>
      <point x="871" y="508" type="curve" smooth="yes"/>
      <point x="871" y="497" type="line" smooth="yes"/>
      <point x="871" y="362"/>
      <point x="794" y="278"/>
      <point x="640" y="278" type="curve" smooth="yes"/>
      <point x="488" y="278"/>
      <point x="409" y="342"/>
      <point x="409" y="472" type="curve" smooth="yes"/>
      <point x="409" y="502"/>
      <point x="409" y="544"/>
      <point x="409" y="584" type="curve"/>
      <point x="250" y="387" type="line"/>
      <point x="548" y="422"/>
      <point x="689" y="566"/>
      <point x="689" y="864" type="curve" smooth="yes"/>
      <point x="689" y="1117" type="line"/>
      <point x="416" y="1147" type="line"/>
      <point x="416" y="984" type="line" smooth="yes"/>
      <point x="416" y="721"/>
      <point x="320" y="627"/>
      <point x="80" y="556" type="curve"/>
      <point x="80" y="473"/>
      <point x="80" y="498"/>
      <point x="80" y="462" type="curve" smooth="yes"/>
      <point x="80" y="167"/>
      <point x="287" y="-9"/>
    </contour>
    <contour>
      <point x="-42" y="1035" type="line"/>
      <point x="1315" y="1035" type="line"/>
      <point x="1297" y="1289" type="line"/>
      <point x="-60" y="1289" type="line"/>
    </contour>
    <contour>
      <point x="426" y="1222" type="line"/>
      <point x="713" y="1246" type="line"/>
      <point x="681" y="1284" type="line" smooth="yes"/>
      <point x="563" y="1414"/>
      <point x="517" y="1520"/>
      <point x="517" y="1651" type="curve" smooth="yes"/>
      <point x="517" y="1719"/>
      <point x="533" y="1786"/>
      <point x="566" y="1857" type="curve"/>
      <point x="251" y="1857" type="line"/>
      <point x="217" y="1803"/>
      <point x="200" y="1741"/>
      <point x="200" y="1667" type="curve" smooth="yes"/>
      <point x="200" y="1533"/>
      <point x="248" y="1401"/>
      <point x="385" y="1269" type="curve" smooth="yes"/>
    </contour>
  </outline>
</glyph>
<glyph name="Nna.bn" format="2">
  <advance width="1323"/>
  <unicode hex="09A3"/>
  <anchor x="1207" y="200" name="bottom1"/>
  <anchor x="833" y="1433" name="top"/>
  <anchor x="647" y="1777" name="top2"/>
  <outline>
    <contour>
      <point x="557" y="414" type="curve" smooth="yes"/>
      <point x="599" y="414"/>
      <point x="636" y="416"/>
      <point x="667" y="421" type="curve"/>
      <point x="688" y="705" type="line"/>
      <point x="655" y="702"/>
      <point x="621" y="701"/>
      <point x="585" y="701" type="curve" smooth="yes"/>
      <point x="469" y="701"/>
      <point x="415" y="745"/>
      <point x="415" y="840" type="curve" smooth="yes"/>
      <point x="415" y="860" type="line" smooth="yes"/>
      <point x="415" y="962"/>
      <point x="474" y="1017"/>
      <point x="593" y="1017" type="curve" smooth="yes"/>
      <point x="733" y="1017"/>
      <point x="835" y="937"/>
      <point x="871" y="787" type="curve"/>
      <point x="976" y="1068" type="line"/>
      <point x="886" y="1068" type="line"/>
      <point x="842" y="1236"/>
      <point x="716" y="1318"/>
      <point x="503" y="1318" type="curve" smooth="yes"/>
      <point x="210" y="1318"/>
      <point x="66" y="1165"/>
      <point x="66" y="867" type="curve" smooth="yes"/>
      <point x="66" y="848" type="line" smooth="yes"/>
      <point x="66" y="557"/>
      <point x="228" y="414"/>
    </contour>
    <contour>
      <point x="871" y="0" type="line"/>
      <point x="1207" y="0" type="line"/>
      <point x="1207" y="1289" type="line"/>
      <point x="896" y="1289" type="line"/>
      <point x="896" y="979" type="line"/>
      <point x="871" y="969" type="line"/>
    </contour>
    <contour>
      <point x="1072" y="1159" type="line"/>
      <point x="1072" y="699" type="line"/>
      <point x="1207" y="699" type="line"/>
      <point x="1207" y="1159" type="line"/>
    </contour>
    <contour>
      <point x="1072" y="1035" type="line"/>
      <point x="1365" y="1035" type="line"/>
      <point x="1347" y="1289" type="line"/>
      <point x="1072" y="1289" type="line"/>
    </contour>
  </outline>
</glyph>
<glyph name="Da.bn" format="2">
  <advance width="1313"/>
  <unicode hex="09A6"/>
  <note>
Da.bn
</note>
  <anchor x="1199" y="0" name="bottom1"/>
  <anchor x="88" y="1438" name="top"/>
  <anchor x="270" y="1782" name="top2"/>
  <outline>
    <contour>
      <point x="-50" y="1035" type="line"/>
      <point x="1370" y="1035" type="line"/>
      <point x="1352" y="1289" type="line"/>
      <point x="-68" y="1289" type="line"/>
    </contour>
    <contour>
      <point x="863" y="-58" type="line"/>
      <point x="1199" y="-58" type="line"/>
      <point x="1199" y="876" type="line"/>
      <point x="841" y="876" type="line"/>
      <point x="639" y="737"/>
      <point x="446" y="569"/>
      <point x="306" y="422" type="curve"/>
      <point x="428" y="311" type="line"/>
      <point x="456" y="797" type="line"/>
      <point x="456" y="1214" type="line"/>
      <point x="120" y="1214" type="line"/>
      <point x="120" y="186" type="line"/>
      <point x="442" y="186" type="line"/>
      <point x="629" y="365"/>
      <point x="881" y="557"/>
      <point x="1071" y="695" type="curve"/>
      <point x="888" y="801" type="line"/>
      <point x="863" y="370" type="line"/>
    </contour>
  </outline>
</glyph>
<glyph name="Dha.bn" format="2">
	<advance width="1321"/>
	<unicode hex="09A7"/>
	<anchor x="1205" y="-3" name="bottom1"/>
	<anchor x="831" y="1433" name="top"/>
	<anchor x="645" y="1777" name="top2"/>
	<outline>
		<contour>
			<point x="914" y="-3" type="line"/>
			<point x="1205" y="-3" type="line"/>
			<point x="1205" y="1289" type="line"/>
			<point x="870" y="1289" type="line"/>
			<point x="870" y="469" type="line"/>
			<point x="884" y="215" type="line"/>
			<point x="899" y="287" type="line"/>
			<point x="380" y="454" type="line"/>
			<point x="447" y="355" type="line"/>
			<point x="447" y="586" type="line"/>
			<point x="378" y="476" type="line"/>
			<point x="583" y="548"/>
			<point x="800" y="612"/>
			<point x="1018" y="667" type="curve"/>
			<point x="981" y="943" type="line"/>
			<point x="664" y="864"/>
			<point x="371" y="776"/>
			<point x="111" y="683" type="curve"/>
			<point x="111" y="257" type="line"/>
		</contour>
		<contour>
			<point x="319" y="765" type="curve"/>
			<point x="319" y="740" type="line"/>
			<point x="636" y="837" type="line"/>
			<point x="608" y="833"/>
			<point x="579" y="831"/>
			<point x="555" y="831" type="curve" smooth="yes"/>
			<point x="484" y="831"/>
			<point x="438" y="864"/>
			<point x="438" y="927" type="curve" smooth="yes"/>
			<point x="438" y="939" type="line" smooth="yes"/>
			<point x="438" y="1009"/>
			<point x="476" y="1045"/>
			<point x="565" y="1045" type="curve" smooth="yes"/>
			<point x="610" y="1045"/>
			<point x="647" y="1037"/>
			<point x="678" y="1029" type="curve"/>
			<point x="678" y="1284" type="line"/>
			<point x="635" y="1302"/>
			<point x="547" y="1320"/>
			<point x="453" y="1320" type="curve" smooth="yes"/>
			<point x="206" y="1320"/>
			<point x="73" y="1217"/>
			<point x="73" y="1019" type="curve" smooth="yes"/>
			<point x="73" y="1007" type="line" smooth="yes"/>
			<point x="73" y="857"/>
			<point x="172" y="773"/>
		</contour>
		<contour>
			<point x="1070" y="1159" type="line"/>
			<point x="1070" y="699" type="line"/>
			<point x="1205" y="699" type="line"/>
			<point x="1205" y="1159" type="line"/>
		</contour>
		<contour>
			<point x="1070" y="1035" type="line"/>
			<point x="1363" y="1035" type="line"/>
			<point x="1345" y="1289" type="line"/>
			<point x="1070" y="1289" type="line"/>
		</contour>
	</outline>
</glyph>
<glyph name="Na.bn" format="2">
  <advance width="1280"/>
  <unicode hex="09A8"/>
  <anchor x="1164" y="200" name="bottom1"/>
  <anchor x="790" y="1433" name="top"/>
  <anchor x="604" y="1777" name="top2"/>
  <outline>
    <contour>
      <point x="828" y="0" type="line"/>
      <point x="1164" y="0" type="line"/>
      <point x="1164" y="1158" type="line"/>
      <point x="828" y="1158" type="line"/>
      <point x="828" y="851" type="line"/>
      <point x="837" y="639" type="line"/>
      <point x="828" y="491" type="line"/>
    </contour>
    <contour>
      <point x="-62" y="1035" type="line"/>
      <point x="1139" y="1035" type="line"/>
      <point x="1122" y="1289" type="line"/>
      <point x="-80" y="1289" type="line"/>
    </contour>
    <contour>
      <point x="81" y="266" type="curve"/>
      <point x="424" y="266" type="line"/>
      <point x="415" y="310"/>
      <point x="409" y="355"/>
      <point x="409" y="408" type="curve" smooth="yes"/>
      <point x="409" y="512"/>
      <point x="455" y="564"/>
      <point x="549" y="564" type="curve" smooth="yes"/>
      <point x="659" y="564"/>
      <point x="760" y="474"/>
      <point x="832" y="305" type="curve"/>
      <point x="855" y="657" type="line"/>
      <point x="825" y="657" type="line"/>
      <point x="781" y="767"/>
      <point x="676" y="873"/>
      <point x="462" y="873" type="curve" smooth="yes"/>
      <point x="201" y="873"/>
      <point x="63" y="719"/>
      <point x="63" y="451" type="curve" smooth="yes"/>
      <point x="63" y="385"/>
      <point x="67" y="322"/>
    </contour>
    <contour>
      <point x="1029" y="1159" type="line"/>
      <point x="1029" y="699" type="line"/>
      <point x="1164" y="699" type="line"/>
      <point x="1164" y="1159" type="line"/>
    </contour>
    <contour>
      <point x="1029" y="1035" type="line"/>
      <point x="1322" y="1035" type="line"/>
      <point x="1304" y="1289" type="line"/>
      <point x="1029" y="1289" type="line"/>
    </contour>
  </outline>
</glyph>
<glyph name="Pa.bn" format="2">
	<advance width="1386"/>
	<unicode hex="09AA"/>
	<anchor x="1270" y="200" name="bottom1"/>
	<anchor x="896" y="1433" name="top"/>
	<anchor x="710" y="1777" name="top2"/>
	<outline>
		<contour>
			<point x="73" y="854" type="curve" smooth="yes"/>
			<point x="73" y="745" type="line"/>
			<point x="434" y="519" type="line"/>
			<point x="678" y="680" type="line"/>
			<point x="394" y="858" type="line"/>
			<point x="432" y="765" type="line"/>
			<point x="432" y="839" type="line" smooth="yes"/>
			<point x="432" y="957"/>
			<point x="505" y="1024"/>
			<point x="652" y="1024" type="curve" smooth="yes"/>
			<point x="781" y="1024"/>
			<point x="873" y="969"/>
			<point x="930" y="856" type="curve"/>
			<point x="934" y="729" type="line"/>
			<point x="993" y="769" type="line"/>
			<point x="998" y="1068" type="line"/>
			<point x="950" y="1068" type="line"/>
			<point x="907" y="1234"/>
			<point x="774" y="1315"/>
			<point x="548" y="1315" type="curve" smooth="yes"/>
			<point x="236" y="1315"/>
			<point x="73" y="1149"/>
		</contour>
		<contour>
			<point x="349" y="222" type="line"/>
			<point x="1066" y="627" type="line"/>
			<point x="939" y="895" type="line"/>
			<point x="126" y="412" type="line"/>
		</contour>
		<contour>
			<point x="934" y="0" type="line"/>
			<point x="1270" y="0" type="line"/>
			<point x="1270" y="1289" type="line"/>
			<point x="960" y="1289" type="line"/>
			<point x="960" y="977" type="line"/>
			<point x="934" y="977" type="line"/>
		</contour>
		<contour>
			<point x="1135" y="1159" type="line"/>
			<point x="1135" y="699" type="line"/>
			<point x="1270" y="699" type="line"/>
			<point x="1270" y="1159" type="line"/>
		</contour>
		<contour>
			<point x="1135" y="1035" type="line"/>
			<point x="1428" y="1035" type="line"/>
			<point x="1410" y="1289" type="line"/>
			<point x="1135" y="1289" type="line"/>
		</contour>
	</outline>
</glyph>
<glyph name="Pha.bn" format="2">
	<advance width="1862"/>
	<unicode hex="09AB"/>
	<anchor x="1239" y="-3" name="bottom1"/>
	<anchor x="855" y="1433" name="top"/>
	<anchor x="633" y="1777" name="top2"/>
	<outline>
		<contour>
			<point x="-64" y="1035" type="line"/>
			<point x="1909" y="1035" type="line"/>
			<point x="1891" y="1289" type="line"/>
			<point x="-82" y="1289" type="line"/>
		</contour>
		<contour>
			<point x="953" y="-3" type="line"/>
			<point x="1238" y="-3" type="line"/>
			<point x="1238" y="919" type="line"/>
			<point x="909" y="919" type="line"/>
			<point x="909" y="469" type="line"/>
			<point x="923" y="215" type="line"/>
			<point x="944" y="275" type="line"/>
			<point x="413" y="429" type="line"/>
			<point x="456" y="326" type="line"/>
			<point x="456" y="535" type="line"/>
			<point x="407" y="444" type="line"/>
			<point x="750" y="566" type="line"/>
			<point x="750" y="830" type="line"/>
			<point x="558" y="970"/>
			<point x="371" y="1078"/>
			<point x="190" y="1174" type="curve"/>
			<point x="67" y="1161" type="line"/>
			<point x="67" y="853" type="line"/>
			<point x="441" y="740" type="line"/>
			<point x="441" y="719" type="line"/>
			<point x="126" y="614" type="line"/>
			<point x="126" y="236" type="line"/>
		</contour>
		<contour>
			<point x="1325" y="471" type="curve"/>
			<point x="1342" y="210" type="line"/>
			<point x="1362" y="210"/>
			<point x="1381" y="210"/>
			<point x="1400" y="210" type="curve" smooth="yes"/>
			<point x="1682" y="210"/>
			<point x="1811" y="320"/>
			<point x="1811" y="555" type="curve" smooth="yes"/>
			<point x="1811" y="580" type="line" smooth="yes"/>
			<point x="1811" y="796"/>
			<point x="1653" y="919"/>
			<point x="1362" y="919" type="curve" smooth="yes"/>
			<point x="1079" y="919" type="line"/>
			<point x="1079" y="662" type="line"/>
			<point x="1372" y="662" type="line" smooth="yes"/>
			<point x="1446" y="662"/>
			<point x="1482" y="633"/>
			<point x="1482" y="576" type="curve" smooth="yes"/>
			<point x="1482" y="559" type="line" smooth="yes"/>
			<point x="1482" y="500"/>
			<point x="1447" y="471"/>
			<point x="1374" y="471" type="curve" smooth="yes"/>
			<point x="1358" y="471"/>
			<point x="1341" y="471"/>
		</contour>
	</outline>
</glyph>
<glyph name="Ba.bn" format="2">
	<advance width="1254"/>
	<unicode hex="09AC"/>
	<anchor x="1137" y="-3" name="bottom1"/>
	<anchor x="764" y="1433" name="top"/>
	<anchor x="577" y="1777" name="top2"/>
	<note>
		Ba.bn
	</note>
	<outline>
		<contour>
			<point x="-15" y="1035" type="line"/>
			<point x="1138" y="1035" type="line"/>
			<point x="1138" y="1289" type="line"/>
			<point x="-33" y="1289" type="line"/>
		</contour>
		<contour>
			<point x="848" y="-3" type="line"/>
			<point x="1138" y="-3" type="line"/>
			<point x="1138" y="1089" type="line"/>
			<point x="808" y="1089" type="line"/>
			<point x="808" y="902" type="line"/>
			<point x="803" y="820" type="line"/>
			<point x="803" y="469" type="line"/>
			<point x="819" y="216" type="line"/>
			<point x="837" y="293" type="line"/>
			<point x="298" y="509" type="line"/>
			<point x="427" y="331" type="line"/>
			<point x="427" y="686" type="line"/>
			<point x="297" y="520" type="line"/>
			<point x="511" y="620"/>
			<point x="772" y="684"/>
			<point x="1012" y="725" type="curve"/>
			<point x="966" y="1016" type="line"/>
			<point x="663" y="957"/>
			<point x="358" y="865"/>
			<point x="91" y="760" type="curve"/>
			<point x="91" y="301" type="line"/>
		</contour>
		<contour>
			<point x="1003" y="1159" type="line"/>
			<point x="1003" y="699" type="line"/>
			<point x="1138" y="699" type="line"/>
			<point x="1138" y="1159" type="line"/>
		</contour>
		<contour>
			<point x="1003" y="1035" type="line"/>
			<point x="1296" y="1035" type="line"/>
			<point x="1278" y="1289" type="line"/>
			<point x="1003" y="1289" type="line"/>
		</contour>
	</outline>
</glyph>
<glyph name="Bha.bn" format="2">
  <advance width="1507"/>
  <unicode hex="09AD"/>
  <anchor x="1049" y="186" name="bottom1"/>
  <anchor x="595" y="1441" name="top"/>
  <anchor x="393" y="1782" name="top2"/>
  <outline>
    <contour>
      <point x="805" y="0" type="curve" smooth="yes"/>
      <point x="1218" y="0"/>
      <point x="1447" y="185"/>
      <point x="1447" y="516" type="curve" smooth="yes"/>
      <point x="1447" y="608"/>
      <point x="1440" y="693"/>
      <point x="1414" y="854" type="curve"/>
      <point x="1131" y="886" type="line"/>
      <point x="1091" y="794"/>
      <point x="1024" y="704"/>
      <point x="919" y="704" type="curve" smooth="yes"/>
      <point x="868" y="704"/>
      <point x="846" y="724"/>
      <point x="846" y="771" type="curve" smooth="yes"/>
      <point x="846" y="778" type="line" smooth="yes"/>
      <point x="846" y="828"/>
      <point x="879" y="851"/>
      <point x="941" y="851" type="curve" smooth="yes"/>
      <point x="957" y="851"/>
      <point x="975" y="851"/>
      <point x="992" y="849" type="curve"/>
      <point x="960" y="1109" type="line"/>
      <point x="942" y="1110"/>
      <point x="925" y="1110"/>
      <point x="909" y="1110" type="curve" smooth="yes"/>
      <point x="654" y="1110"/>
      <point x="514" y="999"/>
      <point x="514" y="782" type="curve" smooth="yes"/>
      <point x="514" y="763" type="line" smooth="yes"/>
      <point x="514" y="559"/>
      <point x="629" y="443"/>
      <point x="848" y="443" type="curve" smooth="yes"/>
      <point x="1065" y="443"/>
      <point x="1201" y="541"/>
      <point x="1261" y="749" type="curve"/>
      <point x="1092" y="685" type="line"/>
      <point x="1102" y="632"/>
      <point x="1109" y="585"/>
      <point x="1109" y="524" type="curve" smooth="yes"/>
      <point x="1109" y="366"/>
      <point x="989" y="288"/>
      <point x="796" y="288" type="curve" smooth="yes"/>
      <point x="543" y="288"/>
      <point x="424" y="399"/>
      <point x="408" y="644" type="curve" smooth="yes"/>
      <point x="392" y="887" type="line"/>
      <point x="62" y="887" type="line"/>
      <point x="76" y="630" type="line" smooth="yes"/>
      <point x="100" y="214"/>
      <point x="344" y="0"/>
    </contour>
    <contour>
      <point x="-58" y="1035" type="line"/>
      <point x="1593" y="1035" type="line"/>
      <point x="1575" y="1289" type="line"/>
      <point x="-76" y="1289" type="line"/>
    </contour>
  </outline>
</glyph>
<glyph name="Ya.bn" format="2">
	<advance width="1359"/>
	<unicode hex="09AF"/>
	<anchor x="1243" y="-3" name="bottom1"/>
	<anchor x="869" y="1433" name="top"/>
	<anchor x="683" y="1777" name="top2"/>
	<note>
		Ya.bn
	</note>
	<outline>
		<contour>
			<point x="953" y="-3" type="line"/>
			<point x="1243" y="-3" type="line"/>
			<point x="1243" y="1196" type="line"/>
			<point x="909" y="1196" type="line"/>
			<point x="909" y="469" type="line"/>
			<point x="923" y="215" type="line"/>
			<point x="944" y="275" type="line"/>
			<point x="413" y="429" type="line"/>
			<point x="456" y="326" type="line"/>
			<point x="456" y="535" type="line"/>
			<point x="407" y="444" type="line"/>
			<point x="750" y="566" type="line"/>
			<point x="750" y="830" type="line"/>
			<point x="558" y="970"/>
			<point x="371" y="1078"/>
			<point x="190" y="1174" type="curve"/>
			<point x="67" y="1161" type="line"/>
			<point x="67" y="853" type="line"/>
			<point x="441" y="740" type="line"/>
			<point x="441" y="719" type="line"/>
			<point x="126" y="614" type="line"/>
			<point x="126" y="236" type="line"/>
		</contour>
		<contour>
			<point x="-64" y="1035" type="line"/>
			<point x="1180" y="1035" type="line"/>
			<point x="1180" y="1289" type="line"/>
			<point x="-82" y="1289" type="line"/>
		</contour>
		<contour>
			<point x="1108" y="1159" type="line"/>
			<point x="1108" y="699" type="line"/>
			<point x="1243" y="699" type="line"/>
			<point x="1243" y="1159" type="line"/>
		</contour>
		<contour>
			<point x="1108" y="1035" type="line"/>
			<point x="1401" y="1035" type="line"/>
			<point x="1383" y="1289" type="line"/>
			<point x="1108" y="1289" type="line"/>
		</contour>
	</outline>
</glyph>
<glyph name="Sha.bn" format="2">
	<advance width="1593"/>
	<unicode hex="09B6"/>
	<anchor x="1477" y="200" name="bottom1"/>
	<anchor x="1103" y="1433" name="top"/>
	<anchor x="917" y="1777" name="top2"/>
	<outline>
		<contour>
			<point x="1141" y="0" type="line"/>
			<point x="1477" y="0" type="line"/>
			<point x="1477" y="1289" type="line"/>
			<point x="1166" y="1289" type="line"/>
			<point x="1166" y="953" type="line"/>
			<point x="1141" y="953" type="line"/>
		</contour>
		<contour>
			<point x="539" y="597" type="curve"/>
			<point x="547" y="597" type="line"/>
			<point x="602" y="475"/>
			<point x="717" y="414"/>
			<point x="902" y="414" type="curve" smooth="yes"/>
			<point x="941" y="414"/>
			<point x="973" y="416"/>
			<point x="1000" y="420" type="curve"/>
			<point x="1019" y="726" type="line"/>
			<point x="984" y="722"/>
			<point x="951" y="719"/>
			<point x="914" y="719" type="curve" smooth="yes"/>
			<point x="808" y="719"/>
			<point x="756" y="764"/>
			<point x="756" y="863" type="curve" smooth="yes"/>
			<point x="756" y="876" type="line" smooth="yes"/>
			<point x="756" y="981"/>
			<point x="808" y="1025"/>
			<point x="917" y="1025" type="curve" smooth="yes"/>
			<point x="1042" y="1025"/>
			<point x="1119" y="956"/>
			<point x="1152" y="816" type="curve"/>
			<point x="1293" y="1103" type="line"/>
			<point x="1156" y="1103" type="line"/>
			<point x="1115" y="1244"/>
			<point x="1016" y="1313"/>
			<point x="856" y="1313" type="curve" smooth="yes"/>
			<point x="691" y="1313"/>
			<point x="588" y="1247"/>
			<point x="546" y="1113" type="curve"/>
			<point x="538" y="1113" type="line"/>
			<point x="489" y="1236"/>
			<point x="371" y="1289"/>
			<point x="180" y="1289" type="curve" smooth="yes"/>
			<point x="-70" y="1289" type="line"/>
			<point x="-53" y="1035" type="line"/>
			<point x="184" y="1035" type="line" smooth="yes"/>
			<point x="291" y="1035"/>
			<point x="343" y="989"/>
			<point x="343" y="881" type="curve" smooth="yes"/>
			<point x="343" y="863" type="line" smooth="yes"/>
			<point x="343" y="764"/>
			<point x="292" y="719"/>
			<point x="189" y="719" type="curve" smooth="yes"/>
			<point x="142" y="719"/>
			<point x="109" y="722"/>
			<point x="65" y="726" type="curve"/>
			<point x="84" y="420" type="line"/>
			<point x="116" y="416"/>
			<point x="153" y="414"/>
			<point x="199" y="414" type="curve" smooth="yes"/>
			<point x="391" y="414"/>
			<point x="498" y="470"/>
		</contour>
		<contour>
			<point x="1342" y="1159" type="line"/>
			<point x="1342" y="699" type="line"/>
			<point x="1477" y="699" type="line"/>
			<point x="1477" y="1159" type="line"/>
		</contour>
		<contour>
			<point x="1342" y="1035" type="line"/>
			<point x="1635" y="1035" type="line"/>
			<point x="1617" y="1289" type="line"/>
			<point x="1342" y="1289" type="line"/>
		</contour>
	</outline>
</glyph>
<glyph name="Ha.bn" format="2">
	<advance width="1177"/>
	<unicode hex="09B9"/>
	<anchor x="883" y="101" name="bottom1"/>
	<anchor x="331" y="1437" name="top"/>
	<anchor x="201" y="1782" name="top2"/>
	<note>
		Ha.bn
	</note>
	<outline>
		<contour>
			<point x="1136" y="-216" type="line"/>
			<point x="1159" y="74" type="line"/>
			<point x="877" y="164" type="line"/>
			<point x="733" y="209" type="line"/>
			<point x="745" y="293" type="line"/>
			<point x="518" y="253" type="line"/>
			<point x="579" y="230"/>
			<point x="641" y="219"/>
			<point x="693" y="219" type="curve" smooth="yes"/>
			<point x="957" y="219"/>
			<point x="1095" y="351"/>
			<point x="1095" y="584" type="curve" smooth="yes"/>
			<point x="1095" y="633" type="line" smooth="yes"/>
			<point x="1095" y="909"/>
			<point x="915" y="1049"/>
			<point x="597" y="1049" type="curve" smooth="yes"/>
			<point x="278" y="1049"/>
			<point x="112" y="914"/>
			<point x="112" y="645" type="curve" smooth="yes"/>
			<point x="112" y="617"/>
			<point x="112" y="583"/>
			<point x="112" y="549" type="curve"/>
			<point x="451" y="549" type="line"/>
			<point x="451" y="583"/>
			<point x="451" y="617"/>
			<point x="451" y="637" type="curve" smooth="yes"/>
			<point x="451" y="732"/>
			<point x="505" y="789"/>
			<point x="600" y="790" type="curve" smooth="yes"/>
			<point x="700" y="792"/>
			<point x="755" y="731"/>
			<point x="755" y="634" type="curve" smooth="yes"/>
			<point x="755" y="588" type="line" smooth="yes"/>
			<point x="755" y="459"/>
			<point x="666" y="397"/>
			<point x="475" y="397" type="curve" smooth="yes"/>
			<point x="374" y="397"/>
			<point x="267" y="408"/>
			<point x="148" y="426" type="curve" smooth="yes"/>
			<point x="108" y="432" type="line"/>
			<point x="90" y="141" type="line"/>
		</contour>
		<contour>
			<point x="-23" y="1035" type="line"/>
			<point x="1228" y="1035" type="line"/>
			<point x="1211" y="1289" type="line"/>
			<point x="-41" y="1289" type="line"/>
		</contour>
	</outline>
</glyph>
<glyph name="Nukta.bn" format="2">
	<advance width="0"/>
	<unicode hex="09BC"/>
	<outline>
		<contour>
			<point x="-357" y="-389" type="curve" smooth="yes"/>
			<point x="-240" y="-389"/>
			<point x="-180" y="-322"/>
			<point x="-180" y="-216" type="curve" smooth="yes"/>
			<point x="-180" y="-209" type="line" smooth="yes"/>
			<point x="-180" y="-103"/>
			<point x="-239" y="-35"/>
			<point x="-357" y="-35" type="curve" smooth="yes"/>
			<point x="-475" y="-35"/>
			<point x="-536" y="-102"/>
			<point x="-536" y="-209" type="curve" smooth="yes"/>
			<point x="-536" y="-216" type="line" smooth="yes"/>
			<point x="-536" y="-322"/>
			<point x="-475" y="-389"/>
		</contour>
	</outline>
</glyph>
<glyph name="Avagraha.bn" format="2">
  <advance width="1183"/>
  <unicode hex="09BD"/>
  <outline>
    <contour>
      <point x="234" y="895" type="line"/>
      <point x="543" y="895" type="line"/>
      <point x="543" y="939" type="line" smooth="yes"/>
      <point x="543" y="1174"/>
      <point x="402" y="1289"/>
      <point x="111" y="1289" type="curve" smooth="yes"/>
      <point x="-41" y="1289" type="line"/>
      <point x="-23" y="1035" type="line"/>
      <point x="117" y="1035" type="line" smooth="yes"/>
      <point x="196" y="1035"/>
      <point x="234" y="1001"/>
      <point x="234" y="934" type="curve" smooth="yes"/>
    </contour>
    <contour>
      <point x="1135" y="-196" type="line"/>
      <point x="1158" y="101" type="line"/>
      <point x="876" y="191" type="line"/>
      <point x="732" y="229" type="line"/>
      <point x="744" y="313" type="line"/>
      <point x="517" y="273" type="line"/>
      <point x="578" y="250"/>
      <point x="640" y="239"/>
      <point x="692" y="239" type="curve" smooth="yes"/>
      <point x="956" y="239"/>
      <point x="1094" y="371"/>
      <point x="1094" y="604" type="curve" smooth="yes"/>
      <point x="1094" y="653" type="line" smooth="yes"/>
      <point x="1094" y="934"/>
      <point x="914" y="1077"/>
      <point x="596" y="1077" type="curve" smooth="yes"/>
      <point x="277" y="1077"/>
      <point x="111" y="939"/>
      <point x="111" y="665" type="curve" smooth="yes"/>
      <point x="111" y="637"/>
      <point x="111" y="603"/>
      <point x="111" y="569" type="curve"/>
      <point x="450" y="569" type="line"/>
      <point x="450" y="595"/>
      <point x="450" y="621"/>
      <point x="450" y="636" type="curve" smooth="yes"/>
      <point x="450" y="731"/>
      <point x="504" y="788"/>
      <point x="599" y="789" type="curve" smooth="yes"/>
      <point x="699" y="791"/>
      <point x="754" y="730"/>
      <point x="754" y="633" type="curve" smooth="yes"/>
      <point x="754" y="608" type="line" smooth="yes"/>
      <point x="754" y="479"/>
      <point x="665" y="417"/>
      <point x="474" y="417" type="curve" smooth="yes"/>
      <point x="373" y="417"/>
      <point x="266" y="428"/>
      <point x="147" y="446" type="curve" smooth="yes"/>
      <point x="107" y="452" type="line"/>
      <point x="89" y="161" type="line"/>
    </contour>
  </outline>
</glyph>
<glyph name="SignAa.bn" format="2">
	<advance width="574"/>
	<unicode hex="09BE"/>
	<anchor x="84" y="1433" name="top"/>
	<anchor x="-102" y="1777" name="top2"/>
	<outline>
		<contour>
			<point x="122" y="0" type="line"/>
			<point x="458" y="0" type="line"/>
			<point x="458" y="1105" type="line"/>
			<point x="122" y="1105" type="line"/>
		</contour>
		<contour>
			<point x="-19" y="1035" type="line"/>
			<point x="438" y="1035" type="line"/>
			<point x="438" y="1289" type="line"/>
			<point x="-36" y="1289" type="line"/>
		</contour>
		<contour>
			<point x="323" y="1159" type="line"/>
			<point x="323" y="699" type="line"/>
			<point x="458" y="699" type="line"/>
			<point x="458" y="1159" type="line"/>
		</contour>
		<contour>
			<point x="323" y="1035" type="line"/>
			<point x="616" y="1035" type="line"/>
			<point x="598" y="1289" type="line"/>
			<point x="323" y="1289" type="line"/>
		</contour>
	</outline>
</glyph>
<glyph name="SignIi.bn" format="2">
	<advance width="574"/>
	<unicode hex="09C0"/>
	<anchor x="84" y="1433" name="top"/>
	<anchor x="450" y="1560" name="top2"/>
	<outline>
		<contour>
			<point x="-511" y="1346" type="curve" smooth="yes"/>
			<point x="-112" y="1346" type="line"/>
			<point x="-130" y="1566" type="line"/>
			<point x="-514" y="1566" type="line" smooth="yes"/>
			<point x="-579" y="1566"/>
			<point x="-602" y="1583"/>
			<point x="-602" y="1617" type="curve" smooth="yes"/>
			<point x="-602" y="1661"/>
			<point x="-549" y="1687"/>
			<point x="-411" y="1687" type="curve" smooth="yes"/>
			<point x="-30" y="1687"/>
			<point x="129" y="1523"/>
			<point x="129" y="1239" type="curve" smooth="yes"/>
			<point x="129" y="1011" type="line"/>
			<point x="454" y="1034" type="line"/>
			<point x="454" y="1224" type="line" smooth="yes"/>
			<point x="454" y="1661"/>
			<point x="139" y="1944"/>
			<point x="-428" y="1944" type="curve" smooth="yes"/>
			<point x="-739" y="1944"/>
			<point x="-920" y="1818"/>
			<point x="-920" y="1621" type="curve" smooth="yes"/>
			<point x="-920" y="1426"/>
			<point x="-777" y="1346"/>
		</contour>
		<contour>
			<point x="122" y="0" type="line"/>
			<point x="458" y="0" type="line"/>
			<point x="458" y="1105" type="line"/>
			<point x="122" y="1105" type="line"/>
		</contour>
		<contour>
			<point x="-19" y="1035" type="line"/>
			<point x="438" y="1035" type="line"/>
			<point x="438" y="1289" type="line"/>
			<point x="-36" y="1289" type="line"/>
		</contour>
		<contour>
			<point x="323" y="1159" type="line"/>
			<point x="323" y="699" type="line"/>
			<point x="458" y="699" type="line"/>
			<point x="458" y="1159" type="line"/>
		</contour>
		<contour>
			<point x="323" y="1035" type="line"/>
			<point x="616" y="1035" type="line"/>
			<point x="598" y="1289" type="line"/>
			<point x="323" y="1289" type="line"/>
		</contour>
	</outline>
</glyph>
<glyph name="SignU.bn" format="2">
	<advance width="0"/>
	<unicode hex="09C1"/>
	<anchor x="-564" y="-2" name="_bottom1"/>
	<outline>
		<contour>
			<point x="-876" y="-203" type="line"/>
			<point x="-564" y="-258" type="line"/>
			<point x="-564" y="56" type="line"/>
			<point x="-876" y="56" type="line"/>
		</contour>
		<contour>
			<point x="-246" y="-675" type="curve"/>
			<point x="-222" y="-402" type="line"/>
			<point x="-436" y="-207"/>
			<point x="-679" y="-82"/>
			<point x="-963" y="-82" type="curve" smooth="yes"/>
			<point x="-1230" y="-82"/>
			<point x="-1384" y="-181"/>
			<point x="-1384" y="-365" type="curve" smooth="yes"/>
			<point x="-1384" y="-542"/>
			<point x="-1249" y="-641"/>
			<point x="-1013" y="-641" type="curve" smooth="yes"/>
			<point x="-746" y="-641"/>
			<point x="-608" y="-522"/>
			<point x="-607" y="-339" type="curve" smooth="yes"/>
			<point x="-607" y="-255" type="line"/>
			<point x="-877" y="-205" type="line"/>
			<point x="-877" y="-305" type="line" smooth="yes"/>
			<point x="-877" y="-386"/>
			<point x="-908" y="-426"/>
			<point x="-1010" y="-426" type="curve" smooth="yes"/>
			<point x="-1059" y="-426"/>
			<point x="-1086" y="-405"/>
			<point x="-1086" y="-367" type="curve" smooth="yes"/>
			<point x="-1086" y="-328"/>
			<point x="-1046" y="-305"/>
			<point x="-951" y="-305" type="curve" smooth="yes"/>
			<point x="-754" y="-305"/>
			<point x="-523" y="-427"/>
		</contour>
	</outline>
</glyph>
<glyph name="SignUu.bn" format="2">
	<advance width="0"/>
	<unicode hex="09C2"/>
	<anchor x="445" y="0" name="_bottom1"/>
	<outline>
		<contour>
			<point x="445" y="-311" type="line"/>
			<point x="445" y="56" type="line"/>
			<point x="133" y="56" type="line"/>
			<point x="133" y="-223" type="line"/>
		</contour>
		<contour>
			<point x="782" y="-788" type="line"/>
			<point x="804" y="-528" type="line"/>
			<point x="430" y="-365" type="line"/>
			<point x="352" y="-405"/>
			<point x="265" y="-429"/>
			<point x="181" y="-429" type="curve" smooth="yes"/>
			<point x="93" y="-429"/>
			<point x="48" y="-414"/>
			<point x="48" y="-374" type="curve" smooth="yes"/>
			<point x="48" y="-331"/>
			<point x="80" y="-311"/>
			<point x="167" y="-311" type="curve" smooth="yes"/>
			<point x="220" y="-311"/>
			<point x="389" y="-311"/>
			<point x="445" y="-311" type="curve"/>
			<point x="313" y="-110" type="line"/>
			<point x="267" y="-91"/>
			<point x="170" y="-82"/>
			<point x="113" y="-82" type="curve" smooth="yes"/>
			<point x="-140" y="-82"/>
			<point x="-278" y="-184"/>
			<point x="-278" y="-364" type="curve" smooth="yes"/>
			<point x="-278" y="-551"/>
			<point x="-127" y="-663"/>
			<point x="162" y="-663" type="curve" smooth="yes"/>
			<point x="289" y="-663"/>
			<point x="410" y="-620"/>
			<point x="494" y="-560" type="curve"/>
			<point x="312" y="-554" type="line"/>
		</contour>
	</outline>
</glyph>
<glyph name="SignRu.bn" format="2">
	<advance width="0"/>
	<unicode hex="09C3"/>
	<anchor x="-115" y="0" name="_bottom1"/>
	<outline>
		<contour>
			<point x="-115" y="-249" type="line"/>
			<point x="-115" y="56" type="line"/>
			<point x="-427" y="56" type="line"/>
			<point x="-427" y="-153" type="line"/>
		</contour>
		<contour>
			<point x="-21" y="-756" type="line"/>
			<point x="1" y="-495" type="line"/>
			<point x="-454" y="-362" type="line"/>
			<point x="-454" y="-353" type="line"/>
			<point x="-356" y="-320"/>
			<point x="-214" y="-277"/>
			<point x="-115" y="-249" type="curve"/>
			<point x="-228" y="5" type="line"/>
			<point x="-445" y="-66"/>
			<point x="-697" y="-157"/>
			<point x="-840" y="-220" type="curve"/>
			<point x="-840" y="-483" type="line"/>
		</contour>
	</outline>
</glyph>
<glyph name="SignRuu.bn" format="2">
	<advance width="0"/>
	<unicode hex="09C4"/>
	<anchor x="-115" y="184" name="_bottom1"/>
	<outline>
		<contour>
			<point x="-155" y="-654" type="curve"/>
			<point x="-459" y="-472" type="line"/>
			<point x="-605" y="-521"/>
			<point x="-746" y="-573"/>
			<point x="-840" y="-613" type="curve"/>
			<point x="-840" y="-876" type="line"/>
			<point x="-21" y="-1149" type="line"/>
			<point x="1" y="-888" type="line"/>
			<point x="-454" y="-755" type="line"/>
			<point x="-454" y="-746" type="line"/>
			<point x="-369" y="-718"/>
			<point x="-250" y="-681"/>
		</contour>
		<contour>
			<point x="-115" y="-249" type="line"/>
			<point x="-115" y="56" type="line"/>
			<point x="-427" y="56" type="line"/>
			<point x="-427" y="-153" type="line"/>
		</contour>
		<contour>
			<point x="-21" y="-756" type="line"/>
			<point x="1" y="-495" type="line"/>
			<point x="-454" y="-362" type="line"/>
			<point x="-454" y="-353" type="line"/>
			<point x="-356" y="-320"/>
			<point x="-214" y="-277"/>
			<point x="-115" y="-249" type="curve"/>
			<point x="-228" y="5" type="line"/>
			<point x="-445" y="-66"/>
			<point x="-697" y="-157"/>
			<point x="-840" y="-220" type="curve"/>
			<point x="-840" y="-483" type="line"/>
		</contour>
	</outline>
</glyph>
<glyph name="SignE.bn" format="2">
	<advance width="678"/>
	<unicode hex="09C7"/>
	<outline>
		<contour>
			<point x="706" y="1053" type="curve"/>
			<point x="514" y="1183" type="line"/>
			<point x="222" y="1096"/>
			<point x="76" y="916"/>
			<point x="76" y="598" type="curve" smooth="yes"/>
			<point x="76" y="523" type="line" smooth="yes"/>
			<point x="76" y="222"/>
			<point x="261" y="-23"/>
			<point x="597" y="-51" type="curve" smooth="yes"/>
			<point x="642" y="-55" type="line"/>
			<point x="679" y="227" type="line"/>
			<point x="649" y="231" type="line" smooth="yes"/>
			<point x="495" y="255"/>
			<point x="413" y="338"/>
			<point x="413" y="538" type="curve" smooth="yes"/>
			<point x="413" y="616" type="line" smooth="yes"/>
			<point x="413" y="852"/>
			<point x="519" y="999"/>
		</contour>
		<contour>
			<point x="-75" y="1035" type="line"/>
			<point x="844" y="1035" type="line"/>
			<point x="827" y="1289" type="line"/>
			<point x="-92" y="1289" type="line"/>
		</contour>
	</outline>
</glyph>
<glyph name="SignAi.bn" format="2">
	<advance width="708"/>
	<unicode hex="09C8"/>
	<anchor x="222" y="1522" name="top"/>
	<anchor x="529" y="1573" name="top2"/>
	<outline>
		<contour>
			<point x="736" y="1053" type="curve"/>
			<point x="544" y="1183" type="line"/>
			<point x="252" y="1096"/>
			<point x="106" y="916"/>
			<point x="106" y="598" type="curve" smooth="yes"/>
			<point x="106" y="523" type="line" smooth="yes"/>
			<point x="106" y="222"/>
			<point x="291" y="-23"/>
			<point x="627" y="-51" type="curve" smooth="yes"/>
			<point x="672" y="-55" type="line"/>
			<point x="709" y="227" type="line"/>
			<point x="679" y="231" type="line" smooth="yes"/>
			<point x="525" y="255"/>
			<point x="443" y="338"/>
			<point x="443" y="538" type="curve" smooth="yes"/>
			<point x="443" y="616" type="line" smooth="yes"/>
			<point x="443" y="852"/>
			<point x="549" y="999"/>
		</contour>
		<contour>
			<point x="-45" y="1035" type="line"/>
			<point x="874" y="1035" type="line"/>
			<point x="857" y="1289" type="line"/>
			<point x="-62" y="1289" type="line"/>
		</contour>
		<contour>
			<point x="776" y="1364" type="line"/>
			<point x="776" y="1370"/>
			<point x="776" y="1374"/>
			<point x="776" y="1380" type="curve" smooth="yes"/>
			<point x="776" y="1592"/>
			<point x="633" y="1682"/>
			<point x="385" y="1682" type="curve" smooth="yes"/>
			<point x="269" y="1682" type="line" smooth="yes"/>
			<point x="169" y="1682"/>
			<point x="127" y="1707"/>
			<point x="120" y="1779" type="curve" smooth="yes"/>
			<point x="117" y="1805" type="line"/>
			<point x="-178" y="1805" type="line"/>
			<point x="-178" y="1769" type="line" smooth="yes"/>
			<point x="-178" y="1534"/>
			<point x="-39" y="1425"/>
			<point x="259" y="1425" type="curve" smooth="yes"/>
			<point x="339" y="1425" type="line" smooth="yes"/>
			<point x="426" y="1425"/>
			<point x="461" y="1405"/>
			<point x="461" y="1345" type="curve" smooth="yes"/>
			<point x="461" y="1308"/>
			<point x="449" y="1277"/>
			<point x="427" y="1257" type="curve"/>
			<point x="512" y="1267" type="line"/>
		</contour>
	</outline>
</glyph>
<glyph name="SignO.bn" format="2">
	<advance width="1589"/>
	<unicode hex="09CB"/>
	<anchor x="1099" y="1433" name="top"/>
	<anchor x="913" y="1777" name="top2"/>
	<outline>
		<contour>
			<point x="758" y="1289" type="line"/>
			<point x="758" y="1035" type="line"/>
			<point x="1032" y="1035" type="line"/>
			<point x="1032" y="1289" type="line"/>
		</contour>
		<contour>
			<point x="706" y="1053" type="curve"/>
			<point x="514" y="1183" type="line"/>
			<point x="222" y="1096"/>
			<point x="76" y="916"/>
			<point x="76" y="598" type="curve" smooth="yes"/>
			<point x="76" y="523" type="line" smooth="yes"/>
			<point x="76" y="222"/>
			<point x="261" y="-23"/>
			<point x="597" y="-51" type="curve" smooth="yes"/>
			<point x="642" y="-55" type="line"/>
			<point x="679" y="227" type="line"/>
			<point x="649" y="231" type="line" smooth="yes"/>
			<point x="495" y="255"/>
			<point x="413" y="338"/>
			<point x="413" y="538" type="curve" smooth="yes"/>
			<point x="413" y="616" type="line" smooth="yes"/>
			<point x="413" y="852"/>
			<point x="519" y="999"/>
		</contour>
		<contour>
			<point x="-75" y="1035" type="line"/>
			<point x="844" y="1035" type="line"/>
			<point x="827" y="1289" type="line"/>
			<point x="-92" y="1289" type="line"/>
		</contour>
		<contour>
			<point x="1137" y="0" type="line"/>
			<point x="1473" y="0" type="line"/>
			<point x="1473" y="1105" type="line"/>
			<point x="1137" y="1105" type="line"/>
		</contour>
		<contour>
			<point x="996" y="1035" type="line"/>
			<point x="1453" y="1035" type="line"/>
			<point x="1453" y="1289" type="line"/>
			<point x="979" y="1289" type="line"/>
		</contour>
		<contour>
			<point x="1338" y="1159" type="line"/>
			<point x="1338" y="699" type="line"/>
			<point x="1473" y="699" type="line"/>
			<point x="1473" y="1159" type="line"/>
		</contour>
		<contour>
			<point x="1338" y="1035" type="line"/>
			<point x="1631" y="1035" type="line"/>
			<point x="1613" y="1289" type="line"/>
			<point x="1338" y="1289" type="line"/>
		</contour>
	</outline>
</glyph>
<glyph name="Hasant.bn" format="2">
  <unicode hex="09CD"/>
  <anchor x="-67" y="21" name="_bottom1"/>
  <outline>
    <contour>
      <point x="654" y="-378" type="line"/>
      <point x="15" y="-60" type="line"/>
      <point x="0" y="-360" type="line"/>
      <point x="639" y="-650" type="line"/>
    </contour>
  </outline>
</glyph>
<glyph name="KhandaTa.bn" format="2">
  <advance width="1186"/>
  <unicode hex="09CE"/>
  <outline>
    <contour>
      <point x="795" y="-2" type="curve"/>
      <point x="1131" y="-2" type="line"/>
      <point x="1134" y="29"/>
      <point x="1136" y="60"/>
      <point x="1136" y="95" type="curve" smooth="yes"/>
      <point x="1136" y="290"/>
      <point x="1003" y="464"/>
      <point x="698" y="545" type="curve" smooth="yes"/>
      <point x="589" y="574" type="line" smooth="yes"/>
      <point x="464" y="607"/>
      <point x="414" y="678"/>
      <point x="414" y="782" type="curve" smooth="yes"/>
      <point x="414" y="860" type="line" smooth="yes"/>
      <point x="414" y="982"/>
      <point x="471" y="1042"/>
      <point x="569" y="1042" type="curve" smooth="yes"/>
      <point x="672" y="1042"/>
      <point x="719" y="994"/>
      <point x="719" y="905" type="curve" smooth="yes"/>
      <point x="719" y="896" type="line" smooth="yes"/>
      <point x="719" y="831"/>
      <point x="691" y="803"/>
      <point x="633" y="799" type="curve" smooth="yes"/>
      <point x="594" y="796" type="line"/>
      <point x="614" y="527" type="line"/>
      <point x="696" y="527" type="line" smooth="yes"/>
      <point x="940" y="527"/>
      <point x="1060" y="644"/>
      <point x="1060" y="867" type="curve" smooth="yes"/>
      <point x="1060" y="897" type="line" smooth="yes"/>
      <point x="1060" y="1164"/>
      <point x="897" y="1320"/>
      <point x="563" y="1320" type="curve" smooth="yes"/>
      <point x="244" y="1320"/>
      <point x="74" y="1167"/>
      <point x="74" y="857" type="curve" smooth="yes"/>
      <point x="74" y="787" type="line" smooth="yes"/>
      <point x="74" y="570"/>
      <point x="178" y="411"/>
      <point x="465" y="329" type="curve" smooth="yes"/>
      <point x="574" y="298" type="line" smooth="yes"/>
      <point x="728" y="254"/>
      <point x="800" y="170"/>
      <point x="800" y="76" type="curve" smooth="yes"/>
      <point x="800" y="54"/>
      <point x="798" y="29"/>
    </contour>
  </outline>
</glyph>
<glyph name="SignAuMark.bn" format="2">
  <advance width="574"/>
  <unicode hex="09D7"/>
  <anchor x="-66" y="1522" name="top"/>
  <anchor x="241" y="1573" name="top2"/>
  <outline>
    <contour>
      <point x="122" y="0" type="line"/>
      <point x="458" y="0" type="line"/>
      <point x="458" y="1105" type="line"/>
      <point x="122" y="1105" type="line"/>
    </contour>
    <contour>
      <point x="-19" y="1035" type="line"/>
      <point x="438" y="1035" type="line"/>
      <point x="438" y="1289" type="line"/>
      <point x="-36" y="1289" type="line"/>
    </contour>
    <contour>
      <point x="323" y="1159" type="line"/>
      <point x="323" y="699" type="line"/>
      <point x="458" y="699" type="line"/>
      <point x="458" y="1159" type="line"/>
    </contour>
    <contour>
      <point x="323" y="1035" type="line"/>
      <point x="616" y="1035" type="line"/>
      <point x="598" y="1289" type="line"/>
      <point x="323" y="1289" type="line"/>
    </contour>
    <contour>
      <point x="488" y="1364" type="line"/>
      <point x="488" y="1370"/>
      <point x="488" y="1374"/>
      <point x="488" y="1380" type="curve" smooth="yes"/>
      <point x="488" y="1592"/>
      <point x="345" y="1682"/>
      <point x="97" y="1682" type="curve" smooth="yes"/>
      <point x="-19" y="1682" type="line" smooth="yes"/>
      <point x="-119" y="1682"/>
      <point x="-161" y="1707"/>
      <point x="-168" y="1779" type="curve" smooth="yes"/>
      <point x="-171" y="1805" type="line"/>
      <point x="-466" y="1805" type="line"/>
      <point x="-466" y="1769" type="line" smooth="yes"/>
      <point x="-466" y="1534"/>
      <point x="-327" y="1425"/>
      <point x="-29" y="1425" type="curve" smooth="yes"/>
      <point x="51" y="1425" type="line" smooth="yes"/>
      <point x="138" y="1425"/>
      <point x="173" y="1405"/>
      <point x="173" y="1345" type="curve" smooth="yes"/>
      <point x="173" y="1308"/>
      <point x="161" y="1277"/>
      <point x="139" y="1257" type="curve"/>
      <point x="224" y="1267" type="line"/>
    </contour>
  </outline>
</glyph>
<glyph name="Rra.bn" format="2">
  <advance width="1507"/>
  <unicode hex="09DC"/>
  <anchor x="1052" y="184" name="bottom1"/>
  <anchor x="505" y="1433" name="top"/>
  <anchor x="343" y="1777" name="top2"/>
  <outline>
    <contour>
      <point x="392" y="887" type="line"/>
      <point x="62" y="887" type="line"/>
      <point x="76" y="632" type="line" smooth="yes"/>
      <point x="99" y="210"/>
      <point x="338" y="0"/>
      <point x="792" y="0" type="curve" smooth="yes"/>
      <point x="1224" y="0"/>
      <point x="1447" y="178"/>
      <point x="1447" y="522" type="curve" smooth="yes"/>
      <point x="1447" y="618"/>
      <point x="1437" y="705"/>
      <point x="1414" y="854" type="curve"/>
      <point x="1131" y="886" type="line"/>
      <point x="1075" y="825" type="line" smooth="yes"/>
      <point x="1027" y="772"/>
      <point x="993" y="749"/>
      <point x="949" y="749" type="curve" smooth="yes"/>
      <point x="902" y="749"/>
      <point x="879" y="779"/>
      <point x="879" y="848" type="curve" smooth="yes"/>
      <point x="879" y="1204" type="line"/>
      <point x="545" y="1205" type="line"/>
      <point x="545" y="832" type="line" smooth="yes"/>
      <point x="545" y="595"/>
      <point x="651" y="475"/>
      <point x="871" y="475" type="curve" smooth="yes"/>
      <point x="992" y="475"/>
      <point x="1095" y="529"/>
      <point x="1171" y="610" type="curve" smooth="yes"/>
      <point x="1290" y="736" type="line"/>
      <point x="1108" y="665" type="line"/>
      <point x="1109" y="616"/>
      <point x="1110" y="569"/>
      <point x="1110" y="523" type="curve" smooth="yes"/>
      <point x="1110" y="363"/>
      <point x="988" y="288"/>
      <point x="785" y="288" type="curve" smooth="yes"/>
      <point x="542" y="288"/>
      <point x="424" y="400"/>
      <point x="408" y="644" type="curve" smooth="yes"/>
    </contour>
    <contour>
      <point x="-58" y="1035" type="line"/>
      <point x="1593" y="1035" type="line"/>
      <point x="1575" y="1289" type="line"/>
      <point x="-76" y="1289" type="line"/>
    </contour>
    <contour>
      <point x="778" y="-458" type="curve" smooth="yes"/>
      <point x="895" y="-458"/>
      <point x="955" y="-391"/>
      <point x="955" y="-285" type="curve" smooth="yes"/>
      <point x="955" y="-278" type="line" smooth="yes"/>
      <point x="955" y="-172"/>
      <point x="896" y="-104"/>
      <point x="778" y="-104" type="curve" smooth="yes"/>
      <point x="660" y="-104"/>
      <point x="599" y="-171"/>
      <point x="599" y="-278" type="curve" smooth="yes"/>
      <point x="599" y="-285" type="line" smooth="yes"/>
      <point x="599" y="-391"/>
      <point x="660" y="-458"/>
    </contour>
  </outline>
</glyph>
<glyph name="Rha.bn" format="2">
	<advance width="1245"/>
	<unicode hex="09DD"/>
	<anchor x="877" y="184" name="bottom1"/>
	<anchor x="76" y="1435" name="top"/>
	<anchor x="99" y="1779" name="top2"/>
	<outline>
		<contour>
			<point x="605" y="-458" type="curve" smooth="yes"/>
			<point x="722" y="-458"/>
			<point x="782" y="-391"/>
			<point x="782" y="-285" type="curve" smooth="yes"/>
			<point x="782" y="-278" type="line" smooth="yes"/>
			<point x="782" y="-172"/>
			<point x="723" y="-104"/>
			<point x="605" y="-104" type="curve" smooth="yes"/>
			<point x="487" y="-104"/>
			<point x="426" y="-171"/>
			<point x="426" y="-278" type="curve" smooth="yes"/>
			<point x="426" y="-285" type="line" smooth="yes"/>
			<point x="426" y="-391"/>
			<point x="487" y="-458"/>
		</contour>
		<contour>
			<point x="632" y="-5" type="curve" smooth="yes"/>
			<point x="853" y="-5"/>
			<point x="1019" y="89"/>
			<point x="1111" y="234" type="curve" smooth="yes"/>
			<point x="1163" y="316"/>
			<point x="1191" y="416"/>
			<point x="1191" y="524" type="curve" smooth="yes"/>
			<point x="1191" y="758"/>
			<point x="1034" y="874"/>
			<point x="758" y="874" type="curve" smooth="yes"/>
			<point x="702" y="874"/>
			<point x="651" y="872"/>
			<point x="594" y="864" type="curve"/>
			<point x="570" y="596" type="line"/>
			<point x="629" y="603"/>
			<point x="674" y="604"/>
			<point x="721" y="604" type="curve" smooth="yes"/>
			<point x="813" y="604"/>
			<point x="849" y="566"/>
			<point x="849" y="508" type="curve" smooth="yes"/>
			<point x="849" y="457"/>
			<point x="828" y="398"/>
			<point x="788" y="353" type="curve" smooth="yes"/>
			<point x="751" y="310"/>
			<point x="697" y="280"/>
			<point x="627" y="280" type="curve" smooth="yes"/>
			<point x="490" y="280"/>
			<point x="435" y="340"/>
			<point x="435" y="462" type="curve" smooth="yes"/>
			<point x="435" y="1153" type="line"/>
			<point x="100" y="1153" type="line"/>
			<point x="100" y="469" type="line" smooth="yes"/>
			<point x="100" y="138"/>
			<point x="288" y="-5"/>
		</contour>
		<contour>
			<point x="-66" y="1035" type="line"/>
			<point x="1276" y="1035" type="line"/>
			<point x="1258" y="1289" type="line"/>
			<point x="-84" y="1289" type="line"/>
		</contour>
	</outline>
</glyph>
<glyph name="VowelRuu.bn" format="2">
	<advance width="1830"/>
	<unicode hex="09E0"/>
	<anchor x="601" y="1777" name="top2"/>
	<outline>
		<contour>
			<point x="993" y="-465" type="line"/>
			<point x="1015" y="-204" type="line"/>
			<point x="560" y="-50" type="line"/>
			<point x="560" y="-41" type="line"/>
			<point x="648" y="-11"/>
			<point x="772" y="26"/>
			<point x="868" y="54" type="curve"/>
			<point x="674" y="279" type="line"/>
			<point x="487" y="216"/>
			<point x="293" y="144"/>
			<point x="174" y="92" type="curve"/>
			<point x="174" y="-171" type="line"/>
		</contour>
		<contour>
			<point x="891" y="-3" type="line"/>
			<point x="1180" y="-3" type="line"/>
			<point x="1180" y="1289" type="line"/>
			<point x="859" y="1289" type="line"/>
			<point x="859" y="1116" type="line"/>
			<point x="875" y="831" type="line"/>
			<point x="845" y="748" type="line"/>
			<point x="845" y="469" type="line"/>
			<point x="862" y="217" type="line"/>
			<point x="883" y="283" type="line"/>
			<point x="391" y="454" type="line"/>
			<point x="460" y="327" type="line"/>
			<point x="460" y="574" type="line"/>
			<point x="374" y="480" type="line"/>
			<point x="592" y="552"/>
			<point x="822" y="622"/>
			<point x="1052" y="688" type="curve"/>
			<point x="1005" y="950" type="line"/>
			<point x="911" y="927"/>
			<point x="818" y="903"/>
			<point x="727" y="878" type="curve"/>
			<point x="698" y="884" type="line"/>
			<point x="495" y="821"/>
			<point x="302" y="756"/>
			<point x="126" y="693" type="curve"/>
			<point x="126" y="262" type="line"/>
		</contour>
		<contour>
			<point x="599" y="791" type="curve"/>
			<point x="856" y="867" type="line"/>
			<point x="804" y="1006"/>
			<point x="746" y="1148"/>
			<point x="681" y="1285" type="curve"/>
			<point x="457" y="1297" type="line"/>
			<point x="410" y="1183" type="line" smooth="yes"/>
			<point x="384" y="1120"/>
			<point x="356" y="1108"/>
			<point x="314" y="1108" type="curve" smooth="yes"/>
			<point x="267" y="1108"/>
			<point x="239" y="1134"/>
			<point x="237" y="1188" type="curve" smooth="yes"/>
			<point x="234" y="1289" type="line"/>
			<point x="-62" y="1289" type="line"/>
			<point x="-62" y="1184" type="line" smooth="yes"/>
			<point x="-62" y="974"/>
			<point x="59" y="855"/>
			<point x="280" y="855" type="curve" smooth="yes"/>
			<point x="406" y="855"/>
			<point x="508" y="915"/>
			<point x="561" y="1033" type="curve" smooth="yes"/>
			<point x="608" y="1137" type="line"/>
			<point x="473" y="1065" type="line"/>
			<point x="523" y="964"/>
			<point x="560" y="887"/>
		</contour>
		<contour>
			<point x="1422" y="113" type="line"/>
			<point x="1700" y="113" type="line"/>
			<point x="1700" y="1289" type="line"/>
			<point x="1376" y="1289" type="line"/>
			<point x="1376" y="583" type="line"/>
			<point x="1391" y="330" type="line"/>
			<point x="1411" y="399" type="line"/>
			<point x="1011" y="563" type="line"/>
			<point x="969" y="298" type="line"/>
		</contour>
	</outline>
</glyph>
<glyph name="VowelLruu.bn" format="2">
	<advance width="1544"/>
	<unicode hex="09E1"/>
	<anchor x="612" y="1587" name="top2"/>
	<outline>
		<contour>
			<point x="1011" y="237" type="curve"/>
			<point x="893" y="13" type="line"/>
			<point x="1112" y="-28"/>
			<point x="1166" y="-118"/>
			<point x="1166" y="-233" type="curve" smooth="yes"/>
			<point x="1166" y="-248" type="line" smooth="yes"/>
			<point x="1166" y="-339"/>
			<point x="1111" y="-380"/>
			<point x="1023" y="-380" type="curve" smooth="yes"/>
			<point x="910" y="-380" type="line"/>
			<point x="1053" y="-524" type="line"/>
			<point x="1053" y="-421" type="line" smooth="yes"/>
			<point x="1053" y="-192"/>
			<point x="921" y="-65"/>
			<point x="693" y="-66" type="curve" smooth="yes"/>
			<point x="439" y="-67"/>
			<point x="323" y="-203"/>
			<point x="323" y="-442" type="curve" smooth="yes"/>
			<point x="323" y="-511" type="line" smooth="yes"/>
			<point x="323" y="-553"/>
			<point x="323" y="-596"/>
			<point x="323" y="-628" type="curve"/>
			<point x="614" y="-628" type="line"/>
			<point x="614" y="-593"/>
			<point x="614" y="-540"/>
			<point x="614" y="-491" type="curve" smooth="yes"/>
			<point x="614" y="-435" type="line" smooth="yes"/>
			<point x="614" y="-359"/>
			<point x="651" y="-330"/>
			<point x="705" y="-330" type="curve" smooth="yes"/>
			<point x="765" y="-330"/>
			<point x="797" y="-362"/>
			<point x="797" y="-435" type="curve" smooth="yes"/>
			<point x="797" y="-628" type="line"/>
			<point x="1017" y="-628" type="line" smooth="yes"/>
			<point x="1307" y="-628"/>
			<point x="1484" y="-484"/>
			<point x="1484" y="-257" type="curve" smooth="yes"/>
			<point x="1484" y="-225" type="line" smooth="yes"/>
			<point x="1484" y="14"/>
			<point x="1349" y="145"/>
		</contour>
		<contour>
			<point x="83" y="0" type="curve"/>
			<point x="414" y="0" type="line"/>
			<point x="414" y="53"/>
			<point x="414" y="124"/>
			<point x="414" y="190" type="curve" smooth="yes"/>
			<point x="414" y="283" type="line" smooth="yes"/>
			<point x="414" y="387"/>
			<point x="460" y="437"/>
			<point x="535" y="437" type="curve" smooth="yes"/>
			<point x="610" y="437"/>
			<point x="655" y="387"/>
			<point x="655" y="283" type="curve" smooth="yes"/>
			<point x="655" y="0" type="line"/>
			<point x="920" y="0" type="line" smooth="yes"/>
			<point x="1249" y="0"/>
			<point x="1448" y="183"/>
			<point x="1448" y="483" type="curve" smooth="yes"/>
			<point x="1448" y="502" type="line" smooth="yes"/>
			<point x="1448" y="828"/>
			<point x="1258" y="990"/>
			<point x="847" y="1083" type="curve" smooth="yes"/>
			<point x="692" y="1118" type="line" smooth="yes"/>
			<point x="474" y="1167"/>
			<point x="451" y="1210"/>
			<point x="442" y="1296" type="curve" smooth="yes"/>
			<point x="440" y="1315" type="line"/>
			<point x="117" y="1315" type="line"/>
			<point x="117" y="1285" type="line" smooth="yes"/>
			<point x="117" y="1073"/>
			<point x="236" y="943"/>
			<point x="567" y="871" type="curve" smooth="yes"/>
			<point x="727" y="836" type="line" smooth="yes"/>
			<point x="1003" y="776"/>
			<point x="1108" y="692"/>
			<point x="1108" y="505" type="curve" smooth="yes"/>
			<point x="1108" y="483" type="line" smooth="yes"/>
			<point x="1108" y="344"/>
			<point x="1040" y="277"/>
			<point x="919" y="277" type="curve" smooth="yes"/>
			<point x="796" y="277" type="line"/>
			<point x="951" y="114" type="line"/>
			<point x="951" y="310" type="line" smooth="yes"/>
			<point x="951" y="580"/>
			<point x="798" y="724"/>
			<point x="518" y="724" type="curve" smooth="yes"/>
			<point x="212" y="724"/>
			<point x="83" y="558"/>
			<point x="83" y="289" type="curve" smooth="yes"/>
			<point x="83" y="189" type="line" smooth="yes"/>
			<point x="83" y="122"/>
			<point x="83" y="56"/>
		</contour>
	</outline>
</glyph>
<glyph name="SignLru.bn" format="2">
  <advance width="1258"/>
  <unicode hex="09E2"/>
  <outline>
    <contour>
      <point x="408" y="-761" type="curve"/>
      <point x="632" y="-761" type="line"/>
      <point x="632" y="-729"/>
      <point x="632" y="-685"/>
      <point x="632" y="-645" type="curve" smooth="yes"/>
      <point x="632" y="-568" type="line" smooth="yes"/>
      <point x="632" y="-521"/>
      <point x="653" y="-498"/>
      <point x="685" y="-498" type="curve" smooth="yes"/>
      <point x="721" y="-498"/>
      <point x="740" y="-522"/>
      <point x="740" y="-568" type="curve" smooth="yes"/>
      <point x="740" y="-761" type="line"/>
      <point x="910" y="-761" type="line" smooth="yes"/>
      <point x="1109" y="-761"/>
      <point x="1230" y="-659"/>
      <point x="1230" y="-494" type="curve" smooth="yes"/>
      <point x="1230" y="-462" type="line" smooth="yes"/>
      <point x="1230" y="-255"/>
      <point x="1115" y="-148"/>
      <point x="868" y="-93" type="curve" smooth="yes"/>
      <point x="789" y="-78" type="line" smooth="yes"/>
      <point x="658" y="-44"/>
      <point x="649" y="-22"/>
      <point x="644" y="25" type="curve" smooth="yes"/>
      <point x="642" y="36" type="line"/>
      <point x="425" y="36" type="line"/>
      <point x="425" y="19" type="line" smooth="yes"/>
      <point x="425" y="-114"/>
      <point x="499" y="-194"/>
      <point x="710" y="-247" type="curve" smooth="yes"/>
      <point x="787" y="-262" type="line" smooth="yes"/>
      <point x="942" y="-302"/>
      <point x="1000" y="-349"/>
      <point x="1000" y="-461" type="curve" smooth="yes"/>
      <point x="1000" y="-488" type="line" smooth="yes"/>
      <point x="1000" y="-554"/>
      <point x="967" y="-581"/>
      <point x="915" y="-581" type="curve" smooth="yes"/>
      <point x="833" y="-581" type="line"/>
      <point x="938" y="-685" type="line"/>
      <point x="938" y="-567" type="line" smooth="yes"/>
      <point x="938" y="-402"/>
      <point x="841" y="-314"/>
      <point x="674" y="-314" type="curve" smooth="yes"/>
      <point x="486" y="-315"/>
      <point x="408" y="-414"/>
      <point x="408" y="-574" type="curve" smooth="yes"/>
      <point x="408" y="-646" type="line" smooth="yes"/>
      <point x="408" y="-687"/>
      <point x="408" y="-727"/>
    </contour>
  </outline>
</glyph>
<glyph name="Zero.bn" format="2">
  <advance width="1288"/>
  <unicode hex="09E6"/>
  <outline>
    <contour>
      <point x="646" y="0" type="curve" smooth="yes"/>
      <point x="999" y="0"/>
      <point x="1200" y="184"/>
      <point x="1200" y="531" type="curve" smooth="yes"/>
      <point x="1200" y="785" type="line" smooth="yes"/>
      <point x="1200" y="1131"/>
      <point x="999" y="1316"/>
      <point x="642" y="1316" type="curve" smooth="yes"/>
      <point x="286" y="1316"/>
      <point x="88" y="1134"/>
      <point x="88" y="785" type="curve" smooth="yes"/>
      <point x="88" y="531" type="line" smooth="yes"/>
      <point x="88" y="183"/>
      <point x="291" y="0"/>
    </contour>
    <contour>
      <point x="644" y="283" type="curve" smooth="yes"/>
      <point x="501" y="283"/>
      <point x="426" y="361"/>
      <point x="426" y="521" type="curve" smooth="yes"/>
      <point x="426" y="795" type="line" smooth="yes"/>
      <point x="426" y="956"/>
      <point x="501" y="1033"/>
      <point x="644" y="1033" type="curve" smooth="yes"/>
      <point x="788" y="1033"/>
      <point x="863" y="957"/>
      <point x="863" y="795" type="curve" smooth="yes"/>
      <point x="863" y="521" type="line" smooth="yes"/>
      <point x="863" y="360"/>
      <point x="788" y="283"/>
    </contour>
  </outline>
</glyph>
<glyph name="One.bn" format="2">
	<advance width="1218"/>
	<unicode hex="09E7"/>
	<outline>
		<contour>
			<point x="1141" y="468" type="curve" smooth="yes"/>
			<point x="1141" y="500" type="line"/>
			<point x="1141" y="740"/>
			<point x="1010" y="864"/>
			<point x="774" y="988" type="curve" smooth="yes"/>
			<point x="574" y="1093" type="line" smooth="yes"/>
			<point x="434" y="1166"/>
			<point x="424" y="1221"/>
			<point x="417" y="1296" type="curve" smooth="yes"/>
			<point x="415" y="1316" type="line"/>
			<point x="92" y="1316" type="line"/>
			<point x="92" y="1288" type="line" smooth="yes"/>
			<point x="92" y="1112"/>
			<point x="163" y="996"/>
			<point x="408" y="867" type="curve" smooth="yes"/>
			<point x="609" y="761" type="line" smooth="yes"/>
			<point x="732" y="696"/>
			<point x="803" y="630"/>
			<point x="803" y="502" type="curve" smooth="yes"/>
			<point x="803" y="461" type="line" smooth="yes"/>
			<point x="803" y="344"/>
			<point x="733" y="286"/>
			<point x="603" y="286" type="curve" smooth="yes"/>
			<point x="476" y="286"/>
			<point x="402" y="346"/>
			<point x="402" y="469" type="curve" smooth="yes"/>
			<point x="402" y="516"/>
			<point x="402" y="567"/>
			<point x="402" y="616" type="curve"/>
			<point x="62" y="616" type="line"/>
			<point x="62" y="570"/>
			<point x="62" y="524"/>
			<point x="62" y="472" type="curve" smooth="yes"/>
			<point x="62" y="152"/>
			<point x="261" y="1"/>
			<point x="603" y="1" type="curve" smooth="yes"/>
			<point x="958" y="1"/>
			<point x="1141" y="149"/>
		</contour>
	</outline>
</glyph>
<glyph name="Two.bn" format="2">
  <advance width="1175"/>
  <unicode hex="09E8"/>
  <outline>
    <contour>
      <point x="1163" y="-126" type="line"/>
      <point x="1184" y="180" type="line"/>
      <point x="899" y="283" type="line"/>
      <point x="659" y="354" type="line"/>
      <point x="757" y="237" type="line"/>
      <point x="757" y="419" type="line"/>
      <point x="472" y="384" type="line"/>
      <point x="534" y="345"/>
      <point x="628" y="328"/>
      <point x="703" y="328" type="curve" smooth="yes"/>
      <point x="938" y="328"/>
      <point x="1067" y="428"/>
      <point x="1067" y="638" type="curve" smooth="yes"/>
      <point x="1067" y="663" type="line" smooth="yes"/>
      <point x="1067" y="868"/>
      <point x="924" y="987"/>
      <point x="656" y="1070" type="curve" smooth="yes"/>
      <point x="492" y="1121" type="line" smooth="yes"/>
      <point x="350" y="1165"/>
      <point x="350" y="1230"/>
      <point x="347" y="1296" type="curve" smooth="yes"/>
      <point x="346" y="1317" type="line"/>
      <point x="22" y="1317" type="line"/>
      <point x="22" y="1287" type="line" smooth="yes"/>
      <point x="22" y="1051"/>
      <point x="156" y="939"/>
      <point x="337" y="885" type="curve" smooth="yes"/>
      <point x="517" y="831" type="line" smooth="yes"/>
      <point x="662" y="788"/>
      <point x="722" y="745"/>
      <point x="722" y="666" type="curve" smooth="yes"/>
      <point x="722" y="654" type="line" smooth="yes"/>
      <point x="722" y="571"/>
      <point x="671" y="524"/>
      <point x="540" y="524" type="curve" smooth="yes"/>
      <point x="417" y="524"/>
      <point x="297" y="561"/>
      <point x="196" y="590" type="curve" smooth="yes"/>
      <point x="89" y="621" type="line"/>
      <point x="74" y="289" type="line"/>
    </contour>
  </outline>
</glyph>
<glyph name="Three.bn" format="2">
  <advance width="1619"/>
  <unicode hex="09E9"/>
  <outline>
    <contour>
      <point x="860" y="-1" type="curve" smooth="yes"/>
      <point x="1294" y="-1"/>
      <point x="1527" y="202"/>
      <point x="1527" y="582" type="curve" smooth="yes"/>
      <point x="1527" y="837" type="line" smooth="yes"/>
      <point x="1527" y="1138"/>
      <point x="1362" y="1296"/>
      <point x="1051" y="1296" type="curve" smooth="yes"/>
      <point x="761" y="1296"/>
      <point x="608" y="1143"/>
      <point x="608" y="858" type="curve" smooth="yes"/>
      <point x="608" y="796"/>
      <point x="608" y="727"/>
      <point x="608" y="658" type="curve"/>
      <point x="950" y="658" type="line"/>
      <point x="950" y="728"/>
      <point x="950" y="795"/>
      <point x="950" y="866" type="curve" smooth="yes"/>
      <point x="950" y="960"/>
      <point x="987" y="1007"/>
      <point x="1060" y="1007" type="curve" smooth="yes"/>
      <point x="1144" y="1007"/>
      <point x="1185" y="957"/>
      <point x="1185" y="857" type="curve" smooth="yes"/>
      <point x="1185" y="589" type="line" smooth="yes"/>
      <point x="1185" y="391"/>
      <point x="1071" y="290"/>
      <point x="854" y="290" type="curve" smooth="yes"/>
      <point x="582" y="290"/>
      <point x="430" y="432"/>
      <point x="417" y="696" type="curve" smooth="yes"/>
      <point x="402" y="1083" type="line"/>
      <point x="72" y="1083" type="line"/>
      <point x="88" y="674" type="line" smooth="yes"/>
      <point x="112" y="232"/>
      <point x="377" y="-1"/>
    </contour>
  </outline>
</glyph>
<glyph name="Four.bn" format="2">
  <advance width="1268"/>
  <unicode hex="09EA"/>
  <outline>
    <contour>
      <point x="634" y="795" type="curve" smooth="yes"/>
      <point x="768" y="795"/>
      <point x="838" y="841"/>
      <point x="838" y="927" type="curve" smooth="yes"/>
      <point x="838" y="936" type="line" smooth="yes"/>
      <point x="838" y="1019"/>
      <point x="770" y="1071"/>
      <point x="634" y="1071" type="curve" smooth="yes"/>
      <point x="493" y="1071"/>
      <point x="431" y="1022"/>
      <point x="431" y="936" type="curve" smooth="yes"/>
      <point x="431" y="927" type="line" smooth="yes"/>
      <point x="431" y="842"/>
      <point x="494" y="795"/>
    </contour>
    <contour>
      <point x="561" y="600" type="line"/>
      <point x="321" y="600" type="line"/>
      <point x="321" y="738" type="line"/>
      <point x="561" y="738" type="line"/>
      <point x="495" y="658" type="line"/>
      <point x="220" y="658"/>
      <point x="83" y="767"/>
      <point x="83" y="948" type="curve" smooth="yes"/>
      <point x="83" y="970" type="line" smooth="yes"/>
      <point x="83" y="1207"/>
      <point x="268" y="1325"/>
      <point x="622" y="1325" type="curve" smooth="yes"/>
      <point x="993" y="1325"/>
      <point x="1186" y="1205"/>
      <point x="1186" y="969" type="curve" smooth="yes"/>
      <point x="1186" y="948" type="line" smooth="yes"/>
      <point x="1186" y="767"/>
      <point x="1046" y="658"/>
      <point x="769" y="658" type="curve"/>
      <point x="707" y="738" type="line"/>
      <point x="948" y="738" type="line"/>
      <point x="948" y="600" type="line"/>
      <point x="707" y="600" type="line"/>
      <point x="769" y="688" type="line"/>
      <point x="1055" y="688"/>
      <point x="1204" y="583"/>
      <point x="1204" y="377" type="curve" smooth="yes"/>
      <point x="1204" y="356" type="line" smooth="yes"/>
      <point x="1204" y="119"/>
      <point x="1006" y="-9"/>
      <point x="632" y="-9" type="curve" smooth="yes"/>
      <point x="261" y="-9"/>
      <point x="64" y="117"/>
      <point x="64" y="351" type="curve" smooth="yes"/>
      <point x="64" y="371" type="line" smooth="yes"/>
      <point x="64" y="581"/>
      <point x="210" y="688"/>
      <point x="495" y="688" type="curve"/>
    </contour>
    <contour>
      <point x="634" y="248" type="curve" smooth="yes"/>
      <point x="780" y="248"/>
      <point x="851" y="304"/>
      <point x="851" y="395" type="curve" smooth="yes"/>
      <point x="851" y="409" type="line" smooth="yes"/>
      <point x="851" y="497"/>
      <point x="780" y="554"/>
      <point x="634" y="554" type="curve" smooth="yes"/>
      <point x="482" y="554"/>
      <point x="417" y="497"/>
      <point x="417" y="409" type="curve" smooth="yes"/>
      <point x="417" y="395" type="line" smooth="yes"/>
      <point x="417" y="304"/>
      <point x="484" y="248"/>
    </contour>
  </outline>
</glyph>
<glyph name="Five.bn" format="2">
	<advance width="1338"/>
	<unicode hex="09EB"/>
	<outline>
		<contour>
			<point x="787" y="-16" type="curve" smooth="yes"/>
			<point x="1029" y="-14"/>
			<point x="1199" y="58"/>
			<point x="1293" y="137" type="curve"/>
			<point x="1208" y="274"/>
			<point x="1165" y="431"/>
			<point x="1165" y="580" type="curve" smooth="yes"/>
			<point x="1165" y="593" type="line" smooth="yes"/>
			<point x="1165" y="750"/>
			<point x="1222" y="896"/>
			<point x="1289" y="1017" type="curve"/>
			<point x="1073" y="1168" type="line"/>
			<point x="1007" y="1121"/>
			<point x="934" y="1092"/>
			<point x="840" y="1092" type="curve" smooth="yes"/>
			<point x="681" y="1092"/>
			<point x="579" y="1141"/>
			<point x="557" y="1282" type="curve" smooth="yes"/>
			<point x="555" y="1295" type="line"/>
			<point x="313" y="1295" type="line"/>
			<point x="185" y="1155"/>
			<point x="82" y="944"/>
			<point x="82" y="694" type="curve" smooth="yes"/>
			<point x="82" y="650" type="line" smooth="yes"/>
			<point x="82" y="195"/>
			<point x="376" y="-19"/>
		</contour>
		<contour>
			<point x="776" y="815" type="curve" smooth="yes"/>
			<point x="914" y="815"/>
			<point x="995" y="883"/>
			<point x="1043" y="933" type="curve"/>
			<point x="1000" y="963" type="line"/>
			<point x="919" y="889"/>
			<point x="831" y="763"/>
			<point x="831" y="572" type="curve" smooth="yes"/>
			<point x="831" y="554" type="line" smooth="yes"/>
			<point x="831" y="420"/>
			<point x="870" y="298"/>
			<point x="956" y="205" type="curve"/>
			<point x="1019" y="316" type="line"/>
			<point x="983" y="292"/>
			<point x="926" y="261"/>
			<point x="812" y="261" type="curve" smooth="yes"/>
			<point x="575" y="261"/>
			<point x="430" y="381"/>
			<point x="430" y="655" type="curve" smooth="yes"/>
			<point x="430" y="674" type="line" smooth="yes"/>
			<point x="430" y="812"/>
			<point x="464" y="933"/>
			<point x="540" y="1038" type="curve"/>
			<point x="452" y="1024" type="line"/>
			<point x="489" y="889"/>
			<point x="603" y="815"/>
		</contour>
	</outline>
</glyph>
<glyph name="Six.bn" format="2">
  <advance width="1567"/>
  <unicode hex="09EC"/>
  <outline>
    <contour>
      <point x="816" y="0" type="curve" smooth="yes"/>
      <point x="1261" y="0"/>
      <point x="1490" y="205"/>
      <point x="1490" y="573" type="curve" smooth="yes"/>
      <point x="1490" y="649"/>
      <point x="1480" y="743"/>
      <point x="1457" y="884" type="curve"/>
      <point x="1177" y="921" type="line"/>
      <point x="1113" y="857" type="line" smooth="yes"/>
      <point x="1066" y="810"/>
      <point x="1027" y="779"/>
      <point x="971" y="779" type="curve" smooth="yes"/>
      <point x="922" y="779"/>
      <point x="897" y="803"/>
      <point x="897" y="859" type="curve" smooth="yes"/>
      <point x="897" y="904" type="line"/>
      <point x="561" y="905" type="line"/>
      <point x="561" y="844" type="line" smooth="yes"/>
      <point x="561" y="647"/>
      <point x="633" y="501"/>
      <point x="894" y="501" type="curve" smooth="yes"/>
      <point x="1017" y="501"/>
      <point x="1129" y="549"/>
      <point x="1208" y="639" type="curve" smooth="yes"/>
      <point x="1319" y="765" type="line"/>
      <point x="1151" y="696" type="line"/>
      <point x="1152" y="647"/>
      <point x="1153" y="600"/>
      <point x="1153" y="554" type="curve" smooth="yes"/>
      <point x="1153" y="373"/>
      <point x="1025" y="288"/>
      <point x="815" y="288" type="curve" smooth="yes"/>
      <point x="506" y="288"/>
      <point x="417" y="448"/>
      <point x="404" y="644" type="curve" smooth="yes"/>
      <point x="388" y="887" type="line"/>
      <point x="58" y="887" type="line"/>
      <point x="71" y="622" type="line" smooth="yes"/>
      <point x="91" y="211"/>
      <point x="345" y="0"/>
    </contour>
    <contour>
      <point x="561" y="864" type="line"/>
      <point x="897" y="864" type="line"/>
      <point x="897" y="963" type="line" smooth="yes"/>
      <point x="897" y="1196"/>
      <point x="755" y="1288"/>
      <point x="489" y="1288" type="curve" smooth="yes"/>
      <point x="400" y="1288" type="line"/>
      <point x="418" y="1034" type="line"/>
      <point x="490" y="1034" type="line" smooth="yes"/>
      <point x="543" y="1034"/>
      <point x="561" y="1005"/>
      <point x="561" y="963" type="curve" smooth="yes"/>
    </contour>
  </outline>
</glyph>
<glyph name="Seven.bn" format="2">
	<advance width="1270"/>
	<unicode hex="09ED"/>
	<outline>
		<contour>
			<point x="616" y="1316" type="curve" smooth="yes"/>
			<point x="388" y="1316"/>
			<point x="239" y="1217"/>
			<point x="149" y="1084" type="curve" smooth="yes"/>
			<point x="95" y="1004"/>
			<point x="59" y="877"/>
			<point x="59" y="773" type="curve" smooth="yes"/>
			<point x="59" y="531"/>
			<point x="217" y="395"/>
			<point x="517" y="396" type="curve" smooth="yes"/>
			<point x="903" y="397" type="line"/>
			<point x="903" y="671" type="line"/>
			<point x="540" y="670" type="line" smooth="yes"/>
			<point x="440" y="670"/>
			<point x="399" y="710"/>
			<point x="399" y="782" type="curve" smooth="yes"/>
			<point x="399" y="834"/>
			<point x="419" y="902"/>
			<point x="450" y="946" type="curve" smooth="yes"/>
			<point x="486" y="997"/>
			<point x="539" y="1037"/>
			<point x="631" y="1037" type="curve" smooth="yes"/>
			<point x="747" y="1037"/>
			<point x="793" y="973"/>
			<point x="793" y="882" type="curve" smooth="yes"/>
			<point x="793" y="351" type="line"/>
			<point x="1128" y="356" type="line"/>
			<point x="1128" y="885" type="line" smooth="yes"/>
			<point x="1128" y="1163"/>
			<point x="963" y="1316"/>
		</contour>
		<contour>
			<point x="1128" y="315" type="curve" smooth="yes"/>
			<point x="1128" y="414" type="line"/>
			<point x="792" y="414" type="line"/>
			<point x="792" y="315" type="line" smooth="yes"/>
			<point x="792" y="82"/>
			<point x="934" y="-10"/>
			<point x="1200" y="-10" type="curve" smooth="yes"/>
			<point x="1289" y="-10" type="line"/>
			<point x="1271" y="244" type="line"/>
			<point x="1199" y="244" type="line" smooth="yes"/>
			<point x="1146" y="244"/>
			<point x="1128" y="273"/>
		</contour>
	</outline>
</glyph>
<glyph name="Eight.bn" format="2">
  <advance width="1463"/>
  <unicode hex="09EE"/>
  <outline>
    <contour>
      <point x="638" y="0" type="curve" smooth="yes"/>
      <point x="869" y="0"/>
      <point x="1018" y="88"/>
      <point x="1103" y="200" type="curve" smooth="yes"/>
      <point x="1189" y="313"/>
      <point x="1212" y="421"/>
      <point x="1212" y="509" type="curve" smooth="yes"/>
      <point x="1212" y="599"/>
      <point x="1166" y="668"/>
      <point x="1058" y="728" type="curve"/>
      <point x="1071" y="772" type="line"/>
      <point x="1001" y="873"/>
      <point x="894" y="891"/>
      <point x="760" y="891" type="curve" smooth="yes"/>
      <point x="431" y="892" type="line"/>
      <point x="430" y="625" type="line"/>
      <point x="750" y="625" type="line" smooth="yes"/>
      <point x="825" y="625"/>
      <point x="870" y="596"/>
      <point x="870" y="526" type="curve" smooth="yes"/>
      <point x="870" y="475"/>
      <point x="847" y="407"/>
      <point x="806" y="357" type="curve" smooth="yes"/>
      <point x="771" y="315"/>
      <point x="714" y="282"/>
      <point x="637" y="282" type="curve" smooth="yes"/>
      <point x="533" y="282"/>
      <point x="474" y="340"/>
      <point x="474" y="434" type="curve" smooth="yes"/>
      <point x="474" y="924" type="line"/>
      <point x="138" y="911" type="line"/>
      <point x="138" y="442" type="line" smooth="yes"/>
      <point x="138" y="144"/>
      <point x="320" y="0"/>
    </contour>
    <contour>
      <point x="1076" y="648" type="line"/>
      <point x="1413" y="629" type="line"/>
      <point x="1413" y="888" type="line"/>
      <point x="754" y="891" type="line"/>
    </contour>
    <contour>
      <point x="138" y="865" type="line"/>
      <point x="474" y="865" type="line"/>
      <point x="474" y="964" type="line" smooth="yes"/>
      <point x="474" y="1197"/>
      <point x="332" y="1289"/>
      <point x="66" y="1289" type="curve" smooth="yes"/>
      <point x="-23" y="1289" type="line"/>
      <point x="-5" y="1035" type="line"/>
      <point x="67" y="1035" type="line" smooth="yes"/>
      <point x="120" y="1035"/>
      <point x="138" y="1006"/>
      <point x="138" y="964" type="curve" smooth="yes"/>
    </contour>
  </outline>
</glyph>
<glyph name="Nine.bn" format="2">
  <advance width="1482"/>
  <unicode hex="09EF"/>
  <outline>
    <contour>
      <point x="41" y="0" type="curve"/>
      <point x="372" y="0" type="line"/>
      <point x="372" y="53"/>
      <point x="372" y="124"/>
      <point x="372" y="190" type="curve" smooth="yes"/>
      <point x="372" y="283" type="line" smooth="yes"/>
      <point x="372" y="387"/>
      <point x="418" y="437"/>
      <point x="493" y="437" type="curve" smooth="yes"/>
      <point x="568" y="437"/>
      <point x="613" y="387"/>
      <point x="613" y="283" type="curve" smooth="yes"/>
      <point x="613" y="0" type="line"/>
      <point x="878" y="0" type="line" smooth="yes"/>
      <point x="1207" y="0"/>
      <point x="1406" y="183"/>
      <point x="1406" y="483" type="curve" smooth="yes"/>
      <point x="1406" y="502" type="line" smooth="yes"/>
      <point x="1406" y="828"/>
      <point x="1216" y="990"/>
      <point x="805" y="1083" type="curve" smooth="yes"/>
      <point x="650" y="1118" type="line" smooth="yes"/>
      <point x="432" y="1167"/>
      <point x="409" y="1210"/>
      <point x="400" y="1296" type="curve" smooth="yes"/>
      <point x="398" y="1315" type="line"/>
      <point x="75" y="1315" type="line"/>
      <point x="75" y="1285" type="line" smooth="yes"/>
      <point x="75" y="1073"/>
      <point x="194" y="943"/>
      <point x="525" y="871" type="curve" smooth="yes"/>
      <point x="685" y="836" type="line" smooth="yes"/>
      <point x="961" y="776"/>
      <point x="1066" y="692"/>
      <point x="1066" y="505" type="curve" smooth="yes"/>
      <point x="1066" y="483" type="line" smooth="yes"/>
      <point x="1066" y="344"/>
      <point x="998" y="277"/>
      <point x="877" y="277" type="curve" smooth="yes"/>
      <point x="754" y="277" type="line"/>
      <point x="909" y="114" type="line"/>
      <point x="909" y="310" type="line" smooth="yes"/>
      <point x="909" y="580"/>
      <point x="756" y="724"/>
      <point x="476" y="724" type="curve" smooth="yes"/>
      <point x="170" y="724"/>
      <point x="41" y="558"/>
      <point x="41" y="289" type="curve" smooth="yes"/>
      <point x="41" y="189" type="line" smooth="yes"/>
      <point x="41" y="122"/>
      <point x="41" y="56"/>
    </contour>
  </outline>
</glyph>
<glyph name="RupeeMark.bn" format="2">
	<advance width="990"/>
	<unicode hex="09F2"/>
	<outline>
		<contour>
			<point x="629" y="0" type="curve"/>
			<point x="907" y="0" type="line"/>
			<point x="871" y="723"/>
			<point x="487" y="963"/>
			<point x="115" y="1053" type="curve"/>
			<point x="85" y="740" type="line"/>
			<point x="396" y="653"/>
			<point x="591" y="473"/>
		</contour>
	</outline>
</glyph>
<glyph name="RupeeSign.bn" format="2">
	<advance width="1127"/>
	<unicode hex="09F3"/>
	<outline>
		<contour>
			<point x="567" y="-4" type="curve" smooth="yes"/>
			<point x="774" y="-4"/>
			<point x="926" y="76"/>
			<point x="1007" y="212" type="curve" smooth="yes"/>
			<point x="1050" y="284"/>
			<point x="1066" y="369"/>
			<point x="1066" y="423" type="curve" smooth="yes"/>
			<point x="1066" y="613"/>
			<point x="944" y="705"/>
			<point x="707" y="705" type="curve" smooth="yes"/>
			<point x="648" y="705"/>
			<point x="599" y="702"/>
			<point x="548" y="700" type="curve"/>
			<point x="529" y="444" type="line"/>
			<point x="571" y="447"/>
			<point x="614" y="450"/>
			<point x="653" y="450" type="curve" smooth="yes"/>
			<point x="714" y="450"/>
			<point x="740" y="436"/>
			<point x="740" y="395" type="curve" smooth="yes"/>
			<point x="740" y="369"/>
			<point x="724" y="336"/>
			<point x="701" y="314" type="curve" smooth="yes"/>
			<point x="668" y="282"/>
			<point x="627" y="264"/>
			<point x="567" y="264" type="curve" smooth="yes"/>
			<point x="483" y="264"/>
			<point x="430" y="302"/>
			<point x="430" y="400" type="curve" smooth="yes"/>
			<point x="430" y="1024" type="line"/>
			<point x="95" y="1024" type="line"/>
			<point x="95" y="399" type="line" smooth="yes"/>
			<point x="95" y="120"/>
			<point x="272" y="-4"/>
		</contour>
		<contour>
			<point x="-34" y="807" type="line"/>
			<point x="1158" y="807" type="line"/>
			<point x="1140" y="1061" type="line"/>
			<point x="-50" y="1061" type="line"/>
		</contour>
		<contour>
			<point x="94" y="1115" type="curve" smooth="yes"/>
			<point x="94" y="1016" type="line"/>
			<point x="430" y="1016" type="line"/>
			<point x="430" y="1115" type="line" smooth="yes"/>
			<point x="430" y="1348"/>
			<point x="288" y="1440"/>
			<point x="22" y="1440" type="curve" smooth="yes"/>
			<point x="-67" y="1440" type="line"/>
			<point x="-49" y="1186" type="line"/>
			<point x="23" y="1186" type="line" smooth="yes"/>
			<point x="76" y="1186"/>
			<point x="94" y="1157"/>
		</contour>
	</outline>
</glyph>
<glyph name="uni09F7.bn" format="2">
  <advance width="618"/>
  <unicode hex="09F7"/>
  <outline>
    <contour>
      <point x="141" y="376" type="line"/>
      <point x="477" y="376" type="line"/>
      <point x="477" y="898" type="line"/>
      <point x="141" y="898" type="line"/>
    </contour>
    <contour>
      <point x="141" y="865" type="line"/>
      <point x="477" y="865" type="line"/>
      <point x="477" y="964" type="line" smooth="yes"/>
      <point x="477" y="1197"/>
      <point x="335" y="1289"/>
      <point x="69" y="1289" type="curve" smooth="yes"/>
      <point x="-20" y="1289" type="line"/>
      <point x="-2" y="1035" type="line"/>
      <point x="70" y="1035" type="line" smooth="yes"/>
      <point x="123" y="1035"/>
      <point x="141" y="1006"/>
      <point x="141" y="964" type="curve" smooth="yes"/>
    </contour>
    <contour>
      <point x="477" y="417" type="line"/>
      <point x="141" y="417" type="line"/>
      <point x="141" y="318" type="line" smooth="yes"/>
      <point x="141" y="85"/>
      <point x="283" y="-7"/>
      <point x="549" y="-7" type="curve" smooth="yes"/>
      <point x="638" y="-7" type="line"/>
      <point x="620" y="247" type="line"/>
      <point x="548" y="247" type="line" smooth="yes"/>
      <point x="495" y="247"/>
      <point x="477" y="276"/>
      <point x="477" y="318" type="curve" smooth="yes"/>
    </contour>
  </outline>
</glyph>
<glyph name="uni09F8.bn" format="2">
  <advance width="1362"/>
  <unicode hex="09F8"/>
  <outline>
    <contour>
      <point x="885" y="383" type="line"/>
      <point x="1221" y="383" type="line"/>
      <point x="1221" y="962" type="line"/>
      <point x="863" y="962" type="line"/>
      <point x="661" y="821"/>
      <point x="468" y="649"/>
      <point x="328" y="498" type="curve"/>
      <point x="451" y="418" type="line"/>
      <point x="477" y="829" type="line"/>
      <point x="477" y="899" type="line"/>
      <point x="141" y="899" type="line"/>
      <point x="141" y="273" type="line"/>
      <point x="464" y="273" type="line"/>
      <point x="651" y="451"/>
      <point x="903" y="644"/>
      <point x="1093" y="782" type="curve"/>
      <point x="910" y="887" type="line"/>
      <point x="885" y="515" type="line"/>
    </contour>
    <contour>
      <point x="141" y="870" type="line"/>
      <point x="477" y="870" type="line"/>
      <point x="477" y="969" type="line" smooth="yes"/>
      <point x="477" y="1202"/>
      <point x="335" y="1294"/>
      <point x="69" y="1294" type="curve" smooth="yes"/>
      <point x="-20" y="1294" type="line"/>
      <point x="-2" y="1040" type="line"/>
      <point x="70" y="1040" type="line" smooth="yes"/>
      <point x="123" y="1040"/>
      <point x="141" y="1011"/>
      <point x="141" y="969" type="curve" smooth="yes"/>
    </contour>
    <contour>
      <point x="1221" y="417" type="line"/>
      <point x="885" y="417" type="line"/>
      <point x="885" y="318" type="line" smooth="yes"/>
      <point x="885" y="85"/>
      <point x="1027" y="-7"/>
      <point x="1293" y="-7" type="curve" smooth="yes"/>
      <point x="1382" y="-7" type="line"/>
      <point x="1364" y="247" type="line"/>
      <point x="1292" y="247" type="line" smooth="yes"/>
      <point x="1239" y="247"/>
      <point x="1221" y="276"/>
      <point x="1221" y="318" type="curve" smooth="yes"/>
    </contour>
  </outline>
</glyph>
<glyph name="uni09F9.bn" format="2">
	<advance width="1094"/>
	<unicode hex="09F9"/>
	<outline>
		<contour>
			<point x="548" y="343" type="curve" smooth="yes"/>
			<point x="837" y="343"/>
			<point x="987" y="456"/>
			<point x="987" y="663" type="curve" smooth="yes"/>
			<point x="987" y="668" type="line" smooth="yes"/>
			<point x="987" y="875"/>
			<point x="835" y="989"/>
			<point x="545" y="989" type="curve" smooth="yes"/>
			<point x="257" y="989"/>
			<point x="105" y="875"/>
			<point x="105" y="668" type="curve" smooth="yes"/>
			<point x="105" y="663" type="line" smooth="yes"/>
			<point x="105" y="456"/>
			<point x="257" y="343"/>
		</contour>
		<contour>
			<point x="546" y="572" type="curve" smooth="yes"/>
			<point x="457" y="572"/>
			<point x="414" y="603"/>
			<point x="414" y="663" type="curve" smooth="yes"/>
			<point x="414" y="670" type="line" smooth="yes"/>
			<point x="414" y="731"/>
			<point x="457" y="761"/>
			<point x="546" y="761" type="curve" smooth="yes"/>
			<point x="635" y="762"/>
			<point x="679" y="731"/>
			<point x="679" y="670" type="curve" smooth="yes"/>
			<point x="679" y="663" type="line" smooth="yes"/>
			<point x="679" y="603"/>
			<point x="635" y="572"/>
		</contour>
	</outline>
</glyph>
